<?xml version="1.0" encoding="utf-8"?>
<!-- Generator: Adobe Illustrator 24.1.2, SVG Export Plug-In . SVG Version: 6.00 Build 0)  -->
<svg version="1.1" id="Layer_1" xmlns="http://www.w3.org/2000/svg" xmlns:xlink="http://www.w3.org/1999/xlink" x="0px" y="0px"
	 viewBox="0 0 831.2 611" style="enable-background:new 0 0 831.2 611;" xml:space="preserve">
<style type="text/css">
	.st0{clip-path:url(#SVGID_2_);}
	.st1{fill:#F9F5F0;}
</style>
<g>
	<defs>
		<rect id="SVGID_1_" y="17.5" width="831.1" height="577.5"/>
	</defs>
	<clipPath id="SVGID_2_">
		<use xlink:href="#SVGID_1_"  style="overflow:visible;"/>
	</clipPath>
	<g class="st0">
		<path class="st1" d="M186.5,17c-2.6,0-5,1.7-5.7,4.1c-1.5-2.1-4.3-3-6.8-2.2c-2.5,0.8-4.2,3.1-4.1,5.6c-2.1-1.5-5-1.6-7.2-0.1
			c-2.1,1.5-2.9,4.2-2,6.5c-2.5-0.8-5.3,0-6.8,2.1c-1.5,2.1-1.4,4.8,0.2,6.8c-0.8-0.1-2.1-0.1-3.2,0.5c-1.5,0.8-2.5,2.3-2.7,4.1
			c-0.1-0.9-0.5-2.3-1.8-3.4c-1.6-1.4-3.6-1.3-4.2-1.2c1.7-2,1.8-4.7,0.2-6.8c-1.5-2.1-4.3-2.9-6.8-2.1c0.9-2.4,0.1-5-2-6.5
			c-2.1-1.5-5.1-1.5-7.2,0.1c0-0.1,0-0.2,0-0.3c0-2.4-1.6-4.6-4.1-5.4c-2.5-0.8-5.2,0.1-6.7,2.1c-0.8-2.3-3.1-4-5.7-4
			c-2.6,0-5,1.7-5.7,4.1c-1.5-2.1-4.3-3-6.8-2.2c-2.5,0.8-4.2,3.1-4.1,5.6c-2.1-1.5-5-1.6-7.2-0.1c-2.1,1.5-2.9,4.2-2,6.5
			c-2.5-0.8-5.3,0-6.8,2.1c-1.5,2.1-1.4,4.8,0.2,6.8c-0.8-0.1-2.1-0.1-3.2,0.5c-0.2,0.1-0.5,0.3-0.8,0.5c-1.3-1.6-3.4-2.4-5.4-2
			c1.5-2,1.4-4.8-0.1-6.8c-1.7-2.2-4.8-2.8-7.2-1.4c0.7-2.4-0.2-5-2.3-6.4c-2.3-1.5-5.4-1.1-7.3,1c-0.1-2.5-1.8-4.7-4.3-5.3
			c-2.7-0.7-5.5,0.7-6.6,3.3c-0.9-2.3-3.3-3.8-5.7-3.6c-2.8,0.2-5,2.5-5.1,5.3c-1.6-1.9-4.3-2.5-6.6-1.5c-2.5,1.1-3.9,4-3.1,6.6
			c-2.2-1.3-4.9-1-6.7,0.7c-2,1.9-2.4,5-0.8,7.3c-2.5-0.5-5,0.7-6.1,2.9c-1.3,2.5-0.6,5.5,1.6,7.2c-2.5,0.3-4.5,2.2-4.9,4.7
			c-0.4,2.8,1.2,5.4,3.9,6.3c-2.3,1.1-3.5,3.6-3.1,6C4.4,68,6.9,70,9.7,69.9c-1.8,1.8-2.2,4.5-0.9,6.7c1.4,2.4,4.3,3.5,6.9,2.5
			c-1.1,2.3-0.6,5,1.3,6.7c1.5,1.4,3.7,1.8,5.6,1.1c0.4,1,1,1.9,1.8,2.6c0,0,0.2,0.1,0.5,0.3c-0.2,0.2-0.4,0.4-0.6,0.6
			c-1.4,1.6-1.3,3.4-1.2,4c-2-1.6-4.7-1.7-6.8-0.2c-2.1,1.4-2.9,4.1-2.1,6.5c-2.4-0.9-5-0.1-6.5,1.9c-1.5,2-1.5,4.8,0.1,6.8
			c-2.5-0.1-4.8,1.5-5.6,3.9c-0.8,2.3,0.1,4.9,2.1,6.4c-2.3,0.7-4,2.9-4,5.4c0,2.4,1.7,4.7,4.1,5.4c-2.1,1.4-3,4-2.2,6.4
			c0.8,2.4,3.1,4,5.6,3.9c-1.5,2-1.6,4.8-0.1,6.8c1.5,2,4.2,2.8,6.5,1.9c-0.8,2.4,0,5,2.1,6.5c2.1,1.4,4.8,1.3,6.8-0.2
			c-0.1,0.8-0.1,1.9,0.5,3.1c0.8,1.4,2.3,2.4,4.1,2.6c-0.9,0.1-2.3,0.5-3.4,1.7c-1.4,1.6-1.3,3.4-1.2,4c-2-1.6-4.7-1.7-6.8-0.2
			c-2.1,1.4-2.9,4.1-2.1,6.5c-2.4-0.9-5-0.1-6.5,1.9c-1.5,2-1.5,4.8,0.1,6.8c-2.5-0.1-4.8,1.5-5.6,3.9c-0.8,2.3,0.1,4.9,2.1,6.4
			c-2.3,0.7-4,2.9-4,5.4s1.7,4.7,4.1,5.4c-2.1,1.4-3,4-2.2,6.4c0.8,2.4,3.1,4,5.6,3.9c-1.5,2-1.6,4.8-0.1,6.8c1.5,2,4.2,2.8,6.5,1.9
			c-0.8,2.4,0,5,2.1,6.5c2.1,1.4,4.8,1.3,6.8-0.2c-0.1,0.8-0.1,1.9,0.5,3.1c0.8,1.4,2.3,2.4,4.1,2.6c-0.9,0.1-2.3,0.5-3.4,1.7
			c-1.4,1.6-1.3,3.4-1.2,4c-2-1.6-4.7-1.7-6.8-0.2c-2.1,1.4-2.9,4.1-2.1,6.5c-2.4-0.9-5-0.1-6.5,1.9c-1.5,2-1.5,4.8,0.1,6.8
			c-2.5-0.1-4.8,1.5-5.6,3.9c-0.8,2.3,0.1,4.9,2.1,6.4c-2.3,0.7-4,2.9-4,5.4c0,2.4,1.7,4.7,4.1,5.4c-2.1,1.4-3,4-2.2,6.4
			c0.8,2.4,3.1,4,5.6,3.9c-1.5,2-1.6,4.8-0.1,6.8c1.5,2,4.2,2.8,6.5,1.9c-0.8,2.4,0,5,2.1,6.5s4.8,1.3,6.8-0.2
			c-0.1,0.8-0.1,1.9,0.5,3.1c0.8,1.4,2.3,2.4,4.1,2.6c-0.9,0.1-2.3,0.5-3.4,1.7c-1.4,1.6-1.3,3.4-1.2,4c-2-1.6-4.7-1.7-6.8-0.2
			c-2.1,1.4-2.9,4.1-2.1,6.5c-2.4-0.9-5-0.1-6.5,1.9c-1.5,2-1.5,4.8,0.1,6.8c-2.5-0.1-4.8,1.5-5.6,3.9c-0.8,2.3,0.1,4.9,2.1,6.4
			c-2.3,0.7-4,2.9-4,5.4c0,2.4,1.7,4.7,4.1,5.4c-2.1,1.4-3,4-2.2,6.4c0.8,2.4,3.1,4,5.6,3.9c-1.5,2-1.6,4.8-0.1,6.8s4.2,2.8,6.5,1.9
			c-0.8,2.4,0,5,2.1,6.5c2.1,1.4,4.8,1.3,6.8-0.2c-0.1,0.8-0.1,1.9,0.5,3.1c0.8,1.4,2.3,2.4,4.1,2.6c-0.9,0.1-2.3,0.5-3.4,1.7
			c-1.4,1.6-1.3,3.4-1.2,4c-2-1.6-4.7-1.7-6.8-0.2c-2.1,1.4-2.9,4.1-2.1,6.5c-2.4-0.9-5-0.1-6.5,1.9S6.1,397,7.6,399
			c-2.5-0.1-4.8,1.5-5.6,3.9c-0.8,2.3,0.1,4.9,2.1,6.4c-2.3,0.7-4,2.9-4,5.4c0,2.4,1.7,4.7,4.1,5.4c-2.1,1.4-3,4-2.2,6.4
			c0.8,2.4,3.1,4,5.6,3.9c-1.5,2-1.6,4.8-0.1,6.8c1.5,2,4.2,2.8,6.5,1.9c-0.8,2.4,0,5,2.1,6.5c2.1,1.4,4.8,1.3,6.8-0.2
			c-0.1,0.8-0.1,1.9,0.5,3.1c0.8,1.4,2.3,2.4,4.1,2.6c-0.9,0.1-2.3,0.5-3.4,1.7c-1.4,1.6-1.3,3.4-1.2,4c-2-1.6-4.7-1.7-6.8-0.2
			c-2.1,1.4-2.9,4.1-2.1,6.5c-2.4-0.9-5-0.1-6.5,1.9c-1.5,2-1.5,4.8,0.1,6.8c-2.5-0.1-4.8,1.5-5.6,3.8c-0.8,2.3,0.1,4.9,2.1,6.4
			c-2.3,0.7-4,2.9-4,5.4c0,2.4,1.7,4.7,4.1,5.4c-2.1,1.4-3,4-2.2,6.4c0.8,2.4,3.1,4,5.6,3.8c-1.5,2-1.6,4.8-0.1,6.8
			c1.5,2,4.2,2.8,6.5,1.9c-0.8,2.4,0,5,2.1,6.5c2.1,1.4,4.8,1.3,6.8-0.2c-0.1,0.8-0.1,1.9,0.5,3.1c0.3,0.6,0.7,1.1,1.3,1.5
			c-0.3,0.2-0.5,0.3-0.5,0.3c-0.8,0.7-1.5,1.6-1.8,2.6c-1.9-0.7-4.1-0.3-5.6,1.1c-1.9,1.7-2.4,4.4-1.3,6.7c-2.6-1-5.5,0.1-6.9,2.5
			c-1.2,2.2-0.8,4.9,0.9,6.7c-2.8-0.1-5.2,1.9-5.7,4.7c-0.4,2.5,0.8,4.9,3.1,6c-2.7,0.8-4.3,3.5-3.9,6.3c0.4,2.5,2.4,4.4,4.9,4.7
			c-2.2,1.6-2.9,4.7-1.6,7.2c1.2,2.2,3.7,3.4,6.1,2.9c-1.6,2.3-1.2,5.4,0.8,7.3c1.8,1.7,4.6,2,6.7,0.7c-0.7,2.7,0.6,5.5,3.1,6.7
			c2.3,1,5,0.4,6.6-1.5c0.2,2.8,2.4,5,5.1,5.3c2.5,0.2,4.8-1.3,5.8-3.6c1.1,2.6,3.9,4,6.6,3.3c2.4-0.6,4.2-2.8,4.3-5.3
			c1.8,2.1,4.9,2.5,7.3,1c2.1-1.4,3-4,2.3-6.4c2.4,1.4,5.5,0.8,7.2-1.4c1.5-2,1.6-4.7,0.1-6.8c2,0.4,4.1-0.4,5.4-2
			c1.6,1.2,3.4,1.1,4,1.1c-1.7,2-1.8,4.7-0.2,6.8c1.5,2.1,4.3,2.9,6.8,2.1c-0.9,2.4-0.1,5,2,6.5c2.1,1.5,5.1,1.5,7.2-0.1
			c0,0.1,0,0.2,0,0.3c0,2.4,1.6,4.6,4.1,5.4c2.5,0.8,5.2-0.1,6.7-2.1c0.8,2.3,3.1,4,5.7,4s5-1.7,5.7-4.1c1.5,2.1,4.3,3,6.8,2.2
			c2.5-0.8,4.2-3.1,4.1-5.6c2.1,1.5,5,1.6,7.2,0.1c2.1-1.5,2.9-4.2,2-6.5c2.5,0.8,5.3,0,6.8-2.1c1.5-2.1,1.4-4.8-0.2-6.8
			c0.8,0.1,2.1,0.1,3.2-0.5c1.5-0.8,2.5-2.3,2.7-4.1c0.1,0.9,0.5,2.3,1.8,3.4c1.6,1.4,3.6,1.3,4.2,1.2c-1.7,2-1.8,4.7-0.2,6.8
			c1.5,2.1,4.3,2.9,6.8,2.1c-0.9,2.4-0.1,5,2,6.5c2.1,1.5,5.1,1.5,7.2-0.1c0,0.1,0,0.2,0,0.3c0,2.4,1.6,4.6,4.1,5.4
			c2.5,0.8,5.2-0.1,6.7-2.1c0.8,2.3,3.1,4,5.7,4c2.6,0,5-1.7,5.7-4.1c1.5,2.1,4.3,3,6.8,2.2c2.5-0.8,4.2-3.1,4.1-5.6
			c2.1,1.5,5,1.6,7.2,0.1c2.1-1.5,2.9-4.2,2-6.5c2.5,0.8,5.3,0,6.8-2.1c1.5-2.1,1.4-4.8-0.2-6.8c0.8,0.1,2.1,0.1,3.2-0.5
			c1.5-0.8,2.5-2.3,2.7-4.1c0.1,0.9,0.5,2.3,1.8,3.4c1.6,1.4,3.6,1.3,4.2,1.2c-1.7,2-1.8,4.7-0.2,6.8c1.5,2.1,4.3,2.9,6.8,2.1
			c-0.9,2.4-0.1,5,2,6.5c2.1,1.5,5.1,1.5,7.2-0.1c0,0.1,0,0.2,0,0.3c0,2.4,1.6,4.6,4.1,5.4c2.5,0.8,5.2-0.1,6.7-2.1
			c0.8,2.3,3.1,4,5.7,4c2.6,0,5-1.7,5.7-4.1c1.5,2.1,4.3,3,6.8,2.2c2.5-0.8,4.2-3.1,4.1-5.6c2.1,1.5,5,1.6,7.2,0.1
			c2.1-1.5,2.9-4.2,2-6.5c2.5,0.8,5.3,0,6.8-2.1c1.5-2.1,1.4-4.8-0.2-6.8c0.8,0.1,2.1,0.1,3.2-0.5c1.5-0.8,2.5-2.3,2.7-4.1
			c0.1,0.9,0.5,2.3,1.8,3.4c1.6,1.4,3.6,1.3,4.2,1.2c-1.7,2-1.8,4.7-0.2,6.8c1.5,2.1,4.3,2.9,6.8,2.1c-0.9,2.4-0.1,5,2,6.5
			c2.1,1.5,5.1,1.5,7.2-0.1c0,0.1,0,0.2,0,0.3c0,2.4,1.6,4.6,4.1,5.4c2.5,0.8,5.2-0.1,6.7-2.1c0.8,2.3,3.1,4,5.7,4
			c2.6,0,5-1.7,5.7-4.1c1.5,2.1,4.3,3,6.8,2.2c2.5-0.8,4.2-3.1,4.1-5.6c2.1,1.5,5,1.6,7.2,0.1c2.1-1.5,2.9-4.2,2-6.5
			c2.5,0.8,5.3,0,6.8-2.1c1.5-2.1,1.4-4.8-0.2-6.8c0.8,0.1,2.1,0.1,3.2-0.5c1.5-0.8,2.5-2.3,2.7-4.1c0.1,0.9,0.5,2.3,1.8,3.4
			c1.6,1.4,3.6,1.3,4.2,1.2c-1.7,2-1.8,4.7-0.2,6.8c1.5,2.1,4.3,2.9,6.8,2.1c-0.9,2.4-0.1,5,2,6.5c2.1,1.5,5.1,1.5,7.2-0.1
			c0,0.1,0,0.2,0,0.3c0,2.4,1.6,4.6,4.1,5.4c2.5,0.8,5.2-0.1,6.7-2.1c0.8,2.3,3.1,4,5.7,4c2.6,0,5-1.7,5.7-4.1
			c1.5,2.1,4.3,3,6.8,2.2c2.4-0.8,4.1-2.9,4.1-5.4c0-0.1,0-0.2,0-0.2c2.1,1.5,5,1.6,7.2,0.1c2.1-1.5,2.9-4.2,2-6.5
			c2.5,0.8,5.3,0,6.8-2.1c1.5-2.1,1.4-4.8-0.2-6.8c0.8,0.1,2.1,0.1,3.2-0.5c1.5-0.8,2.5-2.3,2.7-4.1c0.1,0.9,0.5,2.3,1.8,3.4
			c1.6,1.4,3.6,1.3,4.2,1.2c-1.7,2-1.8,4.7-0.2,6.8c1.5,2.1,4.3,2.9,6.8,2.1c-0.9,2.4-0.1,5,2,6.5c2.1,1.5,5.1,1.5,7.2-0.1
			c0,0.1,0,0.2,0,0.3c0,2.4,1.6,4.6,4.1,5.4c2.5,0.8,5.2-0.1,6.7-2.1c0.8,2.3,3.1,4,5.7,4s5-1.7,5.7-4.1c1.5,2.1,4.3,3,6.8,2.2
			c2.5-0.8,4.2-3.1,4.1-5.6c2.1,1.5,5,1.6,7.2,0.1c2.1-1.5,2.9-4.2,2-6.5c2.5,0.8,5.3,0,6.8-2.1c1.5-2.1,1.4-4.8-0.2-6.8
			c0.8,0.1,2.1,0.1,3.2-0.5c1.5-0.8,2.5-2.3,2.7-4.1c0.1,0.9,0.5,2.3,1.8,3.4c1.6,1.4,3.6,1.3,4.2,1.2c-1.7,2-1.8,4.7-0.2,6.8
			c1.5,2.1,4.3,2.9,6.8,2.1c-0.9,2.4-0.1,5,2,6.5c2.1,1.5,5.1,1.5,7.2-0.1c0,0.1,0,0.2,0,0.3c0,2.4,1.6,4.6,4.1,5.4
			c2.5,0.8,5.2-0.1,6.7-2.1c0.8,2.3,3.1,4,5.7,4c2.6,0,5-1.7,5.7-4.1c1.5,2.1,4.3,3,6.8,2.2c2.4-0.8,4.1-2.9,4.1-5.4
			c0-0.1,0-0.2,0-0.2c2.1,1.5,5,1.6,7.2,0.1c2.1-1.5,2.9-4.2,2-6.5c2.5,0.8,5.3,0,6.8-2.1c1.5-2.1,1.4-4.8-0.2-6.8
			c0.8,0.1,2.1,0.1,3.2-0.5c1.5-0.8,2.5-2.3,2.7-4.1c0.1,0.9,0.5,2.3,1.8,3.4c1.6,1.4,3.6,1.3,4.2,1.2c-1.7,2-1.8,4.7-0.2,6.8
			c1.5,2.1,4.3,2.9,6.8,2.1c-0.9,2.4-0.1,5,2,6.5c2.1,1.5,5.1,1.5,7.2-0.1c0,0.1,0,0.2,0,0.3c0,2.4,1.6,4.6,4.1,5.4
			c2.5,0.8,5.2-0.1,6.7-2.1c0.8,2.3,3.1,4,5.7,4c2.6,0,5-1.7,5.7-4.1c1.5,2.1,4.3,3,6.8,2.2c2.4-0.8,4.1-2.9,4.1-5.4
			c0-0.1,0-0.2,0-0.2c2.1,1.5,5,1.6,7.2,0.1c2.1-1.5,2.9-4.2,2-6.5c2.5,0.8,5.3,0,6.8-2.1c1.5-2.1,1.4-4.8-0.2-6.8
			c0.8,0.1,2.1,0.1,3.2-0.5c1.5-0.8,2.5-2.3,2.7-4.1c0.1,0.9,0.5,2.3,1.8,3.4c1.6,1.4,3.6,1.3,4.2,1.2c-1.7,2-1.8,4.7-0.2,6.8
			c1.5,2.1,4.3,2.9,6.8,2.1c-0.9,2.4-0.1,5,2,6.5c2.1,1.5,5.1,1.5,7.2-0.1c0,0.1,0,0.2,0,0.3c0,2.4,1.6,4.6,4.1,5.4
			c2.5,0.8,5.2-0.1,6.7-2.1c0.8,2.3,3.1,4,5.7,4s5-1.7,5.7-4.1c1.5,2.1,4.3,3,6.8,2.2c2.4-0.8,4.1-2.9,4.1-5.4c0-0.1,0-0.2,0-0.2
			c2.1,1.5,5,1.6,7.2,0.1c2.1-1.5,2.9-4.2,2-6.5c2.5,0.8,5.3,0,6.8-2.1c1.5-2.1,1.4-4.8-0.2-6.8c0.8,0.1,2.1,0.1,3.2-0.5
			c0.2-0.1,0.5-0.3,0.8-0.5c1.3,1.6,3.4,2.4,5.4,2c-1.5,2-1.4,4.8,0.1,6.8c1.7,2.2,4.8,2.8,7.2,1.4c-0.7,2.4,0.2,5,2.3,6.4
			c2.3,1.5,5.4,1.1,7.3-1c0.1,2.5,1.8,4.7,4.3,5.3c2.7,0.7,5.5-0.7,6.6-3.3c0.9,2.3,3.3,3.8,5.8,3.6c2.8-0.2,5-2.5,5.1-5.3
			c1.6,1.9,4.3,2.5,6.6,1.5c2.5-1.1,3.9-4,3.1-6.7c2.2,1.3,4.9,1,6.7-0.7c2-1.9,2.4-5,0.8-7.3c2.5,0.5,5-0.7,6.1-2.9
			c1.3-2.5,0.6-5.5-1.6-7.2c2.5-0.3,4.5-2.2,4.9-4.7c0.4-2.8-1.2-5.4-3.9-6.3c2.3-1.1,3.5-3.6,3.1-6c-0.5-2.7-2.9-4.7-5.7-4.7
			c1.8-1.8,2.2-4.5,0.9-6.7c-1.4-2.4-4.3-3.5-6.9-2.5c1.1-2.3,0.6-5-1.3-6.7c-1.5-1.4-3.7-1.8-5.6-1.1c-0.4-1-1-1.9-1.8-2.6
			c0,0-0.2-0.1-0.4-0.3c0.2-0.2,0.4-0.4,0.6-0.6c1.4-1.6,1.3-3.4,1.2-4c2,1.6,4.7,1.7,6.8,0.2c2.1-1.4,2.9-4.1,2.1-6.5
			c2.4,0.9,5,0.1,6.5-1.9c1.5-2,1.5-4.8-0.1-6.8c2.5,0.1,4.8-1.5,5.6-3.8c0.8-2.3-0.1-4.9-2.1-6.4c2.3-0.7,4-2.9,4-5.4
			c0-2.4-1.7-4.7-4.1-5.4c2.1-1.4,3-4,2.2-6.4c-0.8-2.4-3.1-4-5.6-3.8c1.5-2,1.6-4.8,0.1-6.8c-1.5-2-4.2-2.8-6.5-1.9
			c0.8-2.4,0-5-2.1-6.5c-2.1-1.4-4.8-1.3-6.8,0.2c0.1-0.8,0.1-1.9-0.5-3.1c-0.8-1.4-2.3-2.4-4.1-2.6c0.9-0.1,2.3-0.5,3.4-1.7
			c1.4-1.6,1.3-3.4,1.2-4c2,1.6,4.7,1.7,6.8,0.2c2.1-1.4,2.9-4.1,2.1-6.5c2.4,0.9,5,0.1,6.5-1.9c1.5-2,1.5-4.8-0.1-6.8
			c2.5,0.1,4.8-1.5,5.6-3.9c0.8-2.3-0.1-4.9-2.1-6.4c2.3-0.7,4-2.9,4-5.4c0-2.4-1.7-4.7-4.1-5.4c2.1-1.4,3-4,2.2-6.4
			c-0.8-2.4-3.1-4-5.6-3.9c1.5-2,1.6-4.8,0.1-6.8c-1.5-2-4.2-2.8-6.5-1.9c0.8-2.4,0-5-2.1-6.5c-2.1-1.4-4.8-1.3-6.8,0.2
			c0.1-0.8,0.1-1.9-0.5-3.1c-0.8-1.4-2.3-2.4-4.1-2.6c0.9-0.1,2.3-0.5,3.4-1.7c1.4-1.6,1.3-3.4,1.2-4c2,1.6,4.7,1.7,6.8,0.2
			c2.1-1.4,2.9-4.1,2.1-6.5c2.4,0.9,5,0.1,6.5-1.9s1.5-4.8-0.1-6.8c2.5,0.1,4.8-1.5,5.6-3.9c0.8-2.3-0.1-4.9-2.1-6.4
			c2.3-0.7,4-2.9,4-5.4s-1.7-4.7-4.1-5.4c2.1-1.4,3-4,2.2-6.4c-0.8-2.4-3.1-4-5.6-3.9c1.5-2,1.6-4.8,0.1-6.8c-1.5-2-4.2-2.8-6.5-1.9
			c0.8-2.4,0-5-2.1-6.5c-2.1-1.4-4.8-1.3-6.8,0.2c0.1-0.8,0.1-1.9-0.5-3.1c-0.8-1.4-2.3-2.4-4.1-2.6c0.9-0.1,2.3-0.5,3.4-1.7
			c1.4-1.6,1.3-3.4,1.2-4c2,1.6,4.7,1.7,6.8,0.2c2.1-1.4,2.9-4.1,2.1-6.5c2.4,0.9,5,0.1,6.5-1.9c1.5-2,1.5-4.8-0.1-6.8
			c2.5,0.1,4.8-1.5,5.6-3.9c0.8-2.3-0.1-4.9-2.1-6.4c2.3-0.7,4-2.9,4-5.4c0-2.4-1.7-4.7-4.1-5.4c2.1-1.4,3-4,2.2-6.4
			c-0.8-2.4-3.1-4-5.6-3.9c1.5-2,1.6-4.8,0.1-6.8c-1.5-2-4.2-2.8-6.5-1.9c0.8-2.4,0-5-2.1-6.5c-2.1-1.4-4.8-1.3-6.8,0.2
			c0.1-0.8,0.1-1.9-0.5-3.1c-0.8-1.4-2.3-2.4-4.1-2.6c0.9-0.1,2.3-0.5,3.4-1.7c1.4-1.6,1.3-3.4,1.2-4c2,1.6,4.7,1.7,6.8,0.2
			c2.1-1.4,2.9-4.1,2.1-6.5c2.4,0.9,5,0.1,6.5-1.9s1.5-4.8-0.1-6.8c2.5,0.1,4.8-1.5,5.6-3.8c0.8-2.3-0.1-4.9-2.1-6.4
			c2.3-0.7,4-2.9,4-5.4c0-2.4-1.7-4.7-4.1-5.4c2.1-1.4,3-4,2.2-6.4c-0.8-2.4-3.1-4-5.6-3.8c1.5-2,1.6-4.8,0.1-6.8
			c-1.5-2-4.2-2.8-6.5-1.9c0.8-2.4,0-5-2.1-6.5c-2.1-1.4-4.8-1.3-6.8,0.2c0.1-0.8,0.1-1.9-0.5-3.1c-0.8-1.4-2.3-2.4-4.1-2.6
			c0.9-0.1,2.3-0.5,3.4-1.7c1.4-1.6,1.3-3.4,1.2-4c2,1.6,4.7,1.7,6.8,0.2c2.1-1.4,2.9-4.1,2.1-6.5c2.4,0.9,5,0.1,6.5-1.9
			s1.5-4.8-0.1-6.8c2.5,0.1,4.8-1.5,5.6-3.8c0.8-2.3-0.1-4.9-2.1-6.4c2.3-0.7,4-2.9,4-5.4c0-2.4-1.7-4.7-4.1-5.4
			c2.1-1.4,3-4,2.2-6.4c-0.8-2.4-3.1-4-5.6-3.8c1.5-2,1.6-4.8,0.1-6.8c-1.5-2-4.2-2.8-6.5-1.9c0.8-2.4,0-5-2.1-6.5
			c-2.1-1.4-4.8-1.3-6.8,0.2c0.1-0.8,0.1-1.9-0.5-3.1c-0.3-0.6-0.8-1.1-1.3-1.5c0.3-0.2,0.5-0.3,0.5-0.3c0.8-0.7,1.5-1.6,1.8-2.6
			c1.9,0.7,4.1,0.3,5.6-1.1c1.9-1.7,2.4-4.4,1.3-6.7c2.6,1,5.5-0.1,6.9-2.5c1.2-2.2,0.8-4.9-0.9-6.7c2.8,0.1,5.2-1.9,5.7-4.6
			c0.4-2.5-0.8-4.9-3.1-6c2.6-0.8,4.3-3.5,3.9-6.3c-0.4-2.5-2.4-4.4-4.9-4.7c2.2-1.6,2.9-4.7,1.6-7.2c-1.2-2.2-3.7-3.4-6.1-2.9
			c1.6-2.3,1.2-5.4-0.8-7.3c-1.8-1.7-4.6-2-6.7-0.7c0.7-2.7-0.6-5.5-3.1-6.7c-2.3-1-5-0.4-6.6,1.5c-0.2-2.8-2.4-5-5.1-5.3
			c-2.5-0.2-4.8,1.3-5.7,3.6c-1.1-2.6-3.9-4-6.6-3.3c-2.4,0.6-4.2,2.8-4.3,5.3c-1.8-2.1-4.9-2.5-7.3-1c-2.1,1.4-3.1,4-2.3,6.4
			c-2.4-1.4-5.5-0.8-7.2,1.4c-1.5,2-1.6,4.8-0.1,6.8c-2-0.4-4.1,0.4-5.4,2c-1.6-1.2-3.4-1.1-4-1.1c1.7-2,1.8-4.7,0.2-6.8
			c-1.5-2.1-4.3-2.9-6.8-2.1c0.9-2.4,0.1-5-2-6.5c-2.1-1.5-5.1-1.5-7.2,0.1c0.1-2.5-1.5-4.8-4.1-5.6c-2.5-0.8-5.2,0.1-6.7,2.1
			c-0.8-2.3-3.1-4-5.7-4c-2.6,0-5,1.7-5.7,4.1c-1.5-2.1-4.3-3-6.8-2.2c-2.4,0.8-4.1,2.9-4.1,5.4c0,0.1,0,0.2,0,0.3
			c-2.1-1.5-5-1.6-7.2-0.1c-2.1,1.5-2.9,4.2-2,6.5c-2.5-0.8-5.3,0-6.8,2.1c-1.5,2.1-1.4,4.8,0.2,6.8c-0.8-0.1-2.1-0.1-3.2,0.5
			c-1.5,0.8-2.5,2.3-2.7,4.1c-0.1-0.9-0.5-2.3-1.8-3.4c-1.6-1.4-3.6-1.3-4.2-1.2c1.7-2,1.8-4.7,0.2-6.8s-4.3-2.9-6.8-2.1
			c0.9-2.4,0.1-5-2-6.5c-2.1-1.5-5.1-1.5-7.2,0.1c0-0.1,0-0.2,0-0.3c0-2.4-1.6-4.6-4.1-5.4c-2.5-0.8-5.2,0.1-6.7,2.1
			c-0.8-2.3-3.1-4-5.7-4c-2.6,0-5,1.7-5.7,4.1c-1.5-2.1-4.3-3-6.8-2.2c-2.5,0.8-4.2,3.1-4.1,5.6c-2.1-1.5-5-1.6-7.2-0.1
			c-2.1,1.5-2.9,4.2-2,6.5c-2.5-0.8-5.3,0-6.8,2.1c-1.5,2.1-1.4,4.8,0.2,6.8c-0.8-0.1-2.1-0.1-3.2,0.5c-1.5,0.8-2.5,2.3-2.7,4.1
			c-0.1-0.9-0.5-2.3-1.8-3.4c-1.6-1.4-3.6-1.3-4.2-1.2c1.7-2,1.8-4.7,0.2-6.8c-1.5-2.1-4.3-2.9-6.8-2.1c0.9-2.4,0.1-5-2-6.5
			c-2.1-1.5-5.1-1.5-7.2,0.1c0.1-2.5-1.5-4.8-4.1-5.6c-2.5-0.8-5.2,0.1-6.7,2.1c-0.8-2.3-3.1-4-5.7-4c-2.6,0-5,1.7-5.7,4.1
			c-1.5-2.1-4.3-3-6.8-2.2c-2.4,0.8-4.1,2.9-4.1,5.4c0,0.1,0,0.2,0,0.3c-2.1-1.5-5-1.6-7.2-0.1c-2.1,1.5-2.9,4.2-2,6.5
			c-2.5-0.8-5.3,0-6.8,2.1c-1.5,2.1-1.4,4.8,0.2,6.8c-0.8-0.1-2.1-0.1-3.2,0.5c-1.5,0.8-2.5,2.3-2.7,4.1c-0.1-0.9-0.5-2.3-1.8-3.4
			c-1.6-1.4-3.6-1.3-4.2-1.2c1.7-2,1.8-4.7,0.2-6.8c-1.5-2.1-4.3-2.9-6.8-2.1c0.9-2.4,0.1-5-2-6.5c-2.1-1.5-5.1-1.5-7.2,0.1
			c0-0.1,0-0.2,0-0.3c0-2.4-1.6-4.6-4.1-5.4c-2.5-0.8-5.2,0.1-6.7,2.1c-0.8-2.3-3.1-4-5.7-4c-2.6,0-5,1.7-5.7,4.1
			c-1.5-2.1-4.3-3-6.8-2.2c-2.5,0.8-4.2,3.1-4.1,5.6c-2.1-1.5-5-1.6-7.2-0.1c-2.1,1.5-2.9,4.2-2,6.5c-2.5-0.8-5.3,0-6.8,2.1
			c-1.5,2.1-1.4,4.8,0.2,6.8c-0.8-0.1-2.1-0.1-3.2,0.5c-1.5,0.8-2.5,2.3-2.7,4.1c-0.1-0.9-0.5-2.3-1.8-3.4c-1.6-1.4-3.6-1.3-4.2-1.2
			c1.7-2,1.8-4.7,0.2-6.8c-1.5-2.1-4.3-2.9-6.8-2.1c0.9-2.4,0.1-5-2-6.5c-2.1-1.5-5.1-1.5-7.2,0.1c0.1-2.5-1.5-4.8-4.1-5.6
			c-2.5-0.8-5.2,0.1-6.7,2.1c-0.8-2.3-3.1-4-5.7-4c-2.6,0-5,1.7-5.7,4.1c-1.5-2.1-4.3-3-6.8-2.2c-2.5,0.8-4.2,3.1-4.1,5.6
			c-2.1-1.5-5-1.6-7.2-0.1c-2.1,1.5-2.9,4.2-2,6.5c-2.5-0.8-5.3,0-6.8,2.1c-1.5,2.1-1.4,4.8,0.2,6.8c-0.8-0.1-2.1-0.1-3.2,0.5
			c-1.5,0.8-2.5,2.3-2.7,4.1c-0.1-0.9-0.5-2.3-1.8-3.4c-1.6-1.4-3.6-1.3-4.2-1.2c1.7-2,1.8-4.7,0.2-6.8c-1.5-2.1-4.3-2.9-6.8-2.1
			c0.9-2.4,0.1-5-2-6.5c-2.1-1.5-5.1-1.5-7.2,0.1c0.1-2.5-1.5-4.8-4.1-5.6c-2.5-0.8-5.2,0.1-6.7,2.1c-0.8-2.3-3.1-4-5.7-4
			s-5,1.7-5.7,4.1c-1.5-2.1-4.3-3-6.8-2.2c-2.5,0.8-4.2,3.1-4.1,5.6c-2.1-1.5-5-1.6-7.2-0.1c-2.1,1.5-2.9,4.2-2,6.5
			c-2.5-0.8-5.3,0-6.8,2.1c-1.5,2.1-1.4,4.8,0.2,6.8c-0.8-0.1-2.1-0.1-3.2,0.5c-1.5,0.8-2.5,2.3-2.7,4.1c-0.1-0.9-0.5-2.3-1.8-3.4
			c-1.6-1.4-3.6-1.3-4.2-1.2c1.7-2,1.8-4.7,0.2-6.8c-1.5-2.1-4.3-2.9-6.8-2.1c0.9-2.4,0.1-5-2-6.5c-2.1-1.5-5.1-1.5-7.2,0.1
			c0-0.1,0-0.2,0-0.3c0-2.4-1.6-4.6-4.1-5.4c-2.5-0.8-5.2,0.1-6.7,2.1c-0.8-2.3-3.1-4-5.7-4s-5,1.7-5.7,4.1c-1.5-2.1-4.3-3-6.8-2.2
			c-2.5,0.8-4.2,3.1-4.1,5.6c-2.1-1.5-5-1.6-7.2-0.1c-2.1,1.5-2.9,4.2-2,6.5c-2.5-0.8-5.3,0-6.8,2.1c-1.5,2.1-1.4,4.8,0.2,6.8
			c-0.8-0.1-2.1-0.1-3.2,0.5c-1.5,0.8-2.5,2.3-2.7,4.1c-0.1-0.9-0.5-2.3-1.8-3.4c-1.6-1.4-3.6-1.3-4.2-1.2c1.7-2,1.8-4.7,0.2-6.8
			c-1.5-2.1-4.3-2.9-6.8-2.1c0.9-2.4,0.1-5-2-6.5c-2.1-1.5-5.1-1.5-7.2,0.1c0.1-2.5-1.5-4.8-4.1-5.6c-2.5-0.8-5.2,0.1-6.7,2.1
			C191.4,18.7,189.1,17.1,186.5,17L186.5,17z M108,22.2c0-1.1,0.9-2,2.1-2c1.2,0,2.1,0.9,2.1,2c0,1.1-0.9,2-2.1,2
			C108.9,24.1,108,23.3,108,22.2z M14.9,34.9c0-1.1,0.9-2,2-2s2,0.9,2,2c0,1.1-0.9,2-2,2S14.9,36,14.9,34.9z M18.8,577.1
			c0,1.1-0.9,2-2,2s-2-0.9-2-2c0-1.1,0.9-2,2-2S18.8,576,18.8,577.1z M112.2,589.8c0,1.1-0.9,2-2.1,2s-2.1-0.9-2.1-2
			c0-1.1,0.9-2,2.1-2S112.2,588.7,112.2,589.8z M188.6,589.8c0,1.1-0.9,2-2.1,2s-2.1-0.9-2.1-2c0-1.1,0.9-2,2.1-2
			S188.6,588.7,188.6,589.8z M265,589.8c0,1.1-0.9,2-2.1,2c-1.2,0-2.1-0.9-2.1-2c0-1.1,0.9-2,2.1-2C264,587.8,265,588.7,265,589.8z
			 M341.3,589.8c0,1.1-0.9,2-2.1,2c-1.2,0-2.1-0.9-2.1-2c0-1.1,0.9-2,2.1-2C340.4,587.8,341.3,588.7,341.3,589.8z M417.7,589.8
			c0,1.1-0.9,2-2.1,2c-1.2,0-2.1-0.9-2.1-2c0-1.1,0.9-2,2.1-2C416.8,587.8,417.7,588.7,417.7,589.8z M494.1,589.8c0,1.1-0.9,2-2.1,2
			c-1.1,0-2.1-0.9-2.1-2c0-1.1,0.9-2,2.1-2C493.2,587.8,494.1,588.7,494.1,589.8z M570.5,589.8c0,1.1-0.9,2-2.1,2
			c-1.2,0-2.1-0.9-2.1-2c0-1.1,0.9-2,2.1-2C569.6,587.8,570.5,588.7,570.5,589.8z M646.9,589.8c0,1.1-0.9,2-2.1,2
			c-1.2,0-2.1-0.9-2.1-2c0-1.1,0.9-2,2.1-2C646,587.8,646.9,588.7,646.9,589.8z M723.3,589.8c0,1.1-0.9,2-2.1,2s-2.1-0.9-2.1-2
			c0-1.1,0.9-2,2.1-2S723.3,588.7,723.3,589.8z M816.4,577.1c0,1.1-0.9,2-2,2c-1.1,0-2-0.9-2-2s0.9-2,2-2
			C815.5,575.1,816.4,576,816.4,577.1z M812.5,34.9c0-1.1,0.9-2,2-2c1.1,0,2,0.9,2,2c0,1.1-0.9,2-2,2
			C813.4,36.9,812.5,36,812.5,34.9z M719.1,22.2c0-1.1,0.9-2,2.1-2c1.2,0,2.1,0.9,2.1,2c0,1.1-0.9,2-2.1,2
			C720.1,24.1,719.1,23.3,719.1,22.2z M642.7,22.2c0-1.1,0.9-2,2.1-2c1.2,0,2.1,0.9,2.1,2c0,1.1-0.9,2-2.1,2
			C643.7,24.1,642.7,23.3,642.7,22.2z M566.4,22.2c0-1.1,0.9-2,2.1-2c1.2,0,2.1,0.9,2.1,2c0,1.1-0.9,2-2.1,2
			C567.3,24.1,566.4,23.3,566.4,22.2z M490,22.2c0-1.1,0.9-2,2.1-2c1.2,0,2.1,0.9,2.1,2c0,1.1-0.9,2-2.1,2
			C490.9,24.1,490,23.3,490,22.2z M413.6,22.2c0-1.1,0.9-2,2.1-2c1.2,0,2.1,0.9,2.1,2c0,1.1-0.9,2-2.1,2
			C414.5,24.1,413.6,23.3,413.6,22.2z M337.2,22.2c0-1.1,0.9-2,2.1-2c1.2,0,2.1,0.9,2.1,2c0,1.1-0.9,2-2.1,2
			C338.1,24.1,337.2,23.3,337.2,22.2z M260.8,22.2c0-1.1,0.9-2,2.1-2c1.2,0,2.1,0.9,2.1,2c0,1.1-0.9,2-2.1,2
			C261.7,24.1,260.8,23.3,260.8,22.2z M119.4,36.6c4.2,4,4,8.3,4,8.8c-0.5,0-5.1,0.2-9.3-3.8c-3.5-3.3-3.9-6.9-4-8.3
			c0-0.1,0-0.2,0-0.3c0-0.1,0-0.2,0-0.2C110.6,32.8,115.2,32.6,119.4,36.6z M110.1,45.5c-1.2,0-2.1-0.9-2.1-2c0-1.1,0.9-2,2.1-2
			s2.1,0.9,2.1,2C112.2,44.6,111.2,45.5,110.1,45.5z M100.8,36.6c4.2-4,8.8-3.8,9.3-3.8c0,0,0,0.1,0,0.2c0,0,0,0.1,0,0.1
			c0,0,0,0.1,0,0.1c0,1.4-0.5,5-4,8.3c-4.2,4-8.8,3.8-9.3,3.8C96.8,45,96.6,40.6,100.8,36.6L100.8,36.6z M144.3,54.4
			c3.2,3.1,3.8,6.3,3.9,8v0h0.1v0c0.1-1.7,0.7-5,3.9-8c4.2-4,8.8-3.8,9.3-3.8c0,0.5,0.2,4.8-3.9,8.8c-3.2,3.1-6.7,3.7-8.4,3.8h0v0v0
			v0.1h0c1.8,0.1,5.2,0.7,8.4,3.8c4.2,4,4,8.3,3.9,8.8c-0.5,0-5.1,0.2-9.3-3.8c-3.2-3.1-3.8-6.3-3.9-8v0h-0.1v0
			c-0.1,1.7-0.7,5-3.9,8c-4.2,4-8.8,3.8-9.3,3.8c0-0.5-0.2-4.8,3.9-8.8c3.2-3.1,6.7-3.7,8.4-3.8h0v0v0v-0.1h0
			c-1.8-0.1-5.2-0.7-8.4-3.8c-4.2-4-4-8.3-3.9-8.8C135.5,50.6,140.1,50.4,144.3,54.4z M148.3,50.6L148.3,50.6c1.2,0,2.1,0.9,2.1,2
			c0,1.1-0.9,2-2.1,2h0c-1.1,0-2.1-0.9-2.1-2C146.2,51.5,147.1,50.6,148.3,50.6z M182.5,54.4c3.2,3.1,3.8,6.3,3.9,8v0h0h0h0.1v0
			c0.1-1.7,0.7-5,4-8c4.2-4,8.8-3.8,9.3-3.8c0,0.5,0.2,4.8-4,8.8c-3.2,3.1-6.7,3.7-8.4,3.8h0v0c0,0,0,0,0,0v0.1h0
			c1.8,0.1,5.2,0.7,8.4,3.8c4.2,4,4,8.3,3.9,8.8c-0.5,0-5.1,0.2-9.3-3.8c-3.2-3.1-3.9-6.3-4-8v0h0h0h-0.1v0c-0.1,1.7-0.7,5-3.9,8
			c-4.2,4-8.8,3.8-9.3,3.8c0-0.5-0.2-4.8,3.9-8.8c3.2-3.1,6.7-3.7,8.4-3.8h0v0v0v-0.1h0c-1.8-0.1-5.2-0.7-8.4-3.8
			c-4.2-4-4-8.3-3.9-8.8C173.7,50.6,178.3,50.4,182.5,54.4L182.5,54.4z M186.5,50.6c1.2,0,2.1,0.9,2.1,2c0,1.1-0.9,2-2.1,2
			c-1.2,0-2.1-0.9-2.1-2C184.4,51.5,185.3,50.6,186.5,50.6z M335.3,54.4c3.2,3.1,3.9,6.3,4,8v0h0h0h0.1v0c0.1-1.7,0.7-5,4-8
			c4.2-4,8.8-3.8,9.3-3.8c0,0.5,0.2,4.8-4,8.8c-3.2,3.1-6.7,3.7-8.4,3.8h0v0v0v0.1h0c1.8,0.1,5.2,0.7,8.4,3.8c4.2,4,4,8.3,4,8.8
			c-0.5,0-5.1,0.2-9.3-3.8c-3.2-3.1-3.9-6.3-4-8v0h0h0h-0.1v0c-0.1,1.7-0.7,5-4,8c-4.2,4-8.8,3.8-9.3,3.8c0-0.5-0.2-4.8,4-8.8
			c3.2-3.1,6.7-3.7,8.4-3.8h0v0v0v-0.1h0c-1.8-0.1-5.2-0.7-8.4-3.8c-4.2-4-4-8.3-4-8.8C326.5,50.6,331.1,50.4,335.3,54.4z
			 M339.3,50.6c1.2,0,2.1,0.9,2.1,2c0,1.1-0.9,2-2.1,2c-1.2,0-2.1-0.9-2.1-2C337.2,51.5,338.1,50.6,339.3,50.6z M488,54.4
			c3.2,3.1,3.8,6.3,3.9,8v0h0h0h0.1v0c0.1-1.7,0.7-5,3.9-8c4.2-4,8.8-3.8,9.3-3.8c0,0.5,0.2,4.8-4,8.8c-3.2,3.1-6.6,3.7-8.4,3.8h0v0
			v0v0.1h0c1.8,0.1,5.2,0.7,8.4,3.8c4.2,4,4,8.3,4,8.8c-0.5,0-5.1,0.2-9.3-3.8c-3.2-3.1-3.9-6.3-3.9-8v0h0h0H492v0
			c-0.1,1.7-0.7,5-3.9,8c-4.2,4-8.8,3.8-9.3,3.8c0-0.5-0.2-4.8,3.9-8.8c3.2-3.1,6.7-3.7,8.4-3.8h0v0c0,0,0,0,0,0v-0.1h0
			c-1.8-0.1-5.2-0.7-8.4-3.8c-4.2-4-4-8.3-4-8.8C479.3,50.6,483.9,50.4,488,54.4L488,54.4z M492,50.6c1.2,0,2.1,0.9,2.1,2
			c0,1.1-0.9,2-2.1,2c-1.2,0-2.1-0.9-2.1-2C490,51.5,490.9,50.6,492,50.6z M679,54.4c3.2,3.1,3.9,6.3,4,8v0h0.1v0c0.1-1.7,0.7-5,4-8
			c4.2-4,8.8-3.8,9.3-3.8c0,0.5,0.2,4.8-4,8.8c-3.2,3.1-6.7,3.7-8.4,3.8h0v0v0v0.1h0c1.8,0.1,5.2,0.7,8.4,3.8c4.2,4,4,8.3,4,8.8
			c-0.5,0-5.1,0.2-9.3-3.8c-3.2-3.1-3.9-6.3-3.9-8v0H683v0c-0.1,1.7-0.7,5-3.9,8c-4.2,4-8.8,3.8-9.3,3.8c0-0.5-0.2-4.8,3.9-8.8
			c3.2-3.1,6.7-3.7,8.4-3.8h0v0c0,0,0,0,0,0v-0.1h0c-1.8-0.1-5.2-0.7-8.4-3.8c-4.2-4-4-8.3-3.9-8.8C670.3,50.6,674.8,50.4,679,54.4
			L679,54.4z M683,50.6L683,50.6c1.2,0,2.1,0.9,2.1,2c0,1.1-0.9,2-2.1,2h0c-1.1,0-2.1-0.9-2.1-2C680.9,51.5,681.9,50.6,683,50.6z
			 M717.2,54.4c3.2,3.1,3.9,6.3,4,8v0h0h0h0.1v0c0.1-1.7,0.7-5,4-8c4.2-4,8.8-3.8,9.3-3.8c0,0.5,0.2,4.8-4,8.8
			c-3.2,3.1-6.7,3.7-8.4,3.8h0v0v0v0.1h0c1.8,0.1,5.2,0.7,8.4,3.8c4.2,4,4,8.3,4,8.8c-0.5,0-5.1,0.2-9.3-3.8c-3.2-3.1-3.9-6.3-4-8v0
			h0h0h-0.1v0c-0.1,1.7-0.7,5-4,8c-4.2,4-8.8,3.8-9.3,3.8c0-0.5-0.2-4.8,4-8.8c3.2-3.1,6.7-3.7,8.4-3.8h0v0v0v-0.1h0
			c-1.8-0.1-5.2-0.7-8.4-3.8c-4.2-4-4-8.3-4-8.8C708.5,50.6,713,50.4,717.2,54.4z M721.2,50.6c1.2,0,2.1,0.9,2.1,2
			c0,1.1-0.9,2-2.1,2c-1.2,0-2.1-0.9-2.1-2C719.1,51.5,720.1,50.6,721.2,50.6z M789.7,63.5c-4,4-8.3,3.8-8.8,3.8
			c0-0.5-0.2-4.8,3.8-8.8c3.3-3.3,7-3.8,8.3-3.8c0.1,0,0.2,0,0.3,0c0.1,0,0.2,0,0.2,0c0,0,0,0.1,0,0.2c0,0.1,0,0.2,0,0.3
			C793.4,56.6,793,60.2,789.7,63.5z M793.5,63.3c1.1,0,2,0.9,2,2c0,1.1-0.9,2-2,2s-2-0.9-2-2C791.5,64.2,792.4,63.3,793.5,63.3z
			 M770.2,65.3c-1.1,0-2-0.9-2-2c0-1.1,0.9-2,2-2c1.1,0,2,0.9,2,2C772.2,64.4,771.3,65.3,770.2,65.3z M782.9,56.6c-1.1,0-2-0.9-2-2
			s0.9-2,2-2c1.1,0,2,0.9,2,2S784,56.6,782.9,56.6z M768.4,59.5c-3.3,3.3-6.9,3.8-8.3,3.8c-0.1,0-0.2,0-0.3,0c-0.1,0-0.2,0-0.2,0
			c0-0.1,0-0.2,0-0.3c0,0,0-0.1,0-0.1c0-1.3,0.3-5,3.8-8.4c4-4,8.3-3.8,8.8-3.8C772.2,51.2,772.4,55.5,768.4,59.5L768.4,59.5z
			 M759.5,54.7C759.5,54.7,759.5,54.7,759.5,54.7C759.5,54.7,759.5,54.7,759.5,54.7L759.5,54.7l-0.1-0.1c-0.3,0-0.7-0.1-1-0.3
			c-0.6-0.4-0.9-1-0.9-1.7c0-1.1,0.9-2,2-2s2,0.9,2,2S760.6,54.7,759.5,54.7L759.5,54.7z M755.4,54.4c3.2,3.1,3.9,6.3,3.9,8v0h0.1
			v-0.1c0,0.2,0,0.4,0,0.5v0c0,0.2,0,0.3,0,0.4c0,0,0,0,0,0h0v0.1h0c0,0,0,0,0,0c0,0.1,0,0.4,0,0.9v-0.2h-0.1v0
			c-0.1,1.7-0.7,5-3.9,8c-4.2,4-8.8,3.8-9.3,3.8c0-0.5-0.2-4.8,3.9-8.8c3.2-3.1,6.7-3.7,8.4-3.8h0v0v0v-0.1h0
			c-1.8-0.1-5.2-0.7-8.4-3.8c-4.2-4-4-8.3-3.9-8.8C746.6,50.6,751.2,50.4,755.4,54.4L755.4,54.4z M759.4,72
			C759.4,72,759.5,72,759.4,72C759.5,72,759.5,72,759.4,72c1.2,0,2.1,0.9,2.1,2c0,1.1-0.9,2-2,2c0,0,0,0,0,0h0v-0.1h0
			c-1.1,0-2.1-0.9-2.1-2C757.3,72.8,758.2,72,759.4,72L759.4,72L759.4,72L759.4,72z M746.1,63.3c0-1.1,0.9-2,2.1-2s2.1,0.9,2.1,2
			c0,1.1-0.9,2-2.1,2S746.1,64.4,746.1,63.3z M732.4,65.2c-1.2,0-2.1-0.9-2.1-2c0-1.1,0.9-2,2.1-2c1.2,0,2.1,0.9,2.1,2
			C734.5,64.4,733.6,65.2,732.4,65.2z M721.2,75.9c-1.2,0-2.1-0.9-2.1-2c0-1.1,0.9-2,2.1-2c1.2,0,2.1,0.9,2.1,2
			C723.3,75,722.4,75.9,721.2,75.9z M707.9,63.3c0-1.1,0.9-2,2.1-2c1.2,0,2.1,0.9,2.1,2c0,1.1-0.9,2-2.1,2
			C708.9,65.2,707.9,64.4,707.9,63.3z M694.2,65.2c-1.2,0-2.1-0.9-2.1-2c0-1.1,0.9-2,2.1-2s2.1,0.9,2.1,2
			C696.3,64.4,695.4,65.2,694.2,65.2z M683.1,71.9c1.1,0,2.1,0.9,2.1,2c0,1.1-0.9,2-2.1,2h0c-1.1,0-2.1-0.9-2.1-2
			S681.9,71.9,683.1,71.9L683.1,71.9z M669.8,63.3c0-1.1,0.9-2,2.1-2c1.2,0,2.1,0.9,2.1,2c0,1.1-0.9,2-2.1,2
			C670.7,65.2,669.8,64.4,669.8,63.3z M656,65.2c-1.2,0-2.1-0.9-2.1-2c0-1.1,0.9-2,2.1-2c1.2,0,2.1,0.9,2.1,2
			C658.1,64.4,657.2,65.2,656,65.2z M658.1,50.6c0,0.5,0.2,4.8-3.9,8.8c-3.2,3.1-6.7,3.7-8.4,3.8h0v0v0v0.1h0
			c1.8,0.1,5.2,0.7,8.4,3.8c4.2,4,4,8.3,3.9,8.8c-0.5,0-5.1,0.2-9.3-3.8c-3.2-3.1-3.8-6.3-3.9-8v0h0h0h-0.1v0c-0.1,1.7-0.7,5-4,8
			c-4.2,4-8.8,3.8-9.3,3.8c0-0.5-0.2-4.8,4-8.8c3.2-3.1,6.7-3.7,8.4-3.8h0v0v0v-0.1h0c-1.8-0.1-5.2-0.7-8.4-3.8c-4.2-4-4-8.3-4-8.8
			c0.5,0,5.1-0.2,9.3,3.8c3.2,3.1,3.9,6.3,4,8v0h0h0h0.1v0c0.1-1.7,0.7-5,3.9-8C653,50.4,657.6,50.6,658.1,50.6z M644.8,75.9
			c-1.2,0-2.1-0.9-2.1-2c0-1.1,0.9-2,2.1-2c1.2,0,2.1,0.9,2.1,2C646.9,75,646,75.9,644.8,75.9z M606.7,71.9c1.1,0,2.1,0.9,2.1,2
			c0,1.1-0.9,2-2.1,2h0c-1.1,0-2.1-0.9-2.1-2S605.5,71.9,606.7,71.9L606.7,71.9L606.7,71.9z M610.6,72.1c-3.2-3.1-3.9-6.3-3.9-8v0
			h-0.1v0c-0.1,1.7-0.7,5-4,8c-4.2,4-8.8,3.8-9.3,3.8c0-0.5-0.2-4.8,4-8.8c3.2-3.1,6.7-3.7,8.4-3.8h0v0v0v-0.1h0
			c-1.8-0.1-5.2-0.7-8.4-3.8c-4.2-4-4-8.3-4-8.8c0.5,0,5.1-0.2,9.3,3.8c3.2,3.1,3.9,6.3,3.9,8v0h0.1v0c0.1-1.7,0.7-5,4-8
			c4.2-4,8.8-3.8,9.3-3.8c0,0.5,0.2,4.8-3.9,8.8c-3.2,3.1-6.7,3.7-8.4,3.8h0v0c0,0,0,0,0,0v0.1h0c1.8,0.1,5.2,0.7,8.4,3.8
			c4.2,4,4,8.3,3.9,8.8C619.4,75.9,614.8,76.1,610.6,72.1L610.6,72.1z M593.4,63.3c0-1.1,0.9-2,2.1-2s2.1,0.9,2.1,2
			c0,1.1-0.9,2-2.1,2S593.4,64.4,593.4,63.3z M579.6,65.2c-1.2,0-2.1-0.9-2.1-2c0-1.1,0.9-2,2.1-2s2.1,0.9,2.1,2
			C581.7,64.4,580.8,65.2,579.6,65.2z M606.6,50.6L606.6,50.6c1.2,0,2.1,0.9,2.1,2c0,1.1-0.9,2-2.1,2h0c-1.1,0-2.1-0.9-2.1-2
			C604.6,51.5,605.5,50.6,606.6,50.6L606.6,50.6z M619.9,63.3c0,1.1-0.9,2-2.1,2s-2.1-0.9-2.1-2c0-1.1,0.9-2,2.1-2
			S619.9,62.2,619.9,63.3z M633.6,61.3c1.2,0,2.1,0.9,2.1,2c0,1.1-0.9,2-2.1,2c-1.2,0-2.1-0.9-2.1-2
			C631.6,62.2,632.5,61.3,633.6,61.3z M644.8,50.6c1.2,0,2.1,0.9,2.1,2c0,1.1-0.9,2-2.1,2c-1.2,0-2.1-0.9-2.1-2
			C642.8,51.5,643.7,50.6,644.8,50.6z M581.7,50.6c0,0.5,0.2,4.8-4,8.8c-3.2,3.1-6.7,3.7-8.4,3.8h0v0c0,0,0,0,0,0v0.1h0
			c1.8,0.1,5.2,0.7,8.4,3.8c4.2,4,4,8.3,3.9,8.8c-0.5,0-5.1,0.2-9.3-3.8c-3.2-3.1-3.8-6.3-3.9-8v0h0h0h-0.1v0c-0.1,1.7-0.7,5-3.9,8
			c-4.2,4-8.8,3.8-9.3,3.8c0-0.5-0.2-4.8,3.9-8.8c3.2-3.1,6.7-3.7,8.4-3.8h0v0v0v-0.1h0c-1.8-0.1-5.2-0.7-8.4-3.8
			c-4.2-4-4-8.3-3.9-8.8c0.5,0,5.1-0.2,9.3,3.8c3.2,3.1,3.8,6.3,3.9,8v0h0h0h0.1v0c0.1-1.7,0.7-5,3.9-8
			C576.6,50.4,581.2,50.6,581.7,50.6z M568.4,75.9c-1.2,0-2.1-0.9-2.1-2c0-1.1,0.9-2,2.1-2c1.2,0,2.1,0.9,2.1,2
			C570.5,75,569.6,75.9,568.4,75.9z M555.2,63.3c0-1.1,0.9-2,2.1-2c1.2,0,2.1,0.9,2.1,2c0,1.1-0.9,2-2.1,2
			C556.1,65.2,555.2,64.4,555.2,63.3z M541.4,65.2c-1.2,0-2.1-0.9-2.1-2c0-1.1,0.9-2,2.1-2s2.1,0.9,2.1,2
			C543.5,64.4,542.6,65.2,541.4,65.2z M568.4,50.6c1.2,0,2.1,0.9,2.1,2c0,1.1-0.9,2-2.1,2c-1.2,0-2.1-0.9-2.1-2
			C566.4,51.5,567.3,50.6,568.4,50.6z M526.2,54.4c3.2,3.1,3.8,6.3,3.9,8v0h0.1v0c0.1-1.7,0.7-5,3.9-8c4.2-4,8.8-3.8,9.3-3.8
			c0,0.5,0.2,4.8-3.9,8.8c-3.2,3.1-6.7,3.7-8.4,3.8h0v0v0v0.1h0c1.8,0.1,5.2,0.7,8.4,3.8c4.2,4,4,8.3,4,8.8c-0.5,0-5.1,0.2-9.3-3.8
			c-3.2-3.1-3.9-6.3-4-8v0h-0.1v0c-0.1,1.7-0.7,5-3.9,8c-4.2,4-8.8,3.8-9.3,3.8c0-0.5-0.2-4.8,3.9-8.8c3.2-3.1,6.7-3.7,8.4-3.8h0v0
			v0v-0.1h0c-1.8-0.1-5.2-0.7-8.4-3.8c-4.2-4-4-8.3-3.9-8.8C517.5,50.6,522,50.4,526.2,54.4L526.2,54.4z M530.2,50.6L530.2,50.6
			c1.2,0,2.1,0.9,2.1,2c0,1.1-0.9,2-2.1,2h0c-1.1,0-2.1-0.9-2.1-2C528.2,51.5,529.1,50.6,530.2,50.6z M530.3,71.9
			c1.1,0,2.1,0.9,2.1,2c0,1.1-0.9,2-2.1,2h0c-1.1,0-2.1-0.9-2.1-2S529.1,71.9,530.3,71.9L530.3,71.9L530.3,71.9z M517,63.3
			c0-1.1,0.9-2,2.1-2c1.2,0,2.1,0.9,2.1,2c0,1.1-0.9,2-2.1,2C517.9,65.2,517,64.4,517,63.3z M503.2,65.2c-1.2,0-2.1-0.9-2.1-2
			c0-1.1,0.9-2,2.1-2c1.2,0,2.1,0.9,2.1,2C505.3,64.4,504.4,65.2,503.2,65.2z M492,75.9c-1.2,0-2.1-0.9-2.1-2c0-1.1,0.9-2,2.1-2
			c1.2,0,2.1,0.9,2.1,2C494.1,75,493.2,75.9,492,75.9z M478.8,63.3c0-1.1,0.9-2,2.1-2c1.2,0,2.1,0.9,2.1,2c0,1.1-0.9,2-2.1,2
			C479.7,65.2,478.8,64.4,478.8,63.3z M465,65.2c-1.2,0-2.1-0.9-2.1-2c0-1.1,0.9-2,2.1-2s2.1,0.9,2.1,2
			C467.1,64.4,466.2,65.2,465,65.2z M467.1,50.6c0,0.5,0.2,4.8-3.9,8.8c-3.2,3.1-6.7,3.7-8.4,3.8h0v0v0v0.1h0
			c1.8,0.1,5.2,0.7,8.4,3.8c4.2,4,4,8.3,3.9,8.8c-0.5,0-5.1,0.2-9.3-3.8c-3.2-3.1-3.9-6.3-3.9-8v0h-0.1v0c-0.1,1.7-0.7,5-3.9,8
			c-4.2,4-8.8,3.8-9.3,3.8c0-0.5-0.2-4.8,3.9-8.8c3.2-3.1,6.7-3.7,8.4-3.8h0v0c0,0,0,0,0,0v-0.1h0c-1.8-0.1-5.2-0.7-8.4-3.8
			c-4.2-4-4-8.3-4-8.8c0.5,0,5.1-0.2,9.3,3.8c3.2,3.1,3.9,6.3,4,8v0h0.1v0c0.1-1.7,0.7-5,3.9-8C462,50.4,466.6,50.6,467.1,50.6
			L467.1,50.6z M453.9,71.9c1.1,0,2.1,0.9,2.1,2c0,1.1-0.9,2-2.1,2h0c-1.1,0-2.1-0.9-2.1-2S452.7,71.9,453.9,71.9L453.9,71.9
			L453.9,71.9z M419.7,72.1c-3.2-3.1-3.8-6.3-3.9-8v0h0h0h-0.1v0c-0.1,1.7-0.7,5-3.9,8c-4.2,4-8.8,3.8-9.3,3.8c0-0.5-0.2-4.8,4-8.8
			c3.2-3.1,6.7-3.7,8.4-3.8h0v0v0v-0.1h0c-1.8-0.1-5.2-0.7-8.4-3.8c-4.2-4-4-8.3-4-8.8c0.5,0,5.1-0.2,9.3,3.8c3.2,3.1,3.9,6.3,3.9,8
			v0h0h0h0.1v0c0.1-1.7,0.7-5,3.9-8c4.2-4,8.8-3.8,9.3-3.8c0,0.5,0.2,4.8-3.9,8.8c-3.2,3.1-6.7,3.7-8.4,3.8h0v0c0,0,0,0,0,0v0.1h0
			c1.8,0.1,5.2,0.7,8.4,3.8c4.2,4,4,8.3,3.9,8.8C428.4,75.9,423.8,76.1,419.7,72.1L419.7,72.1z M415.7,75.9c-1.2,0-2.1-0.9-2.1-2
			c0-1.1,0.9-2,2.1-2c1.2,0,2.1,0.9,2.1,2C417.7,75,416.8,75.9,415.7,75.9z M402.4,63.3c0-1.1,0.9-2,2.1-2c1.2,0,2.1,0.9,2.1,2
			c0,1.1-0.9,2-2.1,2C403.3,65.2,402.4,64.4,402.4,63.3z M388.6,65.2c-1.2,0-2.1-0.9-2.1-2c0-1.1,0.9-2,2.1-2s2.1,0.9,2.1,2
			C390.7,64.4,389.8,65.2,388.6,65.2z M415.7,50.6c1.2,0,2.1,0.9,2.1,2c0,1.1-0.9,2-2.1,2c-1.2,0-2.1-0.9-2.1-2
			C413.6,51.5,414.5,50.6,415.7,50.6z M428.9,63.3c0,1.1-0.9,2-2.1,2c-1.2,0-2.1-0.9-2.1-2c0-1.1,0.9-2,2.1-2
			C428,61.3,428.9,62.2,428.9,63.3z M442.7,61.3c1.2,0,2.1,0.9,2.1,2c0,1.1-0.9,2-2.1,2s-2.1-0.9-2.1-2
			C440.6,62.2,441.5,61.3,442.7,61.3z M453.8,50.6L453.8,50.6c1.2,0,2.1,0.9,2.1,2c0,1.1-0.9,2-2.1,2h0c-1.1,0-2.1-0.9-2.1-2
			C451.8,51.5,452.7,50.6,453.8,50.6z M390.7,50.6c0,0.5,0.2,4.8-3.9,8.8c-3.2,3.1-6.7,3.7-8.4,3.8h0v0c0,0,0,0,0,0v0.1h0
			c1.8,0.1,5.2,0.7,8.4,3.8c4.2,4,4,8.3,4,8.8c-0.5,0-5.1,0.2-9.3-3.8c-3.2-3.1-3.9-6.3-4-8v0h-0.1v0c-0.1,1.7-0.7,5-4,8
			c-4.2,4-8.8,3.8-9.3,3.8c0-0.5-0.2-4.8,3.9-8.8c3.2-3.1,6.7-3.7,8.4-3.8h0v0v0v-0.1h0c-1.8-0.1-5.2-0.7-8.4-3.8
			c-4.2-4-4-8.3-3.9-8.8c0.5,0,5.1-0.2,9.3,3.8c3.2,3.1,3.9,6.3,3.9,8v0h0.1v0c0.1-1.7,0.7-5,4-8C385.6,50.4,390.2,50.6,390.7,50.6
			L390.7,50.6z M377.5,71.9c1.1,0,2.1,0.9,2.1,2c0,1.1-0.9,2-2.1,2h0c-1.1,0-2.1-0.9-2.1-2S376.3,71.9,377.5,71.9L377.5,71.9z
			 M364.2,63.3c0-1.1,0.9-2,2.1-2c1.2,0,2.1,0.9,2.1,2c0,1.1-0.9,2-2.1,2C365.1,65.2,364.2,64.4,364.2,63.3z M350.4,65.2
			c-1.2,0-2.1-0.9-2.1-2c0-1.1,0.9-2,2.1-2c1.2,0,2.1,0.9,2.1,2C352.5,64.4,351.6,65.2,350.4,65.2z M377.4,50.6L377.4,50.6
			c1.2,0,2.1,0.9,2.1,2c0,1.1-0.9,2-2.1,2h0c-1.1,0-2.1-0.9-2.1-2C375.4,51.5,376.3,50.6,377.4,50.6z M339.3,75.9
			c-1.2,0-2.1-0.9-2.1-2c0-1.1,0.9-2,2.1-2c1.2,0,2.1,0.9,2.1,2C341.3,75,340.4,75.9,339.3,75.9z M326,63.3c0-1.1,0.9-2,2.1-2
			c1.2,0,2.1,0.9,2.1,2c0,1.1-0.9,2-2.1,2C326.9,65.2,326,64.4,326,63.3z M312.3,65.2c-1.2,0-2.1-0.9-2.1-2c0-1.1,0.9-2,2.1-2
			c1.2,0,2.1,0.9,2.1,2C314.3,64.4,313.4,65.2,312.3,65.2z M297.1,54.4c3.2,3.1,3.9,6.3,4,8v0h0.1v0c0.1-1.7,0.7-5,4-8
			c4.2-4,8.8-3.8,9.3-3.8c0,0.5,0.2,4.8-4,8.8c-3.2,3.1-6.7,3.7-8.4,3.8h0v0v0v0.1h0c1.8,0.1,5.2,0.7,8.4,3.8c4.2,4,4,8.3,4,8.8
			c-0.5,0-5.1,0.2-9.3-3.8c-3.2-3.1-3.9-6.3-3.9-8v0H301v0c-0.1,1.7-0.7,5-3.9,8c-4.2,4-8.8,3.8-9.3,3.8c0-0.5-0.2-4.8,3.9-8.8
			c3.2-3.1,6.7-3.7,8.4-3.8h0v0c0,0,0,0,0,0v-0.1h0c-1.8-0.1-5.2-0.7-8.4-3.8c-4.2-4-4-8.3-3.9-8.8
			C288.3,50.6,292.9,50.4,297.1,54.4L297.1,54.4z M301,50.6L301,50.6c1.2,0,2.1,0.9,2.1,2c0,1.1-0.9,2-2.1,2h0c-1.1,0-2.1-0.9-2.1-2
			C299,51.5,299.9,50.6,301,50.6z M301.1,71.9c1.1,0,2.1,0.9,2.1,2c0,1.1-0.9,2-2.1,2h0c-1.1,0-2.1-0.9-2.1-2S299.9,71.9,301.1,71.9
			L301.1,71.9z M287.8,63.3c0-1.1,0.9-2,2.1-2s2.1,0.9,2.1,2c0,1.1-0.9,2-2.1,2S287.8,64.4,287.8,63.3z M274.1,65.2
			c-1.2,0-2.1-0.9-2.1-2c0-1.1,0.9-2,2.1-2s2.1,0.9,2.1,2C276.1,64.4,275.2,65.2,274.1,65.2z M276.1,50.6c0,0.5,0.2,4.8-3.9,8.8
			c-3.2,3.1-6.7,3.7-8.4,3.8h0v0v0v0.1h0c1.8,0.1,5.2,0.7,8.4,3.8c4.2,4,4,8.3,3.9,8.8c-0.5,0-5.1,0.2-9.3-3.8
			c-3.2-3.1-3.8-6.3-3.9-8v0h0h0h-0.1v0c-0.1,1.7-0.7,5-4,8c-4.2,4-8.8,3.8-9.3,3.8c0-0.5-0.2-4.8,4-8.8c3.2-3.1,6.7-3.7,8.4-3.8h0
			v0c0,0,0,0,0,0v-0.1h0c-1.8-0.1-5.2-0.7-8.4-3.8c-4.2-4-4-8.3-3.9-8.8c0.5,0,5.1-0.2,9.3,3.8c3.2,3.1,3.8,6.3,3.9,8v0h0h0h0.1v0
			c0.1-1.7,0.7-5,3.9-8C271.1,50.4,275.6,50.6,276.1,50.6L276.1,50.6z M262.9,75.9c-1.2,0-2.1-0.9-2.1-2c0-1.1,0.9-2,2.1-2
			c1.2,0,2.1,0.9,2.1,2C265,75,264,75.9,262.9,75.9z M224.7,71.9c1.1,0,2.1,0.9,2.1,2c0,1.1-0.9,2-2.1,2h0c-1.1,0-2.1-0.9-2.1-2
			S223.5,71.9,224.7,71.9L224.7,71.9L224.7,71.9z M228.7,72.1c-3.2-3.1-3.9-6.3-4-8v0h-0.1v0c-0.1,1.7-0.7,5-4,8
			c-4.2,4-8.8,3.8-9.3,3.8c0-0.5-0.2-4.8,4-8.8c3.2-3.1,6.7-3.7,8.4-3.8h0v0v0v-0.1h0c-1.8-0.1-5.2-0.7-8.4-3.8c-4.2-4-4-8.3-4-8.8
			c0.5,0,5.1-0.2,9.3,3.8c3.2,3.1,3.9,6.3,3.9,8v0h0.1v0c0.1-1.7,0.7-5,4-8c4.2-4,8.8-3.8,9.3-3.8c0,0.5,0.2,4.8-3.9,8.8
			c-3.2,3.1-6.7,3.7-8.4,3.8h0v0v0v0.1h0c1.8,0.1,5.2,0.7,8.4,3.8c4.2,4,4,8.3,3.9,8.8C237.4,75.9,232.9,76.1,228.7,72.1L228.7,72.1
			z M211.4,63.3c0-1.1,0.9-2,2.1-2c1.2,0,2.1,0.9,2.1,2c0,1.1-0.9,2-2.1,2C212.3,65.2,211.4,64.4,211.4,63.3z M197.7,65.2
			c-1.2,0-2.1-0.9-2.1-2c0-1.1,0.9-2,2.1-2c1.2,0,2.1,0.9,2.1,2C199.8,64.4,198.8,65.2,197.7,65.2z M224.7,50.6L224.7,50.6
			c1.2,0,2.1,0.9,2.1,2c0,1.1-0.9,2-2.1,2h0c-1.1,0-2.1-0.9-2.1-2C222.6,51.5,223.5,50.6,224.7,50.6z M237.9,63.3c0,1.1-0.9,2-2.1,2
			c-1.2,0-2.1-0.9-2.1-2c0-1.1,0.9-2,2.1-2C237,61.3,237.9,62.2,237.9,63.3z M251.7,61.3c1.2,0,2.1,0.9,2.1,2c0,1.1-0.9,2-2.1,2
			s-2.1-0.9-2.1-2C249.6,62.2,250.5,61.3,251.7,61.3z M262.9,50.6c1.2,0,2.1,0.9,2.1,2c0,1.1-0.9,2-2.1,2c-1.2,0-2.1-0.9-2.1-2
			C260.8,51.5,261.7,50.6,262.9,50.6z M186.5,75.9c-1.2,0-2.1-0.9-2.1-2c0-1.1,0.9-2,2.1-2c1.2,0,2.1,0.9,2.1,2
			C188.6,75,187.6,75.9,186.5,75.9z M173.2,63.3c0-1.1,0.9-2,2.1-2s2.1,0.9,2.1,2c0,1.1-0.9,2-2.1,2S173.2,64.4,173.2,63.3z
			 M159.5,65.2c-1.2,0-2.1-0.9-2.1-2c0-1.1,0.9-2,2.1-2c1.1,0,2.1,0.9,2.1,2C161.6,64.4,160.6,65.2,159.5,65.2z M148.3,71.9
			c1.1,0,2.1,0.9,2.1,2c0,1.1-0.9,2-2.1,2h0c-1.1,0-2.1-0.9-2.1-2S147.1,71.9,148.3,71.9L148.3,71.9z M135,63.3c0-1.1,0.9-2,2.1-2
			c1.2,0,2.1,0.9,2.1,2c0,1.1-0.9,2-2.1,2C135.9,65.2,135,64.4,135,63.3z M121.3,65.2c-1.2,0-2.1-0.9-2.1-2c0-1.1,0.9-2,2.1-2
			s2.1,0.9,2.1,2C123.4,64.4,122.4,65.2,121.3,65.2z M106.1,54.4c3.2,3.1,3.8,6.3,3.9,8v0h0h0h0.1v0c0.1-1.7,0.7-5,3.9-8
			c4.2-4,8.8-3.8,9.3-3.8c0,0.5,0.2,4.8-4,8.8c-3.2,3.1-6.7,3.7-8.4,3.8h0v0v0v0.1h0c1.8,0.1,5.2,0.7,8.4,3.8c4.2,4,4,8.3,4,8.8
			c-0.5,0-5.1,0.2-9.3-3.8c-3.2-3.1-3.9-6.3-3.9-8v0h0h0H110v0c-0.1,1.7-0.7,5-3.9,8c-4.2,4-8.8,3.8-9.3,3.8c0-0.5-0.2-4.8,3.9-8.8
			c3.2-3.1,6.7-3.7,8.4-3.8h0v0c0,0,0,0,0,0v-0.1h0c-1.8-0.1-5.2-0.7-8.4-3.8c-4.2-4-4-8.3-3.9-8.8C97.3,50.6,101.9,50.4,106.1,54.4
			L106.1,54.4z M110.1,50.6c1.2,0,2.1,0.9,2.1,2c0,1.1-0.9,2-2.1,2s-2.1-0.9-2.1-2C108,51.5,108.9,50.6,110.1,50.6z M110.1,75.9
			c-1.2,0-2.1-0.9-2.1-2c0-1.1,0.9-2,2.1-2s2.1,0.9,2.1,2C112.2,75,111.2,75.9,110.1,75.9z M71.9,64.1c0,0.1,0,0.1,0,0.2
			c0-0.2,0-0.4,0-0.5c0,0,0,0,0,0c0-0.2,0-0.3,0-0.3c0,0,0,0,0,0h0v-0.1h0c0,0,0,0,0,0c0-0.1,0-0.2,0-0.3c0,0,0-0.1,0-0.1
			c0-0.1,0-0.3,0-0.5v0.1h0.1v0c0.1-1.7,0.7-5,3.9-8c4.2-4,8.8-3.8,9.3-3.8c0,0.5,0.2,4.8-4,8.8c-3.2,3.1-6.6,3.7-8.4,3.8h0v0v0v0.1
			h0c1.8,0.1,5.2,0.7,8.4,3.8c4.2,4,4,8.3,4,8.8c-0.5,0-5.1,0.2-9.3-3.8C72.7,69.1,72,65.8,71.9,64.1L71.9,64.1L71.9,64.1L71.9,64.1
			L71.9,64.1z M59.2,50.7c0.5,0,4.8-0.2,8.8,3.8c3.4,3.4,3.8,7.1,3.8,8.4c0,0,0,0.1,0,0.1v0c0,0.1,0,0.2,0,0.3c0,0-0.1,0-0.2,0
			c-0.1,0-0.2,0-0.3,0c-1.4,0-5-0.4-8.3-3.8C58.9,55.6,59.1,51.2,59.2,50.7L59.2,50.7z M48.4,56.6c-1.1,0-2-0.9-2-2c0-1.1,0.9-2,2-2
			c1.1,0,2,0.9,2,2C50.4,55.7,49.5,56.6,48.4,56.6z M71.8,50.7c1.1,0,2,0.9,2,2c0,0.6-0.3,1.2-0.8,1.6c-0.3,0.2-0.7,0.3-1.1,0.3h0
			v0.1c0,0,0,0,0,0c0,0,0,0-0.1,0c-1.1,0-2-0.9-2-2C69.8,51.6,70.7,50.7,71.8,50.7z M63.1,63.4c0,1.1-0.9,2-2,2s-2-0.9-2-2
			s0.9-2,2-2S63.1,62.3,63.1,63.4z M85.2,63.3c0,1.1-0.9,2-2.1,2c-1.2,0-2.1-0.9-2.1-2c0-1.1,0.9-2,2.1-2
			C84.2,61.3,85.2,62.2,85.2,63.3z M98.9,61.3c1.2,0,2.1,0.9,2.1,2c0,1.1-0.9,2-2.1,2s-2.1-0.9-2.1-2C96.8,62.2,97.7,61.3,98.9,61.3
			z M46.7,50.8c-3.3,3.3-6.9,3.7-8.3,3.8c-0.1,0-0.2,0-0.3,0c-0.1,0-0.2,0-0.2,0c0,0,0-0.1,0-0.2c0-0.1,0-0.2,0-0.3
			c0-1.4,0.4-4.9,3.8-8.3c4-4,8.3-3.8,8.8-3.8C50.5,42.5,50.6,46.8,46.7,50.8z M37.8,46c-1.1,0-2-0.9-2-2c0-1.1,0.9-2,2-2
			c1.1,0,2,0.9,2,2C39.8,45.1,38.9,46,37.8,46z M25.2,42c0.5,0,4.8-0.2,8.8,3.8c3.3,3.3,3.7,6.9,3.8,8.3c0,0.1,0,0.1,0,0.2
			c0,0.1,0,0.1,0,0.1c0,0.1,0,0.2,0,0.2c0,0-0.1,0-0.2,0c-0.1,0-0.2,0-0.3,0c-1.4,0-5-0.4-8.3-3.8C25,46.8,25.1,42.5,25.2,42z
			 M25.2,54.6c0-1.1,0.9-2,2-2c1.1,0,2,0.9,2,2c0,1.1-0.9,2-2,2C26,56.6,25.2,55.7,25.2,54.6z M25.2,67.3c0-0.5-0.2-4.8,3.8-8.8
			c3.3-3.3,6.9-3.7,8.3-3.8c0.1,0,0.2,0,0.3,0c0.1,0,0.2,0,0.2,0c0,0,0,0.1,0,0.2c0,0.1,0,0.2,0,0.3c0,1.4-0.4,5-3.8,8.3
			C30,67.5,25.6,67.3,25.2,67.3z M37.8,63.3c1.1,0,2,0.9,2,2s-0.9,2-2,2c-1.1,0-2-0.9-2-2S36.7,63.3,37.8,63.3z M41.6,63.5
			c-3.3-3.3-3.7-6.9-3.8-8.3c0-0.1,0-0.2,0-0.3c0-0.1,0-0.2,0-0.2c0,0,0.1,0,0.2,0c0.1,0,0.2,0,0.3,0c1.4,0,5,0.4,8.3,3.8
			c4,4,3.8,8.3,3.8,8.8C49.9,67.3,45.6,67.5,41.6,63.5z M33.8,88.7L33.8,88.7c0-1.1,0.9-2,2-2c1.1,0,2,0.9,2,2v0c0,1.1-0.9,2-2,2
			C34.7,90.7,33.8,89.8,33.8,88.7z M50.2,97.6c-3.1-3-3.7-6.3-3.8-8v0h0h0h-0.1v0c-0.1,1.7-0.7,4.9-3.8,8c-4,4-8.3,3.8-8.8,3.7
			c0-0.5-0.2-4.8,3.8-8.8c3.1-3,6.3-3.6,8-3.7h0v0H46v0v0c-1.4,0-5-0.4-8.4-3.8c-4-4-3.8-8.3-3.8-8.8c0.5,0,4.8-0.2,8.8,3.8
			c3.3,3.3,3.8,6.9,3.8,8.3c0,0.1,0,0.2,0,0.3c0,0.1,0,0.2,0,0.2c0,0-0.1,0-0.2,0v0.1h0.5v-0.1c-0.1,0-0.2,0-0.2,0c0,0,0-0.1,0-0.2
			c0-0.1,0-0.2,0-0.3c0-1.4,0.4-5,3.8-8.3c4-4,8.3-3.8,8.8-3.8c0,0.5,0.2,4.8-3.8,8.8c-3.4,3.4-7,3.8-8.4,3.8v0.1h0.3l0,0h0.1
			c1.7,0.1,5,0.7,8,3.7c4,4,3.8,8.3,3.8,8.8C58.6,101.3,54.2,101.5,50.2,97.6L50.2,97.6z M46.4,101.3c-1.1,0-2-0.9-2-2
			c0-1.1,0.9-2,2-2s2,0.9,2,2C48.4,100.4,47.5,101.3,46.4,101.3z M46.4,76.1c1.1,0,2,0.9,2,2c0,1.1-0.9,2-2,2s-2-0.9-2-2
			C44.4,77,45.3,76.1,46.4,76.1z M774.2,86.7c1.1,0,2,0.9,2,2v0c0,1.1-0.9,2-2,2c-1.1,0-2-0.9-2-2v0
			C772.2,87.6,773.1,86.7,774.2,86.7L774.2,86.7z M774.2,123c1.1,0,2,0.9,2,2c0,1.1-0.9,2-2,2c-1.1,0-2-0.9-2-2
			C772.2,123.8,773.1,123,774.2,123z M774.2,159.2c1.1,0,2,0.9,2,2v0c0,1.1-0.9,1.9-2,1.9c-1.1,0-2-0.9-2-1.9v0
			C772.3,160,773.1,159.2,774.2,159.2z M774.2,195.4c1.1,0,2,0.9,2,2c0,1.1-0.9,2-2,2c-1.1,0-2-0.9-2-2
			C772.2,196.3,773.1,195.4,774.2,195.4z M774.2,231.6c1.1,0,2,0.9,2,2v0c0,1.1-0.9,1.9-2,1.9c-1.1,0-2-0.9-2-1.9v0
			C772.3,232.5,773.1,231.6,774.2,231.6L774.2,231.6z M774.2,267.8c1.1,0,2,0.9,2,2c0,1.1-0.9,2-2,2c-1.1,0-2-0.9-2-2
			C772.2,268.7,773.1,267.8,774.2,267.8z M774.2,304c1.1,0,2,0.9,2,2v0c0,1.1-0.9,2-2,2c-1.1,0-2-0.9-2-2v0
			C772.3,304.9,773.1,304,774.2,304L774.2,304z M774.2,340.2c1.1,0,2,0.9,2,2c0,1.1-0.9,2-2,2c-1.1,0-2-0.9-2-2
			C772.2,341.1,773.1,340.2,774.2,340.2z M774.2,376.4c1.1,0,2,0.9,2,2v0c0,1.1-0.9,1.9-2,1.9c-1.1,0-2-0.9-2-1.9v0
			C772.3,377.3,773.1,376.4,774.2,376.4z M774.2,412.6c1.1,0,2,0.9,2,2c0,1.1-0.9,2-2,2c-1.1,0-2-0.9-2-2
			C772.2,413.5,773.1,412.6,774.2,412.6z M774.2,448.9c1.1,0,2,0.9,2,2v0c0,1.1-0.9,1.9-2,1.9c-1.1,0-2-0.9-2-1.9v0
			C772.3,449.7,773.1,448.9,774.2,448.9z M774.2,485.1c1.1,0,2,0.9,2,2c0,1.1-0.9,2-2,2c-1.1,0-2-0.9-2-2
			C772.2,486,773.1,485.1,774.2,485.1z M774.2,521.3c1.1,0,2,0.9,2,2v0c0,1.1-0.9,2-2,2c-1.1,0-2-0.9-2-1.9v0
			C772.3,522.1,773.1,521.3,774.2,521.3L774.2,521.3z M57.1,525.2c-1.1,0-2-0.9-2-2v0c0-1.1,0.9-2,2-2c1.1,0,2,0.9,2,2v0
			C59,524.4,58.2,525.2,57.1,525.2L57.1,525.2z M57.1,489c-1.1,0-2-0.9-2-2c0-1.1,0.9-2,2-2c1.1,0,2,0.9,2,2
			C59.1,488.1,58.2,489,57.1,489z M57.1,452.8c-1.1,0-2-0.9-2-2v0c0-1.1,0.9-2,2-2c1.1,0,2,0.9,2,1.9v0
			C59.1,451.9,58.2,452.8,57.1,452.8z M57.1,416.6c-1.1,0-2-0.9-2-2c0-1.1,0.9-2,2-2c1.1,0,2,0.9,2,2
			C59.1,415.7,58.2,416.6,57.1,416.6z M57.1,380.4c-1.1,0-2-0.9-2-2v0c0-1.1,0.9-2,2-2c1.1,0,2,0.9,2,1.9v0
			C59.1,379.5,58.2,380.4,57.1,380.4z M57.1,344.2c-1.1,0-2-0.9-2-2c0-1.1,0.9-2,2-2c1.1,0,2,0.9,2,2
			C59.1,343.3,58.2,344.2,57.1,344.2z M57.1,308c-1.1,0-2-0.9-2-2v0c0-1.1,0.9-2,2-2c1.1,0,2,0.9,2,1.9v0
			C59.1,307.1,58.2,308,57.1,308z M57.1,271.8c-1.1,0-2-0.9-2-2c0-1.1,0.9-2,2-2c1.1,0,2,0.9,2,2C59.1,270.9,58.2,271.8,57.1,271.8z
			 M57.1,235.5c-1.1,0-2-0.9-2-2v0c0-1.1,0.9-2,2-2c1.1,0,2,0.9,2,1.9v0C59.1,234.7,58.2,235.5,57.1,235.5z M57.1,199.3
			c-1.1,0-2-0.9-2-2c0-1.1,0.9-2,2-2c1.1,0,2,0.9,2,2C59.1,198.5,58.2,199.3,57.1,199.3z M57.1,163.1c-1.1,0-2-0.9-2-2v0
			c0-1.1,0.9-2,2-2c1.1,0,2,0.9,2,1.9v0C59.1,162.2,58.2,163.1,57.1,163.1z M57.1,126.9c-1.1,0-2-0.9-2-2c0-1.1,0.9-2,2-2
			c1.1,0,2,0.9,2,2C59.1,126,58.2,126.9,57.1,126.9z M57.1,90.7c-1.1,0-2-0.9-2-2v0c0-1.1,0.9-2,2-2c1.1,0,2,0.9,2,2v0
			C59.1,89.8,58.2,90.7,57.1,90.7z M19.8,116.1c4-4,8.3-3.8,8.8-3.7c0,0.5,0.2,4.8-3.8,8.8c-3.3,3.3-6.9,3.7-8.3,3.8
			c-0.1,0-0.2,0-0.3,0c-0.1,0-0.2,0-0.2,0C16,124.4,15.8,120.1,19.8,116.1z M28.6,124.9c0,1.1-0.9,2-2,2c-1.1,0-2-0.9-2-2
			c0-1.1,0.9-2,2-2C27.7,123,28.6,123.9,28.6,124.9z M35.8,123c1.1,0,2,0.9,2,2c0,1.1-0.9,2-2,2c-1.1,0-2-0.9-2-2
			C33.8,123.8,34.7,123,35.8,123z M3.3,124.9c0-1.1,0.9-2,2-2c1.1,0,2,0.9,2,2c0,1.1-0.9,2-2,2C4.2,126.9,3.3,126,3.3,124.9z
			 M19.8,133.8c-4-4-3.8-8.3-3.8-8.8c0,0,0.1,0,0.2,0c0.1,0,0.2,0,0.3,0c1.4,0,4.9,0.4,8.3,3.8c4,4,3.8,8.3,3.8,8.8
			C28.1,137.5,23.8,137.7,19.8,133.8z M50.2,133.8c-3.1-3-3.7-6.3-3.8-8v0h0h0h-0.1v0c-0.1,1.7-0.7,4.9-3.8,8c-4,4-8.3,3.8-8.8,3.7
			c0-0.5-0.2-4.8,3.8-8.8c3.1-3,6.3-3.7,8-3.7h0v0v0v-0.1h0c-1.7-0.1-5-0.7-8-3.7c-4-4-3.8-8.3-3.8-8.8c0.5,0,4.8-0.2,8.8,3.7
			c3.1,3,3.7,6.3,3.8,8v0h0h0h0.1v0c0.1-1.7,0.7-4.9,3.8-8c4-4,8.3-3.8,8.8-3.7c0,0.5,0.2,4.8-3.8,8.8c-3.1,3-6.3,3.6-8,3.7h0v0
			c0,0,0,0,0,0v0.1h0c1.7,0.1,5,0.7,8,3.7c4,4,3.8,8.3,3.8,8.8C58.6,137.5,54.2,137.7,50.2,133.8L50.2,133.8z M46.4,137.5
			c-1.1,0-2-0.9-2-2c0-1.1,0.9-2,2-2s2,0.9,2,2C48.4,136.6,47.5,137.5,46.4,137.5z M46.4,112.4c1.1,0,2,0.9,2,2c0,1.1-0.9,2-2,2
			s-2-0.9-2-2C44.4,113.2,45.3,112.4,46.4,112.4z M33.8,161.2L33.8,161.2c0-1.1,0.9-2,2-2c1.1,0,2,0.9,2,2v0c0,1.1-0.9,2-2,2
			C34.7,163.1,33.8,162.3,33.8,161.2z M50.2,170c-3.1-3-3.7-6.3-3.8-8v0h0h0h-0.1v0c-0.1,1.7-0.7,4.9-3.8,8c-4,4-8.3,3.8-8.8,3.8
			c0-0.5-0.2-4.8,3.8-8.8c3.1-3,6.3-3.7,8-3.7h0v-0.1h0c-1.7-0.1-5-0.7-8-3.7c-4-4-3.8-8.3-3.8-8.8c0.5,0,4.8-0.2,8.8,3.8
			c3.1,3,3.7,6.3,3.8,8v0h0h0h0.1v0c0.1-1.7,0.7-4.9,3.8-8c4-4,8.3-3.8,8.8-3.8c0,0.5,0.2,4.8-3.8,8.8c-3.1,3-6.3,3.7-8,3.7h0v0.1
			l-0.1,0.1h0.1c1.7,0.1,5,0.7,8,3.7c4,4,3.8,8.3,3.8,8.8C58.6,173.8,54.2,173.9,50.2,170z M46.4,173.7c-1.1,0-2-0.9-2-2
			c0-1.1,0.9-2,2-2s2,0.9,2,2C48.4,172.8,47.5,173.7,46.4,173.7z M46.4,148.6c1.1,0,2,0.9,2,2c0,1.1-0.9,2-2,2s-2-0.9-2-2
			C44.4,149.5,45.3,148.6,46.4,148.6z M19.8,188.5c4-4,8.3-3.8,8.8-3.8c0,0.5,0.2,4.8-3.8,8.8c-3.3,3.3-6.9,3.7-8.3,3.8
			c-0.1,0-0.2,0-0.3,0c-0.1,0-0.2,0-0.2,0C16,196.8,15.8,192.5,19.8,188.5z M28.6,197.4c0,1.1-0.9,2-2,2c-1.1,0-2-0.9-2-2
			c0-1.1,0.9-2,2-2C27.7,195.4,28.6,196.3,28.6,197.4z M35.8,195.4c1.1,0,2,0.9,2,2c0,1.1-0.9,2-2,2c-1.1,0-2-0.9-2-2
			C33.8,196.3,34.7,195.4,35.8,195.4z M3.3,197.4c0-1.1,0.9-2,2-2c1.1,0,2,0.9,2,2c0,1.1-0.9,2-2,2C4.2,199.3,3.3,198.4,3.3,197.4z
			 M19.8,206.2c-4-4-3.8-8.3-3.8-8.8c0,0,0.1,0,0.2,0c0.1,0,0.2,0,0.3,0c1.4,0,4.9,0.4,8.3,3.8c4,4,3.8,8.3,3.8,8.8
			C28.1,210,23.8,210.2,19.8,206.2z M50.2,206.2c-3.1-3-3.7-6.3-3.8-8v0h0h0h-0.1v0c-0.1,1.7-0.7,4.9-3.8,8c-4,4-8.3,3.8-8.8,3.7
			c0-0.5-0.2-4.8,3.8-8.8c3.1-3,6.3-3.6,8-3.7h0v0v0v-0.1h0c-1.7-0.1-5-0.7-8-3.7c-4-4-3.8-8.3-3.8-8.8c0.5,0,4.8-0.2,8.8,3.7
			c3.1,3,3.7,6.3,3.8,8v0h0h0h0.1v0c0.1-1.7,0.7-4.9,3.8-8c4-4,8.3-3.8,8.8-3.7c0,0.5,0.2,4.8-3.8,8.8c-3.1,3-6.3,3.7-8,3.7h0v0
			c0,0,0,0,0,0v0.1h0c1.7,0.1,5,0.7,8,3.7c4,4,3.8,8.3,3.8,8.8C58.6,210,54.2,210.2,50.2,206.2L50.2,206.2z M46.4,209.9
			c-1.1,0-2-0.9-2-2c0-1.1,0.9-2,2-2s2,0.9,2,2C48.4,209.1,47.5,209.9,46.4,209.9z M46.4,184.8c1.1,0,2,0.9,2,2c0,1.1-0.9,2-2,2
			s-2-0.9-2-2C44.4,185.7,45.3,184.8,46.4,184.8z M33.8,233.6L33.8,233.6c0-1.1,0.9-2,2-2c1.1,0,2,0.9,2,2v0c0,1.1-0.9,2-2,2
			C34.7,235.5,33.8,234.7,33.8,233.6z M50.2,242.4c-3.1-3-3.7-6.3-3.8-8v0h0h0h-0.1v0c-0.1,1.7-0.7,4.9-3.8,8c-4,4-8.3,3.8-8.8,3.7
			c0-0.5-0.2-4.8,3.8-8.8c3.1-3,6.3-3.7,8-3.7h0v-0.1h0c-1.7-0.1-5-0.7-8-3.7c-4-4-3.8-8.3-3.8-8.8c0.5,0,4.8-0.2,8.8,3.7
			c3.1,3,3.7,6.3,3.8,8v0h0h0h0.1v0c0.1-1.7,0.7-4.9,3.8-8c4-4,8.3-3.8,8.8-3.7c0,0.5,0.2,4.8-3.8,8.8c-3.1,3-6.3,3.6-8,3.7h0v0.1
			l-0.1,0.1h0.1c1.7,0.1,5,0.7,8,3.8c4,4,3.8,8.3,3.8,8.8C58.6,246.2,54.2,246.4,50.2,242.4z M46.4,246.2c-1.1,0-2-0.9-2-2
			c0-1.1,0.9-2,2-2s2,0.9,2,2C48.4,245.3,47.5,246.2,46.4,246.2z M46.4,221c1.1,0,2,0.9,2,2c0,1.1-0.9,2-2,2s-2-0.9-2-2
			C44.4,221.9,45.3,221,46.4,221z M19.8,261c4-4,8.3-3.8,8.8-3.7c0,0.5,0.2,4.8-3.8,8.8c-3.3,3.3-6.9,3.7-8.3,3.8
			c-0.1,0-0.2,0-0.3,0c-0.1,0-0.2,0-0.2,0C16,269.2,15.8,264.9,19.8,261z M28.6,269.8c0,1.1-0.9,2-2,2c-1.1,0-2-0.9-2-2
			c0-1.1,0.9-2,2-2C27.7,267.8,28.6,268.7,28.6,269.8z M35.8,267.8c1.1,0,2,0.9,2,2c0,1.1-0.9,2-2,2c-1.1,0-2-0.9-2-2
			C33.8,268.7,34.7,267.8,35.8,267.8z M3.3,269.8c0-1.1,0.9-2,2-2c1.1,0,2,0.9,2,2c0,1.1-0.9,2-2,2C4.2,271.8,3.3,270.9,3.3,269.8z
			 M19.8,278.6c-4-4-3.8-8.3-3.8-8.8c0,0,0.1,0,0.2,0c0.1,0,0.2,0,0.3,0c1.4,0,4.9,0.4,8.3,3.8c4,4,3.8,8.3,3.8,8.8
			C28.1,282.4,23.8,282.6,19.8,278.6z M50.2,278.6c-3.1-3-3.7-6.3-3.8-8v0h0h0h-0.1v0c-0.1,1.7-0.7,4.9-3.8,8c-4,4-8.3,3.8-8.8,3.8
			c0-0.5-0.2-4.8,3.8-8.8c3.1-3,6.3-3.7,8-3.7h0v0v0v-0.1h0c-1.7-0.1-5-0.7-8-3.7c-4-4-3.8-8.3-3.8-8.8c0.5,0,4.8-0.2,8.8,3.8
			c3.1,3,3.7,6.3,3.8,8v0h0h0h0.1v0c0.1-1.7,0.7-4.9,3.8-8c4-4,8.3-3.8,8.8-3.8c0,0.5,0.2,4.8-3.8,8.8c-3.1,3-6.3,3.6-8,3.7h0v0
			c0,0,0,0,0,0v0.1h0c1.7,0.1,5,0.7,8,3.7c4,4,3.8,8.3,3.8,8.8C58.6,282.4,54.2,282.6,50.2,278.6L50.2,278.6z M46.4,282.4
			c-1.1,0-2-0.9-2-2c0-1.1,0.9-2,2-2s2,0.9,2,2C48.4,281.5,47.5,282.4,46.4,282.4z M46.4,257.2c1.1,0,2,0.9,2,2c0,1.1-0.9,2-2,2
			s-2-0.9-2-2C44.4,258.1,45.3,257.2,46.4,257.2z M33.8,306L33.8,306c0-1.1,0.9-2,2-2c1.1,0,2,0.9,2,2v0c0,1.1-0.9,2-2,2
			C34.7,308,33.8,307.1,33.8,306z M50.2,314.8c-3.1-3-3.7-6.3-3.8-8v0h0h0h-0.1v0c-0.1,1.7-0.7,4.9-3.8,8c-4,4-8.3,3.8-8.8,3.8
			c0-0.5-0.2-4.8,3.8-8.8c3.1-3,6.3-3.7,8-3.7h0v-0.1h0c-1.7-0.1-5-0.7-8-3.7c-4-4-3.8-8.3-3.8-8.8c0.5,0,4.8-0.2,8.8,3.8
			c3.1,3,3.7,6.3,3.8,8v0h0h0h0.1v0c0.1-1.7,0.7-4.9,3.8-8c4-4,8.3-3.8,8.8-3.8c0,0.5,0.2,4.8-3.8,8.8c-3.1,3-6.3,3.7-8,3.7h0v0.1
			l-0.1,0.1h0.1c1.7,0.1,5,0.7,8,3.7c4,4,3.8,8.3,3.8,8.8C58.6,318.6,54.2,318.8,50.2,314.8z M46.4,318.6c-1.1,0-2-0.9-2-2
			c0-1.1,0.9-2,2-2s2,0.9,2,2C48.4,317.7,47.5,318.6,46.4,318.6z M46.4,293.4c1.1,0,2,0.9,2,2c0,1.1-0.9,2-2,2s-2-0.9-2-2
			C44.4,294.3,45.3,293.4,46.4,293.4z M19.8,333.4c4-4,8.3-3.8,8.8-3.8c0,0.5,0.2,4.8-3.8,8.8c-3.3,3.3-6.9,3.7-8.3,3.8
			c-0.1,0-0.2,0-0.3,0c-0.1,0-0.2,0-0.2,0C16,341.7,15.8,337.3,19.8,333.4z M28.6,342.2c0,1.1-0.9,2-2,2c-1.1,0-2-0.9-2-2
			c0-1.1,0.9-2,2-2C27.7,340.2,28.6,341.1,28.6,342.2z M35.8,340.2c1.1,0,2,0.9,2,2c0,1.1-0.9,2-2,2c-1.1,0-2-0.9-2-2
			C33.8,341.1,34.7,340.2,35.8,340.2z M3.3,342.2c0-1.1,0.9-2,2-2c1.1,0,2,0.9,2,2c0,1.1-0.9,2-2,2C4.2,344.2,3.3,343.3,3.3,342.2z
			 M19.8,351c-4-4-3.8-8.3-3.8-8.8c0,0,0.1,0,0.2,0c0.1,0,0.2,0,0.3,0c1.4,0,4.9,0.4,8.3,3.8c4,4,3.8,8.3,3.8,8.8
			C28.1,354.8,23.8,355,19.8,351z M50.2,351c-3.1-3-3.7-6.3-3.8-8v0h0h0h-0.1v0c-0.1,1.7-0.7,4.9-3.8,8c-4,4-8.3,3.8-8.8,3.7
			c0-0.5-0.2-4.8,3.8-8.8c3.1-3,6.3-3.6,8-3.7h0v0v0v-0.1h0c-1.7-0.1-5-0.7-8-3.7c-4-4-3.8-8.3-3.8-8.8c0.5,0,4.8-0.2,8.8,3.7
			c3.1,3,3.7,6.3,3.8,8v0h0h0h0.1v0c0.1-1.7,0.7-4.9,3.8-8c4-4,8.3-3.8,8.8-3.7c0,0.5,0.2,4.8-3.8,8.8c-3.1,3-6.3,3.7-8,3.7h0v0
			c0,0,0,0,0,0v0.1h0c1.7,0.1,5,0.7,8,3.7c4,4,3.8,8.3,3.8,8.8C58.6,354.8,54.2,355,50.2,351L50.2,351z M46.4,354.8
			c-1.1,0-2-0.9-2-2c0-1.1,0.9-2,2-2s2,0.9,2,2C48.4,353.9,47.5,354.8,46.4,354.8z M46.4,329.6c1.1,0,2,0.9,2,2c0,1.1-0.9,2-2,2
			s-2-0.9-2-2C44.4,330.5,45.3,329.6,46.4,329.6z M33.8,378.4L33.8,378.4c0-1.1,0.9-2,2-2c1.1,0,2,0.9,2,2v0c0,1.1-0.9,2-2,2
			C34.7,380.4,33.8,379.5,33.8,378.4z M50.2,387.2c-3.1-3-3.7-6.3-3.8-8v0h0h0h-0.1v0c-0.1,1.7-0.7,4.9-3.8,8c-4,4-8.3,3.8-8.8,3.7
			c0-0.5-0.2-4.8,3.8-8.8c3.1-3,6.3-3.7,8-3.7h0v-0.1h0c-1.7-0.1-5-0.7-8-3.7c-4-4-3.8-8.3-3.8-8.8c0.5,0,4.8-0.2,8.8,3.7
			c3.1,3,3.7,6.3,3.8,8v0h0h0h0.1v0c0.1-1.7,0.7-4.9,3.8-8c4-4,8.3-3.8,8.8-3.7c0,0.5,0.2,4.8-3.8,8.8c-3.1,3-6.3,3.6-8,3.7h0v0.1
			l-0.1,0.1h0.1c1.7,0.1,5,0.7,8,3.8c4,4,3.8,8.3,3.8,8.8C58.6,391,54.2,391.2,50.2,387.2z M46.4,391c-1.1,0-2-0.9-2-2
			c0-1.1,0.9-2,2-2s2,0.9,2,2C48.4,390.1,47.5,391,46.4,391z M46.4,365.8c1.1,0,2,0.9,2,2c0,1.1-0.9,2-2,2s-2-0.9-2-2
			C44.4,366.7,45.3,365.8,46.4,365.8z M19.8,405.8c4-4,8.3-3.8,8.8-3.7c0,0.5,0.2,4.8-3.8,8.8c-3.3,3.3-6.9,3.7-8.3,3.8
			c-0.1,0-0.2,0-0.3,0c-0.1,0-0.2,0-0.2,0C16,414.1,15.8,409.7,19.8,405.8z M28.6,414.6c0,1.1-0.9,2-2,2c-1.1,0-2-0.9-2-2
			c0-1.1,0.9-2,2-2C27.7,412.6,28.6,413.5,28.6,414.6z M35.8,412.6c1.1,0,2,0.9,2,2c0,1.1-0.9,2-2,2c-1.1,0-2-0.9-2-2
			C33.8,413.5,34.7,412.6,35.8,412.6z M3.3,414.6c0-1.1,0.9-2,2-2c1.1,0,2,0.9,2,2c0,1.1-0.9,2-2,2C4.2,416.6,3.3,415.7,3.3,414.6z
			 M19.8,423.4c-4-4-3.8-8.3-3.8-8.8c0,0,0.1,0,0.2,0c0.1,0,0.2,0,0.3,0c1.4,0,4.9,0.4,8.3,3.8c4,4,3.8,8.3,3.8,8.8
			C28.1,427.2,23.8,427.4,19.8,423.4z M50.2,423.4c-3.1-3-3.7-6.3-3.8-8v0h0h0h-0.1v0c-0.1,1.7-0.7,4.9-3.8,8c-4,4-8.3,3.8-8.8,3.8
			c0-0.5-0.2-4.8,3.8-8.8c3.1-3,6.3-3.7,8-3.7h0v0v0v-0.1h0c-1.7-0.1-5-0.7-8-3.7c-4-4-3.8-8.3-3.8-8.8c0.5,0,4.8-0.2,8.8,3.8
			c3.1,3,3.7,6.3,3.8,8v0h0h0h0.1v0c0.1-1.7,0.7-4.9,3.8-8c4-4,8.3-3.8,8.8-3.8c0,0.5,0.2,4.8-3.8,8.8c-3.1,3-6.3,3.6-8,3.7h0v0
			c0,0,0,0,0,0v0.1h0c1.7,0.1,5,0.7,8,3.7c4,4,3.8,8.3,3.8,8.8C58.6,427.2,54.2,427.4,50.2,423.4L50.2,423.4z M46.4,427.2
			c-1.1,0-2-0.9-2-2c0-1.1,0.9-2,2-2s2,0.9,2,2C48.4,426.3,47.5,427.2,46.4,427.2z M46.4,402c1.1,0,2,0.9,2,2c0,1.1-0.9,2-2,2
			s-2-0.9-2-2C44.4,402.9,45.3,402,46.4,402z M33.8,450.9L33.8,450.9c0-1.1,0.9-2,2-2c1.1,0,2,0.9,2,2v0c0,1.1-0.9,2-2,2
			C34.7,452.8,33.8,451.9,33.8,450.9z M50.2,459.7c-3.1-3-3.7-6.3-3.8-8v0h0h0h-0.1v0c-0.1,1.7-0.7,4.9-3.8,8c-4,4-8.3,3.8-8.8,3.7
			c0-0.5-0.2-4.8,3.8-8.8c3.1-3,6.3-3.6,8-3.7h0v-0.1h0c-1.7-0.1-5-0.7-8-3.7c-4-4-3.8-8.3-3.8-8.8c0.5,0,4.8-0.2,8.8,3.7
			c3.1,3,3.7,6.3,3.8,8v0h0h0h0.1v0c0.1-1.7,0.7-4.9,3.8-8c4-4,8.3-3.8,8.8-3.7c0,0.5,0.2,4.8-3.8,8.8c-3.1,3-6.3,3.7-8,3.7h0v0.1
			l-0.1,0.1h0.1c1.7,0.1,5,0.7,8,3.7c4,4,3.8,8.3,3.8,8.8C58.6,463.4,54.2,463.6,50.2,459.7z M46.4,463.4c-1.1,0-2-0.9-2-2
			c0-1.1,0.9-2,2-2s2,0.9,2,2C48.4,462.5,47.5,463.4,46.4,463.4z M46.4,438.3c1.1,0,2,0.9,2,2c0,1.1-0.9,2-2,2s-2-0.9-2-2
			C44.4,439.1,45.3,438.3,46.4,438.3z M19.8,478.2c4-4,8.3-3.8,8.8-3.8c0,0.5,0.2,4.8-3.8,8.8c-3.3,3.3-7,3.7-8.3,3.8
			c-0.1,0-0.2,0-0.3,0c-0.1,0-0.2,0-0.2,0C16,486.5,15.8,482.2,19.8,478.2L19.8,478.2z M28.6,487c0,1.1-0.9,2-2,2c-1.1,0-2-0.9-2-2
			c0-1.1,0.9-2,2-2C27.7,485.1,28.6,486,28.6,487z M35.8,485.1c1.1,0,2,0.9,2,2c0,1.1-0.9,2-2,2c-1.1,0-2-0.9-2-2
			C33.8,486,34.7,485.1,35.8,485.1z M3.3,487c0-1.1,0.9-2,2-2c1.1,0,2,0.9,2,2c0,1.1-0.9,2-2,2C4.2,489,3.3,488.1,3.3,487z
			 M19.8,495.9c-4-4-3.8-8.3-3.8-8.8c0,0,0.1,0,0.2,0c0.1,0,0.2,0,0.3,0c1.3,0,5,0.4,8.3,3.8c4,4,3.8,8.3,3.8,8.8
			C28.1,499.7,23.8,499.8,19.8,495.9L19.8,495.9z M50.2,495.9c-3.1-3-3.7-6.3-3.8-8v0h0h0h-0.1v0c-0.1,1.7-0.7,4.9-3.8,8
			c-4,4-8.3,3.8-8.8,3.7c0-0.5-0.2-4.8,3.8-8.8c3.1-3,6.3-3.7,8-3.7h0v0v0V487h0c-1.7-0.1-5-0.7-8-3.7c-4-4-3.8-8.3-3.8-8.8
			c0.5,0,4.8-0.2,8.8,3.7c3.1,3,3.7,6.3,3.8,8v0h0h0h0.1v0c0.1-1.7,0.7-4.9,3.8-8c4-4,8.3-3.8,8.8-3.7c0,0.5,0.2,4.8-3.8,8.8
			c-3.1,3-6.3,3.6-8,3.7h0v0c0,0,0,0,0,0v0.1h0c1.7,0.1,5,0.7,8,3.7c4,4,3.8,8.3,3.8,8.8C58.6,499.7,54.2,499.8,50.2,495.9
			L50.2,495.9z M46.4,499.6c-1.1,0-2-0.9-2-2c0-1.1,0.9-2,2-2s2,0.9,2,2C48.4,498.7,47.5,499.6,46.4,499.6z M46.4,474.5
			c1.1,0,2,0.9,2,2c0,1.1-0.9,2-2,2s-2-0.9-2-2C44.4,475.4,45.3,474.5,46.4,474.5z M33.8,523.3L33.8,523.3c0-1.1,0.9-2,2-2
			c1.1,0,2,0.9,2,2v0c0,1.1-0.9,2-2,2C34.7,525.2,33.8,524.4,33.8,523.3L33.8,523.3z M759.5,536C759.5,536,759.5,536,759.5,536
			c1.1,0,2,0.9,2,2s-0.9,2-2,2c0,0,0,0,0,0c0,0,0,0,0,0h0v0v0.1c-1.1,0-2-0.9-2-2s0.9-2,2.1-2h0L759.5,536
			C759.5,536,759.5,536,759.5,536L759.5,536z M759.5,547.9v-0.2c0,0.5,0,0.8,0,0.9c0,0,0,0,0,0h0v0.1h0c0,0,0,0,0,0
			c0,0.1,0,0.2,0,0.4v0c0,0.1,0,0.3,0,0.5v0h0l-0.1-0.1v0.1c-0.1,1.7-0.8,5-4,8c-4.2,4-8.8,3.8-9.3,3.8c0-0.5-0.2-4.8,4-8.8
			c3.2-3.1,6.7-3.7,8.4-3.8h0v0c0,0,0,0,0,0v-0.1h0c-1.8-0.1-5.2-0.7-8.4-3.8c-4.2-4-4-8.3-3.9-8.8c0.5,0,5.1-0.2,9.3,3.8
			C758.6,542.9,759.3,546.2,759.5,547.9L759.5,547.9L759.5,547.9L759.5,547.9z M789.7,548.5c3.3,3.3,3.7,6.9,3.8,8.3
			c0,0.1,0,0.1,0,0.2s0,0.1,0,0.1c0,0.1,0,0.2,0,0.2c0,0-0.1,0-0.2,0c-0.1,0-0.2,0-0.3,0c-1.4,0-5-0.4-8.3-3.8c-4-4-3.8-8.3-3.8-8.8
			C781.4,544.7,785.7,544.5,789.7,548.5z M793.5,544.7c1.1,0,2,0.9,2,2s-0.9,2-2,2s-2-0.9-2-2S792.4,544.7,793.5,544.7z
			 M789.7,566.2c-4,4-8.3,3.8-8.8,3.8c0-0.5-0.2-4.8,3.8-8.8c3.3-3.3,6.9-3.7,8.3-3.8c0.1,0,0.2,0,0.3,0c0.1,0,0.2,0,0.2,0
			c0,0,0,0.1,0,0.2c0,0.1,0,0.2,0,0.3C793.4,559.3,793,562.9,789.7,566.2z M793.5,566c1.1,0,2,0.9,2,2c0,1.1-0.9,2-2,2s-2-0.9-2-2
			C791.5,566.9,792.4,566,793.5,566z M687,557.6c-3.2-3.1-3.8-6.3-3.9-8v0H683v0c-0.1,1.7-0.7,5-4,8c-4.2,4-8.8,3.8-9.3,3.8
			c0-0.5-0.2-4.8,4-8.8c3.2-3.1,6.7-3.7,8.4-3.8h0v0v0v-0.1h0c-1.8-0.1-5.2-0.7-8.4-3.8c-4.2-4-4-8.3-4-8.8c0.5,0,5.1-0.2,9.3,3.8
			c3.2,3.1,3.9,6.3,3.9,8v0h0.1v0c0.1-1.7,0.7-5,3.9-8c4.2-4,8.8-3.8,9.3-3.8c0,0.5,0.2,4.8-3.9,8.8c-3.2,3.1-6.7,3.7-8.4,3.8h0v0v0
			v0.1h0c1.8,0.1,5.2,0.7,8.4,3.8c4.2,4,4,8.3,3.9,8.8C695.8,561.4,691.2,561.6,687,557.6z M683,561.4L683,561.4
			c-1.2,0-2.1-0.9-2.1-2c0-1.1,0.9-2,2.1-2h0c1.1,0,2.1,0.9,2.1,2C685.1,560.5,684.2,561.4,683,561.4L683,561.4z M496.1,557.6
			c-3.2-3.1-3.9-6.3-3.9-8v0h0h0H492v0c-0.1,1.7-0.7,5-3.9,8c-4.2,4-8.8,3.8-9.3,3.8c0-0.5-0.2-4.8,4-8.8c3.2-3.1,6.6-3.7,8.4-3.8h0
			v0c0,0,0,0,0,0v-0.1h0c-1.8-0.1-5.2-0.7-8.4-3.8c-4.2-4-4-8.3-4-8.8c0.5,0,5.1-0.2,9.3,3.8c3.2,3.1,3.9,6.3,4,8v0h0h0h0.1v0
			c0.1-1.7,0.7-5,3.9-8c4.2-4,8.8-3.8,9.3-3.8c0,0.5,0.2,4.8-3.9,8.8c-3.2,3.1-6.7,3.7-8.4,3.8h0v0v0v0.1h0c1.8,0.1,5.2,0.7,8.4,3.8
			c4.2,4,4,8.3,3.9,8.8C504.8,561.4,500.3,561.6,496.1,557.6L496.1,557.6z M492,561.4c-1.2,0-2.1-0.9-2.1-2c0-1.1,0.9-2,2.1-2
			c1.2,0,2.1,0.9,2.1,2C494.1,560.5,493.2,561.4,492,561.4z M343.3,557.6c-3.2-3.1-3.8-6.3-3.9-8v0h0h0h-0.1v0c-0.1,1.7-0.7,5-4,8
			c-4.2,4-8.8,3.8-9.3,3.8c0-0.5-0.2-4.8,4-8.8c3.2-3.1,6.7-3.7,8.4-3.8h0v0v0v-0.1h0c-1.8-0.1-5.2-0.7-8.4-3.8c-4.2-4-4-8.3-4-8.8
			c0.5,0,5.1-0.2,9.3,3.8c3.2,3.1,3.9,6.3,4,8v0h0h0h0.1v0c0.1-1.7,0.7-5,4-8c4.2-4,8.8-3.8,9.3-3.8c0,0.5,0.2,4.8-4,8.8
			c-3.2,3.1-6.7,3.7-8.4,3.8h0v0v0v0.1h0c1.8,0.1,5.2,0.7,8.4,3.8c4.2,4,4,8.3,4,8.8C352,561.4,347.5,561.6,343.3,557.6L343.3,557.6
			z M339.3,561.4c-1.2,0-2.1-0.9-2.1-2c0-1.1,0.9-2,2.1-2c1.2,0,2.1,0.9,2.1,2C341.3,560.5,340.4,561.4,339.3,561.4z M190.5,557.6
			c-3.2-3.1-3.9-6.3-4-8v0h0h0h-0.1v0c-0.1,1.7-0.7,5-3.9,8c-4.2,4-8.8,3.8-9.3,3.8c0-0.5-0.2-4.8,3.9-8.8c3.2-3.1,6.7-3.7,8.4-3.8
			h0v0v0v-0.1h0c-1.8-0.1-5.2-0.7-8.4-3.8c-4.2-4-4-8.3-3.9-8.8c0.5,0,5.1-0.2,9.3,3.8c3.2,3.1,3.9,6.3,3.9,8v0h0h0h0.1v0
			c0.1-1.7,0.7-5,3.9-8c4.2-4,8.8-3.8,9.3-3.8c0,0.5,0.2,4.8-3.9,8.8c-3.2,3.1-6.7,3.7-8.4,3.8h0v0c0,0,0,0,0,0v0.1h0
			c1.8,0.1,5.2,0.7,8.4,3.8c4.2,4,4,8.3,4,8.8C199.2,561.4,194.7,561.6,190.5,557.6L190.5,557.6z M186.5,561.4c-1.2,0-2.1-0.9-2.1-2
			c0-1.1,0.9-2,2.1-2c1.2,0,2.1,0.9,2.1,2C188.6,560.5,187.6,561.4,186.5,561.4z M152.3,557.6c-3.2-3.1-3.9-6.3-4-8v-0.1l-0.1,0.1h0
			v0h0c-0.1,1.7-0.7,5-4,8c-4.2,4-8.8,3.8-9.3,3.8c0-0.5-0.2-4.8,3.9-8.8c3.2-3.1,6.7-3.7,8.4-3.8h0v0v0v-0.1h0
			c-1.8-0.1-5.2-0.7-8.4-3.8c-4.2-4-4-8.3-3.9-8.8c0.5,0,5.1-0.2,9.3,3.8c3.2,3.1,3.9,6.3,4,8v0h0.1v0c0.1-1.7,0.7-5,4-8
			c4.2-4,8.8-3.8,9.3-3.8c0,0.5,0.2,4.8-4,8.8c-3.2,3.1-6.7,3.7-8.4,3.8h0v0v0v0.1h0c1.8,0.1,5.2,0.7,8.4,3.8c4.2,4,4,8.3,4,8.8
			C161,561.4,156.5,561.6,152.3,557.6z M148.3,561.4L148.3,561.4c-1.2,0-2.1-0.9-2.1-2c0-1.1,0.9-2,2.1-2h0c1.1,0,2.1,0.9,2.1,2
			C150.4,560.5,149.4,561.4,148.3,561.4L148.3,561.4z M41.6,548.5c4-4,8.3-3.8,8.8-3.8c0,0.5,0.2,4.8-3.8,8.8
			c-3.3,3.3-7,3.8-8.3,3.8c-0.1,0-0.2,0-0.3,0c-0.1,0-0.2,0-0.2,0c0,0,0-0.1,0-0.2c0-0.1,0-0.2,0-0.3
			C37.9,555.4,38.3,551.8,41.6,548.5z M37.8,548.7c-1.1,0-2-0.9-2-2c0-1.1,0.9-2,2-2c1.1,0,2,0.9,2,2
			C39.8,547.8,38.9,548.7,37.8,548.7z M61.1,546.6c1.1,0,2,0.9,2,2c0,1.1-0.9,2-2,2s-2-0.9-2-2C59.2,547.5,60,546.6,61.1,546.6z
			 M48.4,555.4c1.1,0,2,0.9,2,2c0,1.1-0.9,2-2,2c-1.1,0-2-0.9-2-2C46.5,556.2,47.4,555.4,48.4,555.4z M62.9,552.4
			c3.3-3.3,6.9-3.7,8.3-3.8c0.1,0,0.2,0,0.3,0c0.1,0,0.2,0,0.2,0c0,0.1,0,0.2,0,0.3c0,0,0,0.1,0,0.1c0,1.3-0.3,5-3.8,8.4
			c-4,4-8.3,3.8-8.8,3.8C59.1,560.8,58.9,556.4,62.9,552.4L62.9,552.4z M71.8,557.3C71.8,557.3,71.8,557.3,71.8,557.3
			C71.8,557.3,71.8,557.3,71.8,557.3L71.8,557.3l0.1,0.1c0.4,0,0.7,0.1,1.1,0.3c0.5,0.4,0.8,1,0.8,1.6c0,1.1-0.9,2-2,2
			c-1.1,0-2-0.9-2-2S70.7,557.3,71.8,557.3L71.8,557.3z M75.9,557.6c-3.2-3.1-3.8-6.3-3.9-8v0h-0.1v0.1c0-0.2,0-0.4,0-0.5v0
			c0-0.2,0-0.3,0-0.4c0,0,0,0,0,0h0v-0.1h0c0,0,0,0,0,0c0-0.1,0-0.4,0-0.9v0.2h0.1v0c0.1-1.7,0.7-5,3.9-8c4.2-4,8.8-3.8,9.3-3.8
			c0,0.5,0.2,4.8-3.9,8.8c-3.2,3.1-6.7,3.7-8.4,3.8h0v0v0v0.1h0c1.8,0.1,5.2,0.7,8.4,3.8c4.2,4,4,8.3,3.9,8.8
			C84.7,561.4,80.1,561.6,75.9,557.6L75.9,557.6z M71.9,540C71.9,540,71.9,540,71.9,540C71.8,540,71.8,540,71.9,540
			c-1.2,0-2.1-0.9-2.1-2s0.9-2,2-2c0,0,0,0,0,0c0,0,0,0,0,0v0.1h0c1.1,0,2.1,0.9,2.1,2C74,539.1,73.1,540,71.9,540L71.9,540
			L71.9,540L71.9,540z M85.2,548.7c0,1.1-0.9,2-2.1,2c-1.2,0-2.1-0.9-2.1-2s0.9-2,2.1-2C84.2,546.7,85.2,547.6,85.2,548.7z
			 M98.9,546.7c1.2,0,2.1,0.9,2.1,2s-0.9,2-2.1,2s-2.1-0.9-2.1-2S97.7,546.7,98.9,546.7z M96.8,561.4c0-0.5-0.2-4.8,4-8.8
			c3.2-3.1,6.6-3.7,8.4-3.8h0v0c0,0,0,0,0,0v-0.1h0c-1.8-0.1-5.2-0.7-8.4-3.8c-4.2-4-4-8.3-4-8.8c0.5,0,5.1-0.2,9.3,3.8
			c3.2,3.1,3.9,6.3,3.9,8v0h0h0h0.1v0c0.1-1.7,0.7-5,3.9-8c4.2-4,8.8-3.8,9.3-3.8c0,0.5,0.2,4.8-3.9,8.8c-3.2,3.1-6.7,3.7-8.4,3.8h0
			v0v0v0.1h0c1.8,0.1,5.2,0.7,8.4,3.8c4.2,4,4,8.3,3.9,8.8c-0.5,0-5.1,0.2-9.3-3.8c-3.2-3.1-3.8-6.3-3.9-8v0h0c0,0,0,0,0,0H110v0
			c-0.1,1.7-0.7,5-3.9,8C101.9,561.6,97.3,561.4,96.8,561.4L96.8,561.4z M110.1,536.1c1.2,0,2.1,0.9,2.1,2s-0.9,2-2.1,2
			s-2.1-0.9-2.1-2S108.9,536.1,110.1,536.1z M123.4,548.7c0,1.1-0.9,2-2.1,2c-1.2,0-2.1-0.9-2.1-2s0.9-2,2.1-2
			C122.4,546.7,123.4,547.6,123.4,548.7z M137.1,546.7c1.2,0,2.1,0.9,2.1,2s-0.9,2-2.1,2c-1.2,0-2.1-0.9-2.1-2
			S135.9,546.7,137.1,546.7z M110.1,561.4c-1.2,0-2.1-0.9-2.1-2c0-1.1,0.9-2,2.1-2s2.1,0.9,2.1,2
			C112.2,560.5,111.2,561.4,110.1,561.4z M148.3,536.1L148.3,536.1c1.2,0,2.1,0.9,2.1,2c0,1.1-0.9,2-2.1,2h0c-1.1,0-2.1-0.9-2.1-2
			C146.2,537,147.1,536.1,148.3,536.1z M161.6,548.7c0,1.1-0.9,2-2.1,2c-1.2,0-2.1-0.9-2.1-2s0.9-2,2.1-2
			C160.6,546.7,161.6,547.6,161.6,548.7z M175.3,546.7c1.2,0,2.1,0.9,2.1,2s-0.9,2-2.1,2s-2.1-0.9-2.1-2S174.1,546.7,175.3,546.7z
			 M186.5,536.1c1.2,0,2.1,0.9,2.1,2s-0.9,2-2.1,2c-1.2,0-2.1-0.9-2.1-2S185.3,536.1,186.5,536.1z M220.7,539.9
			c3.2,3.1,3.8,6.3,3.9,8v0h0.1v0c0.1-1.7,0.7-5,4-8c4.2-4,8.8-3.8,9.3-3.8c0,0.5,0.2,4.8-4,8.8c-3.2,3.1-6.7,3.7-8.4,3.8h0v0
			c0,0,0,0,0,0v0.1h0c1.8,0.1,5.2,0.7,8.4,3.8c4.2,4,4,8.3,3.9,8.8c-0.5,0-5.1,0.2-9.3-3.8c-3.2-3.1-3.9-6.3-4-8v0h-0.1v0
			c-0.1,1.7-0.7,5-4,8c-4.2,4-8.8,3.8-9.3,3.8c0-0.5-0.2-4.8,4-8.8c3.2-3.1,6.7-3.7,8.4-3.8h0v0v0v-0.1h0c-1.8-0.1-5.2-0.7-8.4-3.8
			c-4.2-4-4-8.3-4-8.8C211.9,536.1,216.5,535.9,220.7,539.9L220.7,539.9z M224.6,536.1L224.6,536.1c1.2,0,2.1,0.9,2.1,2
			c0,1.1-0.9,2-2.1,2h0c-1.1,0-2.1-0.9-2.1-2C222.6,537,223.5,536.1,224.6,536.1z M237.9,548.7c0,1.1-0.9,2-2.1,2
			c-1.2,0-2.1-0.9-2.1-2s0.9-2,2.1-2C237,546.7,237.9,547.6,237.9,548.7z M251.7,546.7c1.2,0,2.1,0.9,2.1,2s-0.9,2-2.1,2
			s-2.1-0.9-2.1-2S250.5,546.7,251.7,546.7z M224.7,561.4L224.7,561.4c-1.2,0-2.1-0.9-2.1-2c0-1.1,0.9-2,2.1-2h0
			c1.1,0,2.1,0.9,2.1,2C226.8,560.5,225.8,561.4,224.7,561.4L224.7,561.4z M211.4,548.7c0-1.1,0.9-2,2.1-2c1.2,0,2.1,0.9,2.1,2
			s-0.9,2-2.1,2C212.3,550.7,211.4,549.8,211.4,548.7z M197.7,550.7c-1.2,0-2.1-0.9-2.1-2s0.9-2,2.1-2c1.2,0,2.1,0.9,2.1,2
			S198.8,550.7,197.7,550.7z M266.9,557.6c-3.2-3.1-3.8-6.3-3.9-8v0h0c0,0,0,0,0,0h-0.1v0c-0.1,1.7-0.7,5-3.9,8
			c-4.2,4-8.8,3.8-9.3,3.8c0-0.5-0.2-4.8,3.9-8.8c3.2-3.1,6.7-3.7,8.4-3.8h0v0c0,0,0,0,0,0v-0.1h0c-1.8-0.1-5.2-0.7-8.4-3.8
			c-4.2-4-4-8.3-4-8.8c0.5,0,5.1-0.2,9.3,3.8c3.2,3.1,3.9,6.3,3.9,8v0h0h0h0.1v0c0.1-1.7,0.7-5,3.9-8c4.2-4,8.8-3.8,9.3-3.8
			c0,0.5,0.2,4.8-3.9,8.8c-3.2,3.1-6.7,3.7-8.4,3.8h0v0v0v0.1h0c1.8,0.1,5.2,0.7,8.4,3.8c4.2,4,4,8.3,3.9,8.8
			C275.7,561.4,271.1,561.6,266.9,557.6L266.9,557.6z M262.9,561.4c-1.2,0-2.1-0.9-2.1-2c0-1.1,0.9-2,2.1-2c1.2,0,2.1,0.9,2.1,2
			C265,560.5,264,561.4,262.9,561.4z M262.9,536.1c1.2,0,2.1,0.9,2.1,2s-0.9,2-2.1,2c-1.2,0-2.1-0.9-2.1-2S261.7,536.1,262.9,536.1z
			 M276.1,548.7c0,1.1-0.9,2-2.1,2c-1.2,0-2.1-0.9-2.1-2s0.9-2,2.1-2C275.2,546.7,276.1,547.6,276.1,548.7z M289.9,546.7
			c1.2,0,2.1,0.9,2.1,2s-0.9,2-2.1,2s-2.1-0.9-2.1-2S288.7,546.7,289.9,546.7z M287.8,561.4c0-0.5-0.2-4.8,4-8.8
			c3.2-3.1,6.7-3.7,8.4-3.8h0v0c0,0,0,0,0,0v-0.1h0c-1.8-0.1-5.2-0.7-8.4-3.8c-4.2-4-4-8.3-3.9-8.8c0.5,0,5.1-0.2,9.3,3.8
			c3.2,3.1,3.8,6.3,3.9,8v0h0.1v0c0.1-1.7,0.7-5,3.9-8c4.2-4,8.8-3.8,9.3-3.8c0,0.5,0.2,4.8-4,8.8c-3.2,3.1-6.6,3.7-8.4,3.8h0v0v0
			v0.1h0c1.8,0.1,5.2,0.7,8.4,3.8c4.2,4,4,8.3,4,8.8c-0.5,0-5.1,0.2-9.3-3.8c-3.2-3.1-3.9-6.3-3.9-8v0h-0.1l-0.1-0.1v0.1
			c-0.1,1.7-0.7,5-3.9,8C292.9,561.6,288.3,561.4,287.8,561.4L287.8,561.4z M301,536.1L301,536.1c1.2,0,2.1,0.9,2.1,2
			c0,1.1-0.9,2-2.1,2h0c-1.1,0-2.1-0.9-2.1-2C299,537,299.9,536.1,301,536.1z M314.3,548.7c0,1.1-0.9,2-2.1,2c-1.2,0-2.1-0.9-2.1-2
			s0.9-2,2.1-2C313.4,546.7,314.3,547.6,314.3,548.7z M328.1,546.7c1.2,0,2.1,0.9,2.1,2s-0.9,2-2.1,2c-1.2,0-2.1-0.9-2.1-2
			S326.9,546.7,328.1,546.7z M301.1,561.4L301.1,561.4c-1.2,0-2.1-0.9-2.1-2c0-1.1,0.9-2,2.1-2h0c1.1,0,2.1,0.9,2.1,2
			C303.2,560.5,302.2,561.4,301.1,561.4L301.1,561.4z M339.3,536.1c1.2,0,2.1,0.9,2.1,2s-0.9,2-2.1,2c-1.2,0-2.1-0.9-2.1-2
			S338.1,536.1,339.3,536.1z M352.5,548.7c0,1.1-0.9,2-2.1,2c-1.2,0-2.1-0.9-2.1-2s0.9-2,2.1-2C351.6,546.7,352.5,547.6,352.5,548.7
			z M366.3,546.7c1.2,0,2.1,0.9,2.1,2s-0.9,2-2.1,2c-1.2,0-2.1-0.9-2.1-2S365.1,546.7,366.3,546.7z M381.5,557.6
			c-3.2-3.1-3.8-6.3-3.9-8v0h-0.1v0c-0.1,1.7-0.7,5-3.9,8c-4.2,4-8.8,3.8-9.3,3.8c0-0.5-0.2-4.8,3.9-8.8c3.2-3.1,6.7-3.7,8.4-3.8h0
			v0v0v-0.1h0c-1.8-0.1-5.2-0.7-8.4-3.8c-4.2-4-4-8.3-3.9-8.8c0.5,0,5.1-0.2,9.3,3.8c3.2,3.1,3.9,6.3,3.9,8v0h0.1v0
			c0.1-1.7,0.7-5,3.9-8c4.2-4,8.8-3.8,9.3-3.8c0,0.5,0.2,4.8-3.9,8.8c-3.2,3.1-6.7,3.7-8.4,3.8h0v0c0,0,0,0,0,0v0.1h0
			c1.8,0.1,5.2,0.7,8.4,3.8c4.2,4,4,8.3,4,8.8C390.2,561.4,385.6,561.6,381.5,557.6L381.5,557.6z M377.5,561.4L377.5,561.4
			c-1.2,0-2.1-0.9-2.1-2c0-1.1,0.9-2,2.1-2h0c1.1,0,2.1,0.9,2.1,2C379.6,560.5,378.6,561.4,377.5,561.4L377.5,561.4z M377.4,536.1
			L377.4,536.1c1.2,0,2.1,0.9,2.1,2c0,1.1-0.9,2-2.1,2h0c-1.1,0-2.1-0.9-2.1-2C375.4,537,376.3,536.1,377.4,536.1z M411.6,539.9
			c3.2,3.1,3.8,6.3,3.9,8v0h0h0h0.1v0c0.1-1.7,0.7-5,3.9-8c4.2-4,8.8-3.8,9.3-3.8c0,0.5,0.2,4.8-4,8.8c-3.2,3.1-6.7,3.7-8.4,3.8h0v0
			c0,0,0,0,0,0v0.1h0c1.8,0.1,5.2,0.7,8.4,3.8c4.2,4,4,8.3,3.9,8.8c-0.5,0-5.1,0.2-9.3-3.8c-3.2-3.1-3.9-6.3-3.9-8v0h0h0h-0.1v0
			c-0.1,1.7-0.7,5-3.9,8c-4.2,4-8.8,3.8-9.3,3.8c0-0.5-0.2-4.8,3.9-8.8c3.2-3.1,6.7-3.7,8.4-3.8h0v0v0v-0.1h0
			c-1.8-0.1-5.2-0.7-8.4-3.8c-4.2-4-4-8.3-3.9-8.8C402.9,536.1,407.5,535.9,411.6,539.9L411.6,539.9z M415.7,536.1
			c1.2,0,2.1,0.9,2.1,2s-0.9,2-2.1,2c-1.2,0-2.1-0.9-2.1-2S414.5,536.1,415.7,536.1z M428.9,548.7c0,1.1-0.9,2-2.1,2
			c-1.2,0-2.1-0.9-2.1-2s0.9-2,2.1-2C428,546.7,428.9,547.6,428.9,548.7z M442.7,546.7c1.2,0,2.1,0.9,2.1,2s-0.9,2-2.1,2
			s-2.1-0.9-2.1-2S441.5,546.7,442.7,546.7z M415.7,561.4c-1.2,0-2.1-0.9-2.1-2c0-1.1,0.9-2,2.1-2c1.2,0,2.1,0.9,2.1,2
			C417.7,560.5,416.8,561.4,415.7,561.4z M402.4,548.7c0-1.1,0.9-2,2.1-2c1.2,0,2.1,0.9,2.1,2s-0.9,2-2.1,2
			C403.3,550.7,402.4,549.8,402.4,548.7z M388.6,550.7c-1.2,0-2.1-0.9-2.1-2s0.9-2,2.1-2s2.1,0.9,2.1,2S389.8,550.7,388.6,550.7z
			 M457.9,557.6c-3.2-3.1-3.9-6.3-3.9-8v0h-0.1l-0.1-0.1v0.1c-0.1,1.7-0.7,5-3.9,8c-4.2,4-8.8,3.8-9.3,3.8c0-0.5-0.2-4.8,3.9-8.8
			c3.2-3.1,6.7-3.7,8.4-3.8h0v0v0v-0.1h0c-1.8-0.1-5.2-0.7-8.4-3.8c-4.2-4-4-8.3-3.9-8.8c0.5,0,5.1-0.2,9.3,3.8
			c3.2,3.1,3.8,6.3,3.9,8v0h0.1v0c0.1-1.7,0.7-5,3.9-8c4.2-4,8.8-3.8,9.3-3.8c0,0.5,0.2,4.8-3.9,8.8c-3.2,3.1-6.7,3.7-8.4,3.8h0v0v0
			v0.1h0c1.8,0.1,5.2,0.7,8.4,3.8c4.2,4,4,8.3,3.9,8.8C466.6,561.4,462.1,561.6,457.9,557.6L457.9,557.6z M453.9,561.4L453.9,561.4
			c-1.2,0-2.1-0.9-2.1-2c0-1.1,0.9-2,2.1-2h0c1.1,0,2.1,0.9,2.1,2C455.9,560.5,455,561.4,453.9,561.4L453.9,561.4z M453.8,536.1
			L453.8,536.1c1.2,0,2.1,0.9,2.1,2c0,1.1-0.9,2-2.1,2h0c-1.1,0-2.1-0.9-2.1-2C451.8,537,452.7,536.1,453.8,536.1z M467.1,548.7
			c0,1.1-0.9,2-2.1,2c-1.2,0-2.1-0.9-2.1-2s0.9-2,2.1-2C466.2,546.7,467.1,547.6,467.1,548.7z M480.9,546.7c1.2,0,2.1,0.9,2.1,2
			s-0.9,2-2.1,2c-1.2,0-2.1-0.9-2.1-2S479.7,546.7,480.9,546.7z M492,536.1c1.2,0,2.1,0.9,2.1,2s-0.9,2-2.1,2c-1.2,0-2.1-0.9-2.1-2
			S490.9,536.1,492,536.1z M505.3,548.7c0,1.1-0.9,2-2.1,2c-1.2,0-2.1-0.9-2.1-2s0.9-2,2.1-2C504.4,546.7,505.3,547.6,505.3,548.7z
			 M519.1,546.7c1.2,0,2.1,0.9,2.1,2s-0.9,2-2.1,2s-2.1-0.9-2.1-2S517.9,546.7,519.1,546.7z M517,561.4c0-0.5-0.2-4.8,3.9-8.8
			c3.2-3.1,6.7-3.7,8.4-3.8h0v0v0v-0.1h0c-1.8-0.1-5.2-0.7-8.4-3.8c-4.2-4-4-8.3-3.9-8.8c0.5,0,5.1-0.2,9.3,3.8
			c3.2,3.1,3.8,6.3,3.9,8v0h0.1v0c0.1-1.7,0.7-5,3.9-8c4.2-4,8.8-3.8,9.3-3.8c0,0.5,0.2,4.8-3.9,8.8c-3.2,3.1-6.7,3.7-8.4,3.8h0v0v0
			v0.1h0c1.8,0.1,5.2,0.7,8.4,3.8c4.2,4,4,8.3,4,8.8c-0.5,0-5.1,0.2-9.3-3.8c-3.2-3.1-3.9-6.3-4-8v-0.1l-0.1,0.1h0v0h0
			c-0.1,1.7-0.7,5-3.9,8C522,561.6,517.5,561.4,517,561.4L517,561.4z M530.2,536.1L530.2,536.1c1.2,0,2.1,0.9,2.1,2
			c0,1.1-0.9,2-2.1,2h0c-1.1,0-2.1-0.9-2.1-2C528.2,537,529.1,536.1,530.2,536.1z M543.5,548.7c0,1.1-0.9,2-2.1,2s-2.1-0.9-2.1-2
			s0.9-2,2.1-2S543.5,547.6,543.5,548.7z M557.3,546.7c1.2,0,2.1,0.9,2.1,2s-0.9,2-2.1,2c-1.2,0-2.1-0.9-2.1-2
			S556.1,546.7,557.3,546.7z M530.3,561.4L530.3,561.4c-1.2,0-2.1-0.9-2.1-2c0-1.1,0.9-2,2.1-2h0c1.1,0,2.1,0.9,2.1,2
			C532.3,560.5,531.4,561.4,530.3,561.4L530.3,561.4z M572.4,557.6c-3.2-3.1-3.9-6.3-3.9-8v0h0c0,0,0,0,0,0h-0.1v0
			c-0.1,1.7-0.7,5-3.9,8c-4.2,4-8.8,3.8-9.3,3.8c0-0.5-0.2-4.8,3.9-8.8c3.2-3.1,6.7-3.7,8.4-3.8h0v0v0v-0.1h0
			c-1.8-0.1-5.2-0.7-8.4-3.8c-4.2-4-4-8.3-3.9-8.8c0.5,0,5.1-0.2,9.3,3.8c3.2,3.1,3.8,6.3,3.9,8v0h0h0h0.1v0c0.1-1.7,0.7-5,3.9-8
			c4.2-4,8.8-3.8,9.3-3.8c0,0.5,0.2,4.8-4,8.8c-3.2,3.1-6.7,3.7-8.4,3.8h0v0c0,0,0,0,0,0v0.1h0c1.8,0.1,5.2,0.7,8.4,3.8
			c4.2,4,4,8.3,3.9,8.8C581.2,561.4,576.7,561.6,572.4,557.6L572.4,557.6z M568.4,561.4c-1.2,0-2.1-0.9-2.1-2c0-1.1,0.9-2,2.1-2
			c1.2,0,2.1,0.9,2.1,2C570.5,560.5,569.6,561.4,568.4,561.4z M568.4,536.1c1.2,0,2.1,0.9,2.1,2s-0.9,2-2.1,2c-1.2,0-2.1-0.9-2.1-2
			S567.3,536.1,568.4,536.1z M602.6,539.9c3.2,3.1,3.9,6.3,3.9,8v0h0.1v0c0.1-1.7,0.7-5,4-8c4.2-4,8.8-3.8,9.3-3.8
			c0,0.5,0.2,4.8-3.9,8.8c-3.2,3.1-6.7,3.7-8.4,3.8h0v0v0v0.1h0c1.8,0.1,5.2,0.7,8.4,3.8c4.2,4,4,8.3,3.9,8.8
			c-0.5,0-5.1,0.2-9.3-3.8c-3.2-3.1-3.9-6.3-3.9-8v0h-0.1v0c-0.1,1.7-0.7,5-4,8c-4.2,4-8.8,3.8-9.3,3.8c0-0.5-0.2-4.8,4-8.8
			c3.2-3.1,6.7-3.7,8.4-3.8h0v0v0v-0.1h0c-1.8-0.1-5.2-0.7-8.4-3.8c-4.2-4-4-8.3-4-8.8C593.9,536.1,598.4,535.9,602.6,539.9z
			 M606.6,536.1L606.6,536.1c1.2,0,2.1,0.9,2.1,2c0,1.1-0.9,2-2.1,2h0c-1.1,0-2.1-0.9-2.1-2C604.5,537,605.5,536.1,606.6,536.1z
			 M619.9,548.7c0,1.1-0.9,2-2.1,2s-2.1-0.9-2.1-2s0.9-2,2.1-2S619.9,547.6,619.9,548.7z M633.6,546.7c1.2,0,2.1,0.9,2.1,2
			s-0.9,2-2.1,2c-1.2,0-2.1-0.9-2.1-2S632.5,546.7,633.6,546.7z M606.7,561.4L606.7,561.4c-1.2,0-2.1-0.9-2.1-2c0-1.1,0.9-2,2.1-2h0
			c1.1,0,2.1,0.9,2.1,2C608.7,560.5,607.8,561.4,606.7,561.4L606.7,561.4z M593.4,548.7c0-1.1,0.9-2,2.1-2s2.1,0.9,2.1,2
			s-0.9,2-2.1,2S593.4,549.8,593.4,548.7z M579.6,550.7c-1.2,0-2.1-0.9-2.1-2s0.9-2,2.1-2s2.1,0.9,2.1,2S580.8,550.7,579.6,550.7z
			 M648.8,557.6c-3.2-3.1-3.8-6.3-3.9-8v0h0h0h-0.1v0c-0.1,1.7-0.7,5-3.9,8c-4.2,4-8.8,3.8-9.3,3.8c0-0.5-0.2-4.8,3.9-8.8
			c3.2-3.1,6.7-3.7,8.4-3.8h0v0v0v-0.1h0c-1.8-0.1-5.2-0.7-8.4-3.8c-4.2-4-4-8.3-3.9-8.8c0.5,0,5.1-0.2,9.3,3.8
			c3.2,3.1,3.8,6.3,3.9,8v0h0h0h0.1v0c0.1-1.7,0.7-5,3.9-8c4.2-4,8.8-3.8,9.3-3.8c0,0.5,0.2,4.8-4,8.8c-3.2,3.1-6.7,3.7-8.4,3.8h0v0
			v0v0.1h0c1.8,0.1,5.2,0.7,8.4,3.8c4.2,4,4,8.3,4,8.8C657.6,561.4,653,561.6,648.8,557.6L648.8,557.6z M644.8,561.4
			c-1.2,0-2.1-0.9-2.1-2c0-1.1,0.9-2,2.1-2c1.2,0,2.1,0.9,2.1,2C646.9,560.5,646,561.4,644.8,561.4z M644.8,536.1
			c1.2,0,2.1,0.9,2.1,2s-0.9,2-2.1,2c-1.2,0-2.1-0.9-2.1-2S643.7,536.1,644.8,536.1z M658.1,548.7c0,1.1-0.9,2-2.1,2
			c-1.2,0-2.1-0.9-2.1-2s0.9-2,2.1-2C657.2,546.7,658.1,547.6,658.1,548.7z M671.8,546.7c1.2,0,2.1,0.9,2.1,2s-0.9,2-2.1,2
			c-1.2,0-2.1-0.9-2.1-2S670.7,546.7,671.8,546.7z M683,536.1L683,536.1c1.2,0,2.1,0.9,2.1,2c0,1.1-0.9,2-2.1,2h0
			c-1.1,0-2.1-0.9-2.1-2C680.9,537,681.9,536.1,683,536.1z M696.3,548.7c0,1.1-0.9,2-2.1,2s-2.1-0.9-2.1-2s0.9-2,2.1-2
			S696.3,547.6,696.3,548.7z M710,546.7c1.2,0,2.1,0.9,2.1,2s-0.9,2-2.1,2s-2.1-0.9-2.1-2S708.9,546.7,710,546.7z M708,561.4
			c0-0.5-0.2-4.8,4-8.8c3.2-3.1,6.7-3.7,8.4-3.8h0v0v0v-0.1h0c-1.8-0.1-5.2-0.7-8.4-3.8c-4.2-4-4-8.3-4-8.8c0.5,0,5.1-0.2,9.3,3.8
			c3.2,3.1,3.9,6.3,4,8v0h0h0h0.1v0c0.1-1.7,0.7-5,4-8c4.2-4,8.8-3.8,9.3-3.8c0,0.5,0.2,4.8-4,8.8c-3.2,3.1-6.7,3.7-8.4,3.8h0v0v0
			v0.1h0c1.8,0.1,5.2,0.7,8.4,3.8c4.2,4,4,8.3,4,8.8c-0.5,0-5.1,0.2-9.3-3.8c-3.2-3.1-3.9-6.3-4-8v0h0h0h-0.1v0
			c-0.1,1.7-0.7,5-3.9,8C713,561.6,708.5,561.4,708,561.4L708,561.4z M721.2,536.1c1.2,0,2.1,0.9,2.1,2s-0.9,2-2.1,2
			c-1.2,0-2.1-0.9-2.1-2S720.1,536.1,721.2,536.1z M734.5,548.7c0,1.1-0.9,2-2.1,2c-1.2,0-2.1-0.9-2.1-2s0.9-2,2.1-2
			C733.6,546.7,734.5,547.6,734.5,548.7z M748.2,546.7c1.2,0,2.1,0.9,2.1,2s-0.9,2-2.1,2s-2.1-0.9-2.1-2S747.1,546.7,748.2,546.7z
			 M721.2,561.4c-1.2,0-2.1-0.9-2.1-2c0-1.1,0.9-2,2.1-2c1.2,0,2.1,0.9,2.1,2C723.3,560.5,722.4,561.4,721.2,561.4z M759.4,557.3
			C759.4,557.3,759.4,557.3,759.4,557.3C759.5,557.3,759.5,557.3,759.4,557.3c1.2,0,2.1,0.9,2.1,2s-0.9,2-2,2c-1.1,0-2-0.9-2-2
			c0-0.6,0.3-1.2,0.8-1.6c0.3-0.2,0.7-0.3,1.1-0.3h0V557.3z M763.3,557.5c-3.4-3.4-3.8-7.2-3.8-8.4c0,0,0-0.1,0-0.1
			c0-0.1,0-0.2,0-0.3c0,0,0.1,0,0.2,0c0.1,0,0.2,0,0.3,0c1.4,0,5,0.4,8.3,3.8c4,4,3.8,8.3,3.8,8.8
			C771.7,561.3,767.3,561.5,763.3,557.5L763.3,557.5z M782.9,559.3c-1.1,0-2-0.9-2-2c0-1.1,0.9-2,2-2c1.1,0,2,0.9,2,2
			C784.8,558.4,784,559.3,782.9,559.3z M772.2,548.6c0,1.1-0.9,2-2,2c-1.1,0-2-0.9-2-2c0-1.1,0.9-2,2-2
			C771.3,546.6,772.2,547.5,772.2,548.6z M59.2,536c0.5,0,4.8-0.2,8.8,3.8c4,4,3.8,8.3,3.8,8.8c0,0-0.1,0-0.2,0c-0.1,0-0.2,0-0.3,0
			c-1.4,0-5-0.4-8.3-3.8C58.9,540.8,59.1,536.5,59.2,536L59.2,536z M28.9,553.5c-4-4-3.8-8.3-3.8-8.8c0.5,0,4.8-0.2,8.8,3.8
			c3.3,3.3,3.7,7,3.8,8.3c0,0.1,0,0.1,0,0.1c0,0,0,0.1,0,0.1c0,0.1,0,0.2,0,0.2c0,0-0.1,0-0.2,0c-0.1,0-0.2,0-0.3,0
			C35.9,557.3,32.3,556.9,28.9,553.5L28.9,553.5z M25.2,557.3c0-1.1,0.9-2,2-2s2,0.9,2,2c0,1.1-0.9,2-2,2S25.2,558.4,25.2,557.3z
			 M25.2,570c0-0.5-0.2-4.8,3.8-8.8c3.3-3.3,7-3.8,8.3-3.8c0.1,0,0.2,0,0.3,0c0.1,0,0.2,0,0.2,0c0,0,0,0.1,0,0.2c0,0.1,0,0.2,0,0.3
			c0,1.3-0.4,5-3.8,8.3C30,570.2,25.6,570,25.2,570L25.2,570z M37.8,566c1.1,0,2,0.9,2,2c0,1.1-0.9,2-2,2c-1.1,0-2-0.9-2-2
			C35.8,566.9,36.7,566,37.8,566z M41.6,566.2c-3.3-3.3-3.7-7-3.8-8.3c0-0.1,0-0.2,0-0.3c0-0.1,0-0.2,0-0.2c0,0,0.1,0,0.2,0
			c0.1,0,0.2,0,0.3,0c1.3,0,5,0.4,8.3,3.8c4,4,3.8,8.3,3.8,8.8C50,570,45.6,570.2,41.6,566.2z M100.8,575.4c-4.2-4-4-8.3-4-8.8
			c0.5,0,5.1-0.2,9.3,3.8c3.5,3.3,3.9,6.9,4,8.3c0,0.1,0,0.2,0,0.3c0,0.1,0,0.2,0,0.2C109.5,579.2,105,579.3,100.8,575.4z
			 M110.1,566.5c1.2,0,2.1,0.9,2.1,2c0,1.1-0.9,2-2.1,2s-2.1-0.9-2.1-2C108,567.4,108.9,566.5,110.1,566.5z M119.4,575.4
			c-4.2,4-8.8,3.8-9.3,3.8c0,0,0-0.1,0-0.2c0-0.1,0-0.2,0-0.3c0-1.3,0.5-5,4-8.3c4.2-4,8.8-3.8,9.3-3.8
			C123.4,567,123.6,571.4,119.4,575.4z M177.2,575.4c-4.2-4-4-8.3-3.9-8.8c0.5,0,5.1-0.2,9.3,3.8c3.5,3.3,3.9,6.9,4,8.3
			c0,0.1,0,0.1,0,0.2c0,0.1,0,0.1,0,0.1c0,0.1,0,0.2,0,0.2C185.9,579.2,181.4,579.4,177.2,575.4L177.2,575.4z M186.5,566.5
			c1.2,0,2.1,0.9,2.1,2c0,1.1-0.9,2-2.1,2c-1.2,0-2.1-0.9-2.1-2C184.4,567.4,185.3,566.5,186.5,566.5z M195.8,575.4
			c-4.2,4-8.8,3.8-9.3,3.8c0,0,0-0.1,0-0.2c0-0.1,0-0.2,0-0.3c0-1.4,0.5-5,4-8.3c4.2-4,8.8-3.8,9.3-3.8
			C199.8,567,200,571.4,195.8,575.4z M253.6,575.4c-4.2-4-4-8.3-3.9-8.8c0.5,0,5.1-0.2,9.3,3.8c3.5,3.3,3.9,6.9,4,8.3
			c0,0.1,0,0.2,0,0.3c0,0.1,0,0.2,0,0.2C262.3,579.2,257.8,579.3,253.6,575.4z M262.9,566.5c1.2,0,2.1,0.9,2.1,2c0,1.1-0.9,2-2.1,2
			c-1.2,0-2.1-0.9-2.1-2C260.8,567.4,261.7,566.5,262.9,566.5z M272.2,575.4c-4.2,4-8.8,3.8-9.3,3.8c0,0,0-0.1,0-0.2
			c0-0.1,0-0.2,0-0.3c0-1.4,0.5-5,4-8.3c4.2-4,8.8-3.8,9.3-3.8C276.2,567,276.4,571.4,272.2,575.4z M329.9,575.4c-4.2-4-4-8.3-4-8.8
			c0.5,0,5.1-0.2,9.3,3.8c3.5,3.3,3.9,6.9,4,8.3c0,0.1,0,0.1,0,0.2c0,0.1,0,0.1,0,0.1c0,0.1,0,0.2,0,0.2
			C338.7,579.2,334.1,579.4,329.9,575.4L329.9,575.4z M339.3,566.5c1.2,0,2.1,0.9,2.1,2c0,1.1-0.9,2-2.1,2c-1.2,0-2.1-0.9-2.1-2
			C337.2,567.4,338.1,566.5,339.3,566.5z M348.6,575.4c-4.2,4-8.8,3.8-9.3,3.8c0,0,0-0.1,0-0.2c0-0.1,0-0.2,0-0.3c0-1.4,0.5-5,4-8.3
			c4.2-4,8.8-3.8,9.3-3.8C352.6,567,352.8,571.4,348.6,575.4z M406.3,575.4c-4.2-4-4-8.3-4-8.8c0.5,0,5.1-0.2,9.3,3.8
			c3.5,3.3,3.9,6.9,4,8.3c0,0.1,0,0.1,0,0.2c0,0.1,0,0.1,0,0.1c0,0.1,0,0.2,0,0.2C415.1,579.2,410.5,579.4,406.3,575.4L406.3,575.4z
			 M415.7,566.5c1.2,0,2.1,0.9,2.1,2c0,1.1-0.9,2-2.1,2c-1.2,0-2.1-0.9-2.1-2C413.6,567.4,414.5,566.5,415.7,566.5z M425,575.4
			c-4.2,4-8.8,3.8-9.3,3.8c0,0,0-0.1,0-0.2c0-0.1,0-0.2,0-0.3c0-1.4,0.5-5,4-8.3c4.2-4,8.8-3.8,9.3-3.8
			C428.9,567,429.1,571.4,425,575.4z M482.7,575.4c-4.2-4-4-8.3-4-8.8c0.5,0,5.1-0.2,9.3,3.8c3.5,3.3,3.9,6.9,4,8.3
			c0,0.1,0,0.1,0,0.2c0,0.1,0,0.1,0,0.1c0,0.1,0,0.2,0,0.2C491.5,579.1,486.9,579.3,482.7,575.4L482.7,575.4z M492,566.5
			c1.2,0,2.1,0.9,2.1,2c0,1.1-0.9,2-2.1,2c-1.2,0-2.1-0.9-2.1-2C490,567.4,490.9,566.5,492,566.5z M501.4,575.4
			c-4.2,4-8.8,3.8-9.3,3.8c0,0,0-0.1,0-0.2c0-0.1,0-0.2,0-0.3c0-1.4,0.5-5,4-8.3c4.2-4,8.8-3.8,9.3-3.8
			C505.3,567,505.5,571.4,501.4,575.4L501.4,575.4z M559.1,575.4c-4.2-4-4-8.3-3.9-8.8c0.5,0,5.1-0.2,9.3,3.8c3.5,3.3,3.9,6.9,4,8.3
			c0,0.1,0,0.1,0,0.2c0,0.1,0,0.1,0,0.2c0,0.1,0,0.2,0,0.2C567.9,579.1,563.3,579.3,559.1,575.4L559.1,575.4z M568.4,566.5
			c1.2,0,2.1,0.9,2.1,2c0,1.1-0.9,2-2.1,2c-1.2,0-2.1-0.9-2.1-2C566.4,567.4,567.3,566.5,568.4,566.5z M577.8,575.4
			c-4.2,4-8.8,3.8-9.3,3.8c0,0,0-0.1,0-0.2c0-0.1,0-0.2,0-0.3c0-1.4,0.5-5,4-8.3c4.2-4,8.8-3.8,9.3-3.8
			C581.7,567,581.9,571.4,577.8,575.4L577.8,575.4z M635.5,575.4c-4.2-4-4-8.3-3.9-8.8c0.5,0,5.1-0.2,9.3,3.8c3.5,3.3,3.9,6.9,4,8.3
			c0,0.1,0,0.2,0,0.3c0,0.1,0,0.2,0,0.2C644.3,579.2,639.7,579.3,635.5,575.4z M644.8,566.5c1.2,0,2.1,0.9,2.1,2c0,1.1-0.9,2-2.1,2
			c-1.2,0-2.1-0.9-2.1-2C642.8,567.4,643.7,566.5,644.8,566.5z M654.1,575.4c-4.2,4-8.8,3.8-9.3,3.8c0,0,0-0.1,0-0.2
			c0-0.1,0-0.2,0-0.3c0-1.3,0.4-5,4-8.3c4.2-4,8.8-3.8,9.3-3.8C658.1,567,658.3,571.4,654.1,575.4z M711.9,575.4c-4.2-4-4-8.3-4-8.8
			c0.5,0,5.1-0.2,9.3,3.8c3.5,3.3,3.9,6.9,4,8.3c0,0.1,0,0.1,0,0.2c0,0.1,0,0.1,0,0.1c0,0.1,0,0.2,0,0.2
			C720.7,579.2,716.1,579.4,711.9,575.4L711.9,575.4z M721.2,566.5c1.2,0,2.1,0.9,2.1,2c0,1.1-0.9,2-2.1,2c-1.2,0-2.1-0.9-2.1-2
			C719.1,567.4,720.1,566.5,721.2,566.5z M730.5,575.4c-4.2,4-8.8,3.8-9.3,3.8c0,0,0-0.1,0-0.2c0-0.1,0-0.2,0-0.3c0-1.3,0.5-5,4-8.3
			c4.2-4,8.8-3.8,9.3-3.8C734.5,567,734.7,571.4,730.5,575.4z M806.1,570c-0.5,0-4.8,0.2-8.8-3.8c-3.3-3.3-3.7-6.9-3.8-8.3
			c0-0.1,0-0.2,0-0.3c0-0.1,0-0.2,0-0.2c0,0,0.1,0,0.2,0c0.1,0,0.2,0,0.3,0c1.4,0,5,0.4,8.3,3.8C806.4,565.1,806.2,569.5,806.1,570z
			 M806.2,557.3c0,1.1-0.9,2-2,2c-1.1,0-2-0.9-2-2c0-1.1,0.9-2,2-2C805.3,555.3,806.2,556.2,806.2,557.3z M806.1,544.7
			c0,0.5,0.2,4.8-3.8,8.8c-3.3,3.3-6.9,3.7-8.3,3.8c-0.1,0-0.2,0-0.3,0c-0.1,0-0.2,0-0.2,0c0,0,0-0.1,0-0.2c0-0.1,0-0.2,0-0.3
			c0-1.4,0.4-5,3.8-8.3C801.3,544.5,805.7,544.7,806.1,544.7z M772.1,536c0,0.5,0.2,4.8-3.8,8.8c-3.3,3.3-6.9,3.8-8.3,3.8
			c-0.1,0-0.2,0-0.3,0c-0.1,0-0.2,0-0.2,0c0-0.5-0.2-4.8,3.8-8.8C767.3,535.8,771.7,535.9,772.1,536L772.1,536z M50.2,532.1
			c-3.3-3.3-3.7-7-3.8-8.3c0-0.1,0-0.2,0-0.3c0-0.1,0-0.2,0-0.2c0,0,0.1,0,0.2,0v-0.1h-0.5v0.1c0.1,0,0.2,0,0.2,0c0,0,0,0.1,0,0.2
			c0,0.1,0,0.2,0,0.3c0,1.3-0.4,5-3.8,8.3c-4,4-8.3,3.8-8.8,3.8c0-0.5-0.2-4.8,3.8-8.8c3.5-3.5,7.3-3.8,8.4-3.8v-0.1h-0.4v0h0
			c-1.7-0.1-5-0.7-8-3.7c-4-4-3.8-8.3-3.8-8.8c0.5,0,4.8-0.2,8.8,3.8c3.1,3,3.7,6.3,3.8,8v0h0h0h0.1v0c0.1-1.7,0.7-4.9,3.8-8
			c4-4,8.3-3.8,8.8-3.8c0,0.5,0.2,4.8-3.8,8.8c-3.1,3-6.3,3.6-8,3.7h0v0h-0.4v0.1c1.1,0,5,0.3,8.4,3.8c4,4,3.8,8.3,3.8,8.8
			C58.6,535.9,54.2,536.1,50.2,532.1L50.2,532.1z M46.4,535.9c-1.1,0-2-0.9-2-2c0-1.1,0.9-2,2-2s2,0.9,2,2
			C48.4,535,47.5,535.9,46.4,535.9z M46.4,510.7c1.1,0,2,0.9,2,2c0,1.1-0.9,2-2,2s-2-0.9-2-2C44.4,511.6,45.3,510.7,46.4,510.7z
			 M797.5,523.2L797.5,523.2c0,1.1-0.9,2-2,2c-1.1,0-2-0.9-2-1.9v0c0-1.1,0.9-2,2-2C796.6,521.3,797.5,522.2,797.5,523.2z
			 M781.1,514.4c3.1,3,3.7,6.3,3.8,8v0h0h0h0.1v0c0.1-1.7,0.7-4.9,3.8-8c4-4,8.3-3.8,8.8-3.7c0,0.5,0.2,4.8-3.8,8.8
			c-3,3-6.3,3.6-8,3.7h-0.4v0.1c1.4,0,5,0.4,8.4,3.8c4,4,3.8,8.3,3.8,8.8c-0.5,0-4.8,0.2-8.8-3.8c-3.3-3.3-3.7-6.9-3.8-8.3
			c0-0.1,0-0.2,0-0.3c0-0.1,0-0.2,0-0.2c0,0,0.1,0,0.2,0v-0.1h-0.5v0.1c0.1,0,0.2,0,0.2,0c0,0,0,0.1,0,0.2c0,0.1,0,0.2,0,0.3
			c0,1.4-0.4,5-3.8,8.3c-4,4-8.3,3.8-8.8,3.8c0-0.5-0.2-4.8,3.8-8.8c3.4-3.4,7-3.8,8.4-3.8v-0.1H784c-1.7-0.1-4.9-0.7-8-3.7
			c-4-4-3.8-8.3-3.8-8.8C772.7,510.7,777.1,510.5,781.1,514.4L781.1,514.4z M784.9,510.7c1.1,0,2,0.9,2,2c0,1.1-0.9,2-2,2
			c-1.1,0-2-0.9-2-2C782.9,511.6,783.8,510.7,784.9,510.7z M784.9,535.9c-1.1,0-2-0.9-2-2c0-1.1,0.9-2,2-2c1.1,0,2,0.9,2,2
			C786.9,535,786,535.9,784.9,535.9z M811.5,495.9c-4,4-8.3,3.8-8.8,3.7c0-0.5-0.2-4.8,3.8-8.8c3.3-3.3,7-3.7,8.3-3.8
			c0.1,0,0.2,0,0.3,0c0.1,0,0.2,0,0.2,0C815.3,487.6,815.5,491.9,811.5,495.9z M802.7,487c0-1.1,0.9-2,2-2c1.1,0,2,0.9,2,2
			c0,1.1-0.9,2-2,2C803.6,489,802.7,488.1,802.7,487z M795.5,489c-1.1,0-2-0.9-2-2c0-1.1,0.9-2,2-2c1.1,0,2,0.9,2,2
			C797.5,488.1,796.6,489,795.5,489z M828,487c0,1.1-0.9,2-2,2s-2-0.9-2-2c0-1.1,0.9-2,2-2S828,486,828,487z M811.5,478.2
			c4,4,3.8,8.3,3.8,8.8c0,0-0.1,0-0.2,0c-0.1,0-0.2,0-0.3,0c-1.4,0-5-0.4-8.3-3.8c-4-4-3.8-8.3-3.8-8.8
			C803.2,474.4,807.6,474.3,811.5,478.2L811.5,478.2z M781.1,478.2c3.1,3,3.7,6.3,3.8,8v0h0h0h0.1v0c0.1-1.7,0.7-4.9,3.8-8
			c4-4,8.3-3.8,8.8-3.8c0,0.5,0.2,4.8-3.8,8.8c-3.1,3-6.3,3.7-8,3.7h0v0c0,0,0,0,0,0v0.1h0c1.7,0.1,5,0.7,8,3.7c4,4,3.8,8.3,3.8,8.8
			c-0.5,0-4.8,0.2-8.8-3.8c-3.1-3-3.7-6.3-3.8-8v0h0h0h-0.1v0c-0.1,1.7-0.7,4.9-3.8,8c-4,4-8.3,3.8-8.8,3.8c0-0.5-0.2-4.8,3.8-8.8
			c3.1-3,6.3-3.7,8-3.7h0v0v0V487h0c-1.7-0.1-5-0.7-8-3.7c-4-4-3.8-8.3-3.8-8.8C772.7,474.4,777.1,474.3,781.1,478.2L781.1,478.2z
			 M784.9,474.5c1.1,0,2,0.9,2,2c0,1.1-0.9,2-2,2c-1.1,0-2-0.9-2-2C782.9,475.4,783.8,474.5,784.9,474.5z M784.9,499.6
			c-1.1,0-2-0.9-2-2c0-1.1,0.9-2,2-2c1.1,0,2,0.9,2,2C786.9,498.7,786,499.6,784.9,499.6z M797.5,450.8L797.5,450.8c0,1.1-0.9,2-2,2
			c-1.1,0-2-0.9-2-2v0c0-1.1,0.9-1.9,2-1.9C796.6,448.9,797.5,449.7,797.5,450.8z M781.1,442c3.1,3,3.7,6.3,3.8,8v0h0h0h0.1v0
			c0.1-1.7,0.7-4.9,3.8-8c4-4,8.3-3.8,8.8-3.8c0,0.5,0.2,4.8-3.8,8.8c-3.1,3-6.3,3.6-8,3.7h0v0.1l0,0h0v0c1.7,0.1,5,0.7,8,3.7
			c4,4,3.8,8.3,3.8,8.8c-0.5,0-4.8,0.2-8.8-3.8c-3.1-3-3.7-6.3-3.8-8v0h0h0h-0.1v0c-0.1,1.7-0.7,4.9-3.8,8c-4,4-8.3,3.8-8.8,3.8
			c0-0.5-0.2-4.8,3.8-8.8c3.1-3,6.3-3.7,8-3.7h0v-0.1h0c-1.7-0.1-5-0.7-8-3.7c-4-4-3.8-8.3-3.8-8.8C772.7,438.2,777.1,438,781.1,442
			z M784.9,438.3c1.1,0,2,0.9,2,2c0,1.1-0.9,2-2,2c-1.1,0-2-0.9-2-2C782.9,439.1,783.8,438.3,784.9,438.3z M784.9,463.4
			c-1.1,0-2-0.9-2-2c0-1.1,0.9-2,2-2c1.1,0,2,0.9,2,2C786.9,462.5,786,463.4,784.9,463.4z M811.5,423.4c-4,4-8.3,3.8-8.8,3.8
			c0-0.5-0.2-4.8,3.8-8.8c3.3-3.3,6.9-3.7,8.3-3.8c0.1,0,0.2,0,0.3,0c0.1,0,0.2,0,0.2,0C815.3,415.2,815.5,419.5,811.5,423.4z
			 M802.7,414.6c0-1.1,0.9-2,2-2c1.1,0,2,0.9,2,2c0,1.1-0.9,2-2,2C803.6,416.6,802.7,415.7,802.7,414.6z M795.5,416.6
			c-1.1,0-2-0.9-2-2c0-1.1,0.9-2,2-2c1.1,0,2,0.9,2,2C797.5,415.7,796.6,416.6,795.5,416.6z M828,414.6c0,1.1-0.9,2-2,2s-2-0.9-2-2
			c0-1.1,0.9-2,2-2S828,413.5,828,414.6z M811.5,405.8c4,4,3.8,8.3,3.8,8.8c0,0-0.1,0-0.2,0c-0.1,0-0.2,0-0.3,0
			c-1.4,0-5-0.4-8.3-3.8c-4-4-3.8-8.3-3.8-8.8C803.2,402,807.5,401.8,811.5,405.8z M781.1,405.8c3.1,3,3.7,6.3,3.8,8v0h0h0h0.1v0
			c0.1-1.7,0.7-4.9,3.8-8c4-4,8.3-3.8,8.8-3.7c0,0.5,0.2,4.8-3.8,8.8c-3.1,3-6.3,3.6-8,3.7h0v0c0,0,0,0,0,0v0.1h0
			c1.7,0.1,5,0.7,8,3.7c4,4,3.8,8.3,3.8,8.8c-0.5,0-4.8,0.2-8.8-3.7c-3.1-3-3.7-6.3-3.8-8v0h0h0h-0.1v0c-0.1,1.7-0.7,4.9-3.8,8
			c-4,4-8.3,3.8-8.8,3.7c0-0.5-0.2-4.8,3.8-8.8c3.1-3,6.3-3.7,8-3.7h0v0v0v-0.1h0c-1.7-0.1-5-0.7-8-3.7c-4-4-3.8-8.3-3.8-8.8
			C772.7,402,777.1,401.8,781.1,405.8L781.1,405.8z M784.9,402c1.1,0,2,0.9,2,2c0,1.1-0.9,2-2,2c-1.1,0-2-0.9-2-2
			C782.9,402.9,783.8,402,784.9,402z M784.9,427.2c-1.1,0-2-0.9-2-2c0-1.1,0.9-2,2-2c1.1,0,2,0.9,2,2
			C786.9,426.3,786,427.2,784.9,427.2z M797.5,378.4L797.5,378.4c0,1.1-0.9,2-2,2c-1.1,0-2-0.9-2-2v0c0-1.1,0.9-1.9,2-1.9
			C796.6,376.4,797.5,377.3,797.5,378.4z M781.1,369.6c3.1,3,3.7,6.3,3.8,8v0h0h0h0.1v0c0.1-1.7,0.7-4.9,3.8-8c4-4,8.3-3.8,8.8-3.7
			c0,0.5,0.2,4.8-3.8,8.8c-3.1,3-6.3,3.7-8,3.7h0v0.1l0,0h0v0c1.7,0.1,5,0.7,8,3.7c4,4,3.8,8.3,3.8,8.8c-0.5,0-4.8,0.2-8.8-3.7
			c-3.1-3-3.7-6.3-3.8-8v0h0h0h-0.1v0c-0.1,1.7-0.7,4.9-3.8,8c-4,4-8.3,3.8-8.8,3.7c0-0.5-0.2-4.8,3.8-8.8c3.1-3,6.3-3.6,8-3.7h0
			v-0.1h0c-1.7-0.1-5-0.7-8-3.7c-4-4-3.8-8.3-3.8-8.8C772.7,365.8,777.1,365.6,781.1,369.6z M784.9,365.8c1.1,0,2,0.9,2,2
			c0,1.1-0.9,2-2,2c-1.1,0-2-0.9-2-2C782.9,366.7,783.8,365.8,784.9,365.8z M784.9,391c-1.1,0-2-0.9-2-2c0-1.1,0.9-2,2-2
			c1.1,0,2,0.9,2,2C786.9,390.1,786,391,784.9,391z M811.5,351c-4,4-8.3,3.8-8.8,3.7c0-0.5-0.2-4.8,3.8-8.8c3.3-3.3,6.9-3.7,8.3-3.8
			c0.1,0,0.2,0,0.3,0c0.1,0,0.2,0,0.2,0C815.3,342.7,815.5,347.1,811.5,351z M802.7,342.2c0-1.1,0.9-2,2-2c1.1,0,2,0.9,2,2
			c0,1.1-0.9,2-2,2C803.6,344.2,802.7,343.3,802.7,342.2z M795.5,344.2c-1.1,0-2-0.9-2-2c0-1.1,0.9-2,2-2c1.1,0,2,0.9,2,2
			C797.5,343.3,796.6,344.2,795.5,344.2z M828,342.2c0,1.1-0.9,2-2,2s-2-0.9-2-2c0-1.1,0.9-2,2-2S828,341.1,828,342.2z M811.5,333.4
			c4,4,3.8,8.3,3.8,8.8c0,0-0.1,0-0.2,0c-0.1,0-0.2,0-0.3,0c-1.4,0-5-0.4-8.3-3.8c-4-4-3.8-8.3-3.8-8.8
			C803.2,329.6,807.5,329.4,811.5,333.4z M781.1,333.4c3.1,3,3.7,6.3,3.8,8v0h0h0h0.1v0c0.1-1.7,0.7-4.9,3.8-8c4-4,8.3-3.8,8.8-3.8
			c0,0.5,0.2,4.8-3.8,8.8c-3.1,3-6.3,3.7-8,3.7h0v0c0,0,0,0,0,0v0.1h0c1.7,0.1,5,0.7,8,3.7c4,4,3.8,8.3,3.8,8.8
			c-0.5,0-4.8,0.2-8.8-3.8c-3.1-3-3.7-6.3-3.8-8v0h0h0h-0.1v0c-0.1,1.7-0.7,4.9-3.8,8c-4,4-8.3,3.8-8.8,3.8c0-0.5-0.2-4.8,3.8-8.8
			c3.1-3,6.3-3.7,8-3.7h0v0v0v-0.1h0c-1.7-0.1-5-0.7-8-3.7c-4-4-3.8-8.3-3.8-8.8C772.7,329.6,777.1,329.4,781.1,333.4L781.1,333.4z
			 M784.9,329.6c1.1,0,2,0.9,2,2c0,1.1-0.9,2-2,2c-1.1,0-2-0.9-2-2C782.9,330.5,783.8,329.6,784.9,329.6z M784.9,354.8
			c-1.1,0-2-0.9-2-2c0-1.1,0.9-2,2-2c1.1,0,2,0.9,2,2C786.9,353.9,786,354.8,784.9,354.8z M797.5,306L797.5,306c0,1.1-0.9,2-2,2
			c-1.1,0-2-0.9-2-2v0c0-1.1,0.9-1.9,2-1.9C796.6,304,797.5,304.9,797.5,306z M781.1,297.2c3.1,3,3.7,6.3,3.8,8v0h0h0h0.1v0
			c0.1-1.7,0.7-4.9,3.8-8c4-4,8.3-3.8,8.8-3.8c0,0.5,0.2,4.8-3.8,8.8c-3.1,3-6.3,3.6-8,3.7h0v0.1l0,0h0v0c1.7,0.1,5,0.7,8,3.7
			c4,4,3.8,8.3,3.8,8.8c-0.5,0-4.8,0.2-8.8-3.8c-3.1-3-3.7-6.3-3.8-8v0h0h0h-0.1v0c-0.1,1.7-0.7,4.9-3.8,8c-4,4-8.3,3.8-8.8,3.8
			c0-0.5-0.2-4.8,3.8-8.8c3.1-3,6.3-3.7,8-3.7h0v-0.1h0c-1.7-0.1-5-0.7-8-3.7c-4-4-3.8-8.3-3.8-8.8
			C772.7,293.4,777.1,293.2,781.1,297.2z M784.9,293.4c1.1,0,2,0.9,2,2c0,1.1-0.9,2-2,2c-1.1,0-2-0.9-2-2
			C782.9,294.3,783.8,293.4,784.9,293.4z M784.9,318.6c-1.1,0-2-0.9-2-2c0-1.1,0.9-2,2-2c1.1,0,2,0.9,2,2
			C786.9,317.7,786,318.6,784.9,318.6z M811.5,278.6c-4,4-8.3,3.8-8.8,3.8c0-0.5-0.2-4.8,3.8-8.8c3.3-3.3,6.9-3.7,8.3-3.8
			c0.1,0,0.2,0,0.3,0c0.1,0,0.2,0,0.2,0C815.3,270.3,815.5,274.6,811.5,278.6z M802.7,269.8c0-1.1,0.9-2,2-2c1.1,0,2,0.9,2,2
			c0,1.1-0.9,2-2,2C803.6,271.8,802.7,270.9,802.7,269.8z M795.5,271.8c-1.1,0-2-0.9-2-2c0-1.1,0.9-2,2-2c1.1,0,2,0.9,2,2
			C797.5,270.9,796.6,271.8,795.5,271.8z M828,269.8c0,1.1-0.9,2-2,2s-2-0.9-2-2c0-1.1,0.9-2,2-2S828,268.7,828,269.8z M811.5,261
			c4,4,3.8,8.3,3.8,8.8c0,0-0.1,0-0.2,0c-0.1,0-0.2,0-0.3,0c-1.4,0-5-0.4-8.3-3.8c-4-4-3.8-8.3-3.8-8.8
			C803.2,257.2,807.5,257,811.5,261z M781.1,261c3.1,3,3.7,6.3,3.8,8v0h0h0h0.1v0c0.1-1.7,0.7-4.9,3.8-8c4-4,8.3-3.8,8.8-3.7
			c0,0.5,0.2,4.8-3.8,8.8c-3.1,3-6.3,3.6-8,3.7h0v0c0,0,0,0,0,0v0.1h0c1.7,0.1,5,0.7,8,3.7c4,4,3.8,8.3,3.8,8.8
			c-0.5,0-4.8,0.2-8.8-3.7c-3.1-3-3.7-6.3-3.8-8v0h0h0h-0.1v0c-0.1,1.7-0.7,4.9-3.8,8c-4,4-8.3,3.8-8.8,3.7c0-0.5-0.2-4.8,3.8-8.8
			c3.1-3,6.3-3.7,8-3.7h0v0v0v-0.1h0c-1.7-0.1-5-0.7-8-3.7c-4-4-3.8-8.3-3.8-8.8C772.7,257.2,777.1,257,781.1,261L781.1,261z
			 M784.9,257.2c1.1,0,2,0.9,2,2c0,1.1-0.9,2-2,2c-1.1,0-2-0.9-2-2C782.9,258.1,783.8,257.2,784.9,257.2z M784.9,282.4
			c-1.1,0-2-0.9-2-2c0-1.1,0.9-2,2-2c1.1,0,2,0.9,2,2C786.9,281.5,786,282.4,784.9,282.4z M797.5,233.5L797.5,233.5c0,1.1-0.9,2-2,2
			c-1.1,0-2-0.9-2-2v0c0-1.1,0.9-2,2-2C796.6,231.6,797.5,232.5,797.5,233.5z M781.1,224.7c3.1,3,3.7,6.3,3.8,8v0h0h0h0.1v0
			c0.1-1.7,0.7-4.9,3.8-8c4-4,8.3-3.8,8.8-3.7c0,0.5,0.2,4.8-3.8,8.8c-3.1,3-6.3,3.7-8,3.7h0v0.1l0,0h0v0c1.7,0.1,5,0.7,8,3.7
			c4,4,3.8,8.3,3.8,8.8c-0.5,0-4.8,0.2-8.8-3.7c-3.1-3-3.7-6.3-3.8-8v0h0h0h-0.1v0c-0.1,1.7-0.7,4.9-3.8,8c-4,4-8.3,3.8-8.8,3.7
			c0-0.5-0.2-4.8,3.8-8.8c3.1-3,6.3-3.6,8-3.7h0v-0.1h0c-1.7-0.1-5-0.7-8-3.7c-4-4-3.8-8.3-3.8-8.8
			C772.7,221,777.1,220.8,781.1,224.7z M784.9,221c1.1,0,2,0.9,2,2c0,1.1-0.9,2-2,2c-1.1,0-2-0.9-2-2
			C782.9,221.9,783.8,221,784.9,221z M784.9,246.2c-1.1,0-2-0.9-2-2c0-1.1,0.9-2,2-2c1.1,0,2,0.9,2,2
			C786.9,245.3,786,246.2,784.9,246.2z M811.5,206.2c-4,4-8.3,3.8-8.8,3.7c0-0.5-0.2-4.8,3.8-8.8c3.3-3.3,6.9-3.7,8.3-3.8
			c0.1,0,0.2,0,0.3,0c0.1,0,0.2,0,0.2,0C815.3,197.9,815.5,202.2,811.5,206.2z M802.7,197.4c0-1.1,0.9-2,2-2c1.1,0,2,0.9,2,2
			c0,1.1-0.9,2-2,2C803.6,199.3,802.7,198.4,802.7,197.4z M795.5,199.3c-1.1,0-2-0.9-2-2c0-1.1,0.9-2,2-2c1.1,0,2,0.9,2,2
			C797.5,198.5,796.6,199.3,795.5,199.3z M828,197.4c0,1.1-0.9,2-2,2s-2-0.9-2-2c0-1.1,0.9-2,2-2S828,196.3,828,197.4z M811.5,188.5
			c4,4,3.8,8.3,3.8,8.8c0,0-0.1,0-0.2,0c-0.1,0-0.2,0-0.3,0c-1.4,0-5-0.4-8.3-3.8c-4-4-3.8-8.3-3.8-8.8
			C803.2,184.8,807.5,184.6,811.5,188.5z M781.1,188.5c3.1,3,3.7,6.3,3.8,8v0h0h0h0.1v0c0.1-1.7,0.7-4.9,3.8-8c4-4,8.3-3.8,8.8-3.8
			c0,0.5,0.2,4.8-3.8,8.8c-3.1,3-6.3,3.7-8,3.7h0v0c0,0,0,0,0,0v0.1h0c1.7,0.1,5,0.7,8,3.7c4,4,3.8,8.3,3.8,8.8
			c-0.5,0-4.8,0.2-8.8-3.8c-3.1-3-3.7-6.3-3.8-8v0h0h0h-0.1v0c-0.1,1.7-0.7,4.9-3.8,8c-4,4-8.3,3.8-8.8,3.8c0-0.5-0.2-4.8,3.8-8.8
			c3.1-3,6.3-3.7,8-3.7h0v0v0v-0.1h0c-1.7-0.1-5-0.7-8-3.7c-4-4-3.8-8.3-3.8-8.8C772.7,184.8,777.1,184.6,781.1,188.5L781.1,188.5z
			 M784.9,184.8c1.1,0,2,0.9,2,2c0,1.1-0.9,2-2,2c-1.1,0-2-0.9-2-2C782.9,185.7,783.8,184.8,784.9,184.8z M784.9,209.9
			c-1.1,0-2-0.9-2-2c0-1.1,0.9-2,2-2c1.1,0,2,0.9,2,2C786.9,209.1,786,209.9,784.9,209.9z M797.5,161.1L797.5,161.1c0,1.1-0.9,2-2,2
			c-1.1,0-2-0.9-2-2v0c0-1.1,0.9-1.9,2-1.9C796.6,159.2,797.5,160,797.5,161.1z M781.1,152.3c3.1,3,3.7,6.3,3.8,8v0h0h0h0.1v0
			c0.1-1.7,0.7-4.9,3.8-8c4-4,8.3-3.8,8.8-3.7c0,0.5,0.2,4.8-3.8,8.8c-3.1,3-6.3,3.6-8,3.7h0v0.1l0,0h0v0c1.7,0.1,5,0.7,8,3.7
			c4,4,3.8,8.3,3.8,8.8c-0.5,0-4.8,0.2-8.8-3.7c-3.1-3-3.7-6.3-3.8-8v0h0h0h-0.1v0c-0.1,1.7-0.7,4.9-3.8,8c-4,4-8.3,3.8-8.8,3.7
			c0-0.5-0.2-4.8,3.8-8.8c3.1-3,6.3-3.7,8-3.7h0v-0.1h0c-1.7-0.1-5-0.7-8-3.7c-4-4-3.8-8.3-3.8-8.8
			C772.7,148.5,777.1,148.4,781.1,152.3z M784.9,148.6c1.1,0,2,0.9,2,2c0,1.1-0.9,2-2,2c-1.1,0-2-0.9-2-2
			C782.9,149.5,783.8,148.6,784.9,148.6z M784.9,173.7c-1.1,0-2-0.9-2-2c0-1.1,0.9-2,2-2c1.1,0,2,0.9,2,2
			C786.9,172.8,786,173.7,784.9,173.7z M811.5,133.8c-4,4-8.3,3.8-8.8,3.7c0-0.5-0.2-4.8,3.8-8.8c3.3-3.3,6.9-3.7,8.3-3.8
			c0.1,0,0.2,0,0.3,0c0.1,0,0.2,0,0.2,0C815.3,125.5,815.5,129.8,811.5,133.8z M802.7,124.9c0-1.1,0.9-2,2-2c1.1,0,2,0.9,2,2
			c0,1.1-0.9,2-2,2C803.6,126.9,802.7,126,802.7,124.9z M795.5,126.9c-1.1,0-2-0.9-2-2c0-1.1,0.9-2,2-2c1.1,0,2,0.9,2,2
			C797.5,126,796.6,126.9,795.5,126.9z M828,124.9c0,1.1-0.9,2-2,2s-2-0.9-2-2c0-1.1,0.9-2,2-2S828,123.9,828,124.9z M811.5,116.1
			c4,4,3.8,8.3,3.8,8.8c0,0-0.1,0-0.2,0c-0.1,0-0.2,0-0.3,0c-1.4,0-5-0.4-8.3-3.8c-4-4-3.8-8.3-3.8-8.8
			C803.2,112.3,807.5,112.2,811.5,116.1z M781.1,116.1c3.1,3,3.7,6.3,3.8,8v0h0h0h0.1v0c0.1-1.7,0.7-4.9,3.8-8c4-4,8.3-3.8,8.8-3.7
			c0,0.5,0.2,4.8-3.8,8.8c-3.1,3-6.3,3.7-8,3.7h0v0c0,0,0,0,0,0v0.1h0c1.7,0.1,5,0.7,8,3.7c4,4,3.8,8.3,3.8,8.8
			c-0.5,0-4.8,0.2-8.8-3.7c-3.1-3-3.7-6.3-3.8-8v0h0h0h-0.1v0c-0.1,1.7-0.7,4.9-3.8,8c-4,4-8.3,3.8-8.8,3.7c0-0.5-0.2-4.8,3.8-8.8
			c3.1-3,6.3-3.6,8-3.7h0v0v0v-0.1h0c-1.7-0.1-5-0.7-8-3.7c-4-4-3.8-8.3-3.8-8.8C772.7,112.3,777.1,112.1,781.1,116.1L781.1,116.1z
			 M784.9,112.4c1.1,0,2,0.9,2,2c0,1.1-0.9,2-2,2c-1.1,0-2-0.9-2-2C782.9,113.2,783.8,112.4,784.9,112.4z M784.9,137.5
			c-1.1,0-2-0.9-2-2c0-1.1,0.9-2,2-2c1.1,0,2,0.9,2,2C786.9,136.6,786,137.5,784.9,137.5z M797.5,88.7L797.5,88.7c0,1.1-0.9,2-2,2
			c-1.1,0-2-0.9-2-2v0c0-1.1,0.9-2,2-2C796.6,86.7,797.5,87.6,797.5,88.7L797.5,88.7z M781.1,79.8c3.3,3.3,3.7,7,3.8,8.3
			c0,0.1,0,0.2,0,0.3c0,0.1,0,0.2,0,0.2c0,0-0.1,0-0.2,0v0.1h0.5v0v0c-0.1,0-0.2,0-0.2,0c0,0,0-0.1,0-0.2c0-0.1,0-0.2,0-0.3
			c0-1.3,0.4-5,3.8-8.3c4-4,8.3-3.8,8.8-3.8c0,0.5,0.2,4.8-3.8,8.8c-3.5,3.5-7.3,3.8-8.4,3.8v0.1h0.4v0c1.7,0.1,5,0.7,8,3.7
			c4,4,3.8,8.3,3.8,8.8c-0.5,0-4.8,0.2-8.8-3.7c-3.1-3-3.7-6.3-3.8-8v0h0h0h-0.1v0c-0.1,1.7-0.7,4.9-3.8,8c-4,4-8.3,3.8-8.8,3.7
			c0-0.5-0.2-4.8,3.8-8.8c3.1-3,6.3-3.6,8-3.7h0v0h0.4v-0.1c-1.1,0-4.9-0.3-8.4-3.8c-4-4-3.8-8.3-3.8-8.8
			C772.7,76,777.1,75.9,781.1,79.8z M784.9,76.1c1.1,0,2,0.9,2,2s-0.9,2-2,2c-1.1,0-2-0.9-2-2S783.8,76.1,784.9,76.1z M784.9,101.3
			c-1.1,0-2-0.9-2-2c0-1.1,0.9-2,2-2c1.1,0,2,0.9,2,2C786.9,100.4,786,101.3,784.9,101.3z M59.2,76c0-0.5-0.2-4.8,3.8-8.8
			c3.3-3.3,6.9-3.7,8.3-3.8c0.1,0,0.2,0,0.3,0c0.1,0,0.2,0,0.2,0c0,0.1,0,0.2,0,0.3c0,0,0,0,0,0.1c0,1.2-0.3,5-3.8,8.4
			C64,76.2,59.6,76,59.2,76L59.2,76z M71.8,76C71.8,76,71.8,76,71.8,76c-1.1,0-2-0.9-2-2c0-1.1,0.9-2,2-2c0,0,0,0,0,0c0,0,0,0,0,0h0
			v-0.1c1.1,0,2,0.9,2,2s-0.9,2-2.1,2h0L71.8,76C71.8,76,71.8,76,71.8,76L71.8,76z M772.1,76c-0.5,0-4.8,0.2-8.8-3.8
			c-4-4-3.8-8.3-3.8-8.8c0,0,0.1,0,0.2,0c0.1,0,0.2,0,0.3,0c1.4,0,5,0.4,8.3,3.8C772.4,71.1,772.2,75.5,772.1,76z M802.4,58.4
			c4,4,3.8,8.3,3.8,8.8c-0.5,0-4.8,0.2-8.8-3.8c-3.3-3.3-3.7-6.9-3.8-8.3c0-0.1,0-0.2,0-0.3c0-0.1,0-0.2,0-0.2c0,0,0.1,0,0.2,0
			c0.1,0,0.2,0,0.3,0C795.4,54.7,799,55.1,802.4,58.4z M806.2,54.6c0,1.1-0.9,2-2,2c-1.1,0-2-0.9-2-2c0-1.1,0.9-2,2-2
			C805.3,52.6,806.2,53.5,806.2,54.6z M806.1,42c0,0.5,0.2,4.8-3.8,8.8c-3.3,3.3-7,3.8-8.3,3.8c-0.1,0-0.2,0-0.3,0
			c-0.1,0-0.2,0-0.2,0c0,0,0-0.1,0-0.2c0-0.1,0-0.2,0-0.3c0-1.4,0.4-5,3.8-8.3C801.3,41.8,805.7,42,806.1,42z M793.5,46
			c-1.1,0-2-0.9-2-2c0-1.1,0.9-2,2-2s2,0.9,2,2C795.5,45.1,794.6,46,793.5,46z M789.7,45.7c3.3,3.3,3.7,6.9,3.8,8.3
			c0,0.1,0,0.1,0,0.2c0,0.1,0,0.1,0,0.1c0,0.1,0,0.2,0,0.2c0,0-0.1,0-0.2,0c-0.1,0-0.2,0-0.3,0c-1.3,0-5-0.4-8.3-3.8
			c-4-4-3.8-8.3-3.8-8.8C781.4,42,785.7,41.8,789.7,45.7L789.7,45.7z M730.5,36.6c4.2,4,4,8.3,3.9,8.8c-0.5,0-5.1,0.2-9.3-3.8
			c-3.5-3.3-3.9-6.9-4-8.3c0-0.1,0-0.2,0-0.3c0-0.1,0-0.2,0-0.2C721.8,32.8,726.4,32.6,730.5,36.6z M721.2,45.5
			c-1.2,0-2.1-0.9-2.1-2c0-1.1,0.9-2,2.1-2c1.2,0,2.1,0.9,2.1,2C723.3,44.6,722.4,45.5,721.2,45.5z M711.9,36.6
			c4.2-4,8.8-3.8,9.3-3.8c0,0,0,0.1,0,0.2c0,0.1,0,0.2,0,0.3c0,1.4-0.4,5-4,8.3c-4.2,4-8.8,3.8-9.3,3.8
			C707.9,45,707.7,40.6,711.9,36.6z M654.1,36.6c4.2,4,4,8.3,3.9,8.8c-0.5,0-5.1,0.2-9.3-3.8c-3.5-3.3-3.9-6.9-4-8.3
			c0-0.1,0-0.2,0-0.3c0-0.1,0-0.2,0-0.2C645.4,32.8,650,32.6,654.1,36.6z M644.8,45.5c-1.2,0-2.1-0.9-2.1-2c0-1.1,0.9-2,2.1-2
			c1.2,0,2.1,0.9,2.1,2C646.9,44.6,646,45.5,644.8,45.5z M635.5,36.6c4.2-4,8.8-3.8,9.3-3.8c0,0,0,0.1,0,0.2c0,0,0,0.1,0,0.1
			c0,0,0,0.1,0,0.1c0,1.4-0.5,5-4,8.3c-4.2,4-8.8,3.8-9.3,3.8C631.5,45,631.3,40.6,635.5,36.6L635.5,36.6z M577.8,36.6
			c4.2,4,4,8.3,4,8.8c-0.5,0-5.1,0.2-9.3-3.8c-3.5-3.3-3.9-6.9-4-8.3c0-0.1,0-0.2,0-0.3c0-0.1,0-0.2,0-0.2
			C569,32.8,573.6,32.7,577.8,36.6L577.8,36.6z M568.4,45.5c-1.2,0-2.1-0.9-2.1-2c0-1.1,0.9-2,2.1-2c1.2,0,2.1,0.9,2.1,2
			C570.5,44.6,569.6,45.5,568.4,45.5z M559.1,36.6c4.2-4,8.8-3.8,9.3-3.8c0,0,0,0.1,0,0.2c0,0.1,0,0.2,0,0.3c0,1.4-0.5,5-4,8.3
			c-4.2,4-8.8,3.8-9.3,3.8C555.1,45,555,40.6,559.1,36.6z M501.4,36.6c4.2,4,4,8.3,4,8.8c-0.5,0-5.1,0.2-9.3-3.8
			c-3.5-3.3-3.9-6.9-4-8.3c0-0.1,0-0.2,0-0.3c0-0.1,0-0.2,0-0.2C492.6,32.8,497.2,32.7,501.4,36.6L501.4,36.6z M492,45.5
			c-1.2,0-2.1-0.9-2.1-2c0-1.1,0.9-2,2.1-2c1.2,0,2.1,0.9,2.1,2C494.1,44.6,493.2,45.5,492,45.5z M482.7,36.6c4.2-4,8.8-3.8,9.3-3.8
			c0,0,0,0.1,0,0.2c0,0.1,0,0.2,0,0.3c0,1.4-0.5,5-4,8.3c-4.2,4-8.8,3.8-9.3,3.8C478.8,45,478.6,40.6,482.7,36.6z M425,36.6
			c4.2,4,4,8.3,3.9,8.8c-0.5,0-5.1,0.2-9.3-3.8c-3.5-3.3-3.9-6.9-4-8.3c0-0.1,0-0.2,0-0.3c0-0.1,0-0.2,0-0.2
			C416.2,32.8,420.8,32.6,425,36.6z M415.7,45.5c-1.2,0-2.1-0.9-2.1-2c0-1.1,0.9-2,2.1-2c1.2,0,2.1,0.9,2.1,2
			C417.7,44.6,416.8,45.5,415.7,45.5z M406.3,36.6c4.2-4,8.8-3.8,9.3-3.8c0,0,0,0.1,0,0.2c0,0.1,0,0.2,0,0.3c0,1.4-0.5,5-4,8.3
			c-4.2,4-8.8,3.8-9.3,3.8C402.4,45,402.2,40.6,406.3,36.6z M348.6,36.6c4.2,4,4,8.3,3.9,8.8c-0.5,0-5.1,0.2-9.3-3.8
			c-3.5-3.3-3.9-7-4-8.3c0-0.1,0-0.2,0-0.3c0-0.1,0-0.2,0-0.2C339.8,32.8,344.4,32.6,348.6,36.6z M339.3,45.5c-1.2,0-2.1-0.9-2.1-2
			c0-1.1,0.9-2,2.1-2c1.2,0,2.1,0.9,2.1,2C341.3,44.6,340.4,45.5,339.3,45.5z M329.9,36.6c4.2-4,8.8-3.8,9.3-3.8c0,0,0,0.1,0,0.2
			c0,0.1,0,0.2,0,0.3c0,1.3-0.4,5-4,8.3c-4.2,4-8.8,3.8-9.3,3.8C326,45,325.8,40.6,329.9,36.6L329.9,36.6z M272.2,36.6
			c4.2,4,4,8.3,3.9,8.8c-0.5,0-5.1,0.2-9.3-3.8c-3.5-3.3-3.9-6.9-4-8.3c0-0.1,0-0.2,0-0.3c0-0.1,0-0.2,0-0.2
			C263.4,32.8,268,32.6,272.2,36.6z M262.9,45.5c-1.2,0-2.1-0.9-2.1-2c0-1.1,0.9-2,2.1-2c1.2,0,2.1,0.9,2.1,2
			C265,44.6,264,45.5,262.9,45.5z M253.6,36.6c4.2-4,8.8-3.8,9.3-3.8c0,0,0,0.1,0,0.2c0,0,0,0.1,0,0.1c0,0,0,0.1,0,0.1
			c0,1.4-0.5,5-4,8.3c-4.2,4-8.8,3.8-9.3,3.8C249.6,45,249.4,40.6,253.6,36.6z M195.8,36.6c4.2,4,4,8.3,3.9,8.8
			c-0.5,0-5.1,0.2-9.3-3.8c-3.5-3.3-3.9-6.9-4-8.3c0-0.1,0-0.2,0-0.3c0-0.1,0-0.2,0-0.2C187,32.8,191.6,32.6,195.8,36.6z
			 M186.5,45.5c-1.2,0-2.1-0.9-2.1-2c0-1.1,0.9-2,2.1-2c1.2,0,2.1,0.9,2.1,2C188.6,44.6,187.6,45.5,186.5,45.5z M186.4,32.9
			c0,0,0,0.1,0,0.2c0,0.1,0,0.2,0,0.3c0,1.4-0.5,5-4,8.3c-4.2,4-8.8,3.8-9.3,3.8c0-0.5-0.2-4.8,3.9-8.8
			C181.3,32.6,185.9,32.8,186.4,32.9z M188.6,22.2c0,1.1-0.9,2-2.1,2s-2.1-0.9-2.1-2c0-1.1,0.9-2,2.1-2S188.6,21.1,188.6,22.2z"/>
	</g>
</g>
</svg>
