<?xml version="1.0" encoding="utf-8"?>
<!-- Generator: Adobe Illustrator 24.1.2, SVG Export Plug-In . SVG Version: 6.00 Build 0)  -->
<svg version="1.1" id="Layer_1" xmlns="http://www.w3.org/2000/svg" xmlns:xlink="http://www.w3.org/1999/xlink" x="0px" y="0px"
	 viewBox="0 0 80 78" style="enable-background:new 0 0 80 78;" xml:space="preserve">
<style type="text/css">
	.st0{clip-path:url(#SVGID_2_);}
	.st1{clip-path:url(#SVGID_4_);}
	.st2{clip-path:url(#SVGID_6_);}
	.st3{clip-path:url(#SVGID_8_);}
	.st4{clip-path:url(#SVGID_10_);}
	.st5{clip-path:url(#SVGID_12_);}
	.st6{clip-path:url(#SVGID_14_);}
	.st7{fill:#574D51;}
</style>
<g>
	<defs>
		<rect id="SVGID_1_" width="80" height="78.7"/>
	</defs>
	<clipPath id="SVGID_2_">
		<use xlink:href="#SVGID_1_"  style="overflow:visible;"/>
	</clipPath>
	<g class="st0">
		<g>
			<defs>
				
					<rect id="SVGID_3_" x="-3.6" y="-4.7" transform="matrix(0.7618 -0.6478 0.6478 0.7618 -12.8962 31.3517)" width="79.6" height="75.7"/>
			</defs>
			<clipPath id="SVGID_4_">
				<use xlink:href="#SVGID_3_"  style="overflow:visible;"/>
			</clipPath>
			<g class="st1">
				<g>
					<defs>
						<polygon id="SVGID_5_" points="11.6,4.4 37.5,20.4 60.6,0.7 53.5,30.2 79.4,46.2 49.1,48.5 42,78 30.4,49.9 0.1,52.2 
							23.2,32.5 						"/>
					</defs>
					<clipPath id="SVGID_6_">
						<use xlink:href="#SVGID_5_"  style="overflow:visible;"/>
					</clipPath>
					<g class="st2">
						<g transform="matrix(1, 0, 0, 1, 377, 16)">
							<g>
								<defs>
									<rect id="SVGID_7_" x="-377" y="-16" width="80" height="78.7"/>
								</defs>
								<clipPath id="SVGID_8_">
									<use xlink:href="#SVGID_7_"  style="overflow:visible;"/>
								</clipPath>
								<g class="st3">
									<g>
										<defs>
											<rect id="SVGID_9_" x="-377" y="-15.4" width="79.6" height="77.7"/>
										</defs>
										<clipPath id="SVGID_10_">
											<use xlink:href="#SVGID_9_"  style="overflow:visible;"/>
										</clipPath>
										<g class="st4">
											<g>
												<defs>
													
														<rect id="SVGID_11_" x="-380.6" y="-20.7" transform="matrix(0.7618 -0.6478 0.6478 0.7618 -92.3209 -216.6697)" width="79.6" height="75.7"/>
												</defs>
												<clipPath id="SVGID_12_">
													<use xlink:href="#SVGID_11_"  style="overflow:visible;"/>
												</clipPath>
												<g class="st5">
													<g>
														<defs>
															<polygon id="SVGID_13_" points="-365.4,-11.6 -339.5,4.4 -316.4,-15.3 -323.5,14.2 -297.6,30.2 -327.9,32.5 -335,62 
																-346.6,33.9 -376.9,36.2 -353.8,16.5 															"/>
														</defs>
														<clipPath id="SVGID_14_">
															<use xlink:href="#SVGID_13_"  style="overflow:visible;"/>
														</clipPath>
														<g class="st6">
															<path class="st7" d="M-395.7,14.1l60.6-51.6l49.1,57.7l-60.6,51.6L-395.7,14.1z"/>
														</g>
													</g>
												</g>
											</g>
										</g>
									</g>
								</g>
							</g>
						</g>
					</g>
				</g>
			</g>
		</g>
	</g>
</g>
</svg>
